{
.appVersion = "1064";
DisplayStrings = (

glyphs = (
{
glyphname = A;
lastChange = "2017-09-09 12:59:11 +0000";
layers = (
{
layerId = "6F85D940-A117-47EE-950D-70F837F8C9CE";
paths = (
{
closed = 1;
nodes = (
"-103 0 LINE",
"103 0 LINE",
"193 165 LINE",
"507 165 LINE",
"539 0 LINE",
"737 0 LINE",
"550 825 LINE",
"376 825 LINE"
);
},
{
closed = 1;
nodes = (
"422 570 LINE",
"423 570 LINE",
"472 330 LINE",
"286 330 LINE"
);
}
);
width = 784;
},
{
layerId = "7984B694-437B-44C7-A8AE-41A7C9CC5720";
paths = (
{
closed = 1;
nodes = (
"-78 0 LINE",
"-1 0 LINE",
"112 214 LINE",
"470 214 LINE",
"515 0 LINE",
"590 0 LINE",
"422 825 LINE",
"352 825 LINE"
);
},
{
closed = 1;
nodes = (
"370 723 LINE",
"373 723 LINE",
"461 279 LINE",
"141 279 LINE"
);
}
);
width = 644;
}
);
leftKerningGroup = A;
rightKerningGroup = A;
unicode = 0041;
},
{
glyphname = AE;
lastChange = "2017-06-25 12:04:12 +0000";
layers = (
{
components = (
{
alignment = -1;
name = E;
transform = "{1, 0, 0, 1, 442, 0}";
}
);
layerId = "6F85D940-A117-47EE-950D-70F837F8C9CE";
paths = (
{
closed = 1;
nodes = (
"-80 0 LINE",
"136 0 LINE",
"245 165 LINE",
"556 165 LINE",
"709 825 LINE",
"513 825 LINE"
);
},
{
closed = 1;
nodes = (
"534 570 LINE",
"534 570 LINE",
"491 330 LINE",
"368 330 LINE"
);
}
);
width = 1039;
},
{
components = (
{
alignment = -1;
name = E;
transform = "{1, 0, 0, 1, 407, 0}";
}
);
layerId = "7984B694-437B-44C7-A8AE-41A7C9CC5720";
paths = (
{
closed = 1;
nodes = (
"-79 0 LINE",
"-1 0 LINE",
"160 214 LINE",
"501 214 LINE",
"609 825 LINE",
"538 825 LINE"
);
},
{
closed = 1;
nodes = (
"535 723 LINE",
"536 723 LINE",
"458 279 LINE",
"204 279 LINE"
);
}
);
width = 944;
}
);
rightKerningGroup = d;
unicode = 00C6;
},
{
glyphname = B;
lastChange = "2017-09-09 10:38:48 +0000";
layers = (
{
layerId = "6F85D940-A117-47EE-950D-70F837F8C9CE";
paths = (
{
closed = 1;
nodes = (
"-13 0 LINE",
"310 0 LINE SMOOTH",
"481 0 OFFCURVE",
"586 87 OFFCURVE",
"609 217 CURVE SMOOTH",
"633 356 OFFCURVE",
"575 419 OFFCURVE",
"481 435 CURVE",
"561 454 OFFCURVE",
"625 511 OFFCURVE",
"641 602 CURVE SMOOTH",
"670 765 OFFCURVE",
"553 825 OFFCURVE",
"411 825 CURVE SMOOTH",
"133 825 LINE"
);
},
{
closed = 1;
nodes = (
"235 340 LINE",
"300 340 LINE SMOOTH",
"389 340 OFFCURVE",
"429 320 OFFCURVE",
"416 250 CURVE SMOOTH",
"404 179 OFFCURVE",
"343 145 OFFCURVE",
"254 145 CURVE SMOOTH",
"201 145 LINE"
);
},
{
closed = 1;
nodes = (
"295 680 LINE",
"354 680 LINE SMOOTH",
"436 680 OFFCURVE",
"466 662 OFFCURVE",
"457 609 CURVE SMOOTH",
"443 534 OFFCURVE",
"392 502 OFFCURVE",
"311 502 CURVE SMOOTH",
"264 502 LINE"
);
}
);
width = 666;
},
{
layerId = "7984B694-437B-44C7-A8AE-41A7C9CC5720";
paths = (
{
closed = 1;
nodes = (
"-11 0 LINE",
"246 0 LINE SMOOTH",
"417 0 OFFCURVE",
"507 104 OFFCURVE",
"529 230 CURVE SMOOTH",
"551 357 OFFCURVE",
"453 419 OFFCURVE",
"395 424 CURVE",
"450 434 OFFCURVE",
"538 518 OFFCURVE",
"557 625 CURVE SMOOTH",
"585 782 OFFCURVE",
"470 825 OFFCURVE",
"338 825 CURVE SMOOTH",
"134 825 LINE"
);
},
{
closed = 1;
nodes = (
"125 390 LINE",
"304 390 LINE SMOOTH",
"433 390 OFFCURVE",
"476 313 OFFCURVE",
"461 227 CURVE SMOOTH",
"448 152 OFFCURVE",
"396 65 OFFCURVE",
"257 65 CURVE SMOOTH",
"68 65 LINE"
);
},
{
closed = 1;
nodes = (
"191 760 LINE",
"334 760 LINE SMOOTH",
"456 760 OFFCURVE",
"507 715 OFFCURVE",
"489 616 CURVE SMOOTH",
"475 537 OFFCURVE",
"410 452 OFFCURVE",
"299 452 CURVE SMOOTH",
"136 452 LINE"
);
}
);
width = 593;
}
);
rightKerningGroup = d;
unicode = 0042;
},
{
glyphname = C;
lastChange = "2017-09-09 12:58:53 +0000";
layers = (
{
background = {
components = (
{
name = O;
transform = "{1, 0, 0, 1, 2, 0}";
}
);
};
guideLines = (
{
angle = 80;
position = "{653, 372}";
}
);
layerId = "6F85D940-A117-47EE-950D-70F837F8C9CE";
paths = (
{
closed = 1;
nodes = (
"247 163 OFFCURVE",
"213 304 OFFCURVE",
"232 429 CURVE SMOOTH",
"251 557 OFFCURVE",
"329 664 OFFCURVE",
"495 664 CURVE SMOOTH",
"616 664 OFFCURVE",
"695 622 OFFCURVE",
"695 622 CURVE",
"727 804 LINE",
"684 822 OFFCURVE",
"619 840 OFFCURVE",
"514 838 CURVE SMOOTH",
"222 833 OFFCURVE",
"63 634 OFFCURVE",
"32 424 CURVE SMOOTH",
"0 205 OFFCURVE",
"107 -15 OFFCURVE",
"406 -15 CURVE SMOOTH",
"482 -15 OFFCURVE",
"550 1 OFFCURVE",
"596 19 CURVE",
"627 204 LINE",
"629 204 OFFCURVE",
"544 163 OFFCURVE",
"443 163 CURVE SMOOTH"
);
}
);
width = 688;
},
{
background = {
paths = (
{
closed = 1;
nodes = (
"677 803 LINE",
"645 825 OFFCURVE",
"598 840 OFFCURVE",
"511 840 CURVE SMOOTH",
"280 840 OFFCURVE",
"86 654 OFFCURVE",
"43 413 CURVE SMOOTH",
"0 172 OFFCURVE",
"111 -15 OFFCURVE",
"360 -15 CURVE SMOOTH",
"440 -15 OFFCURVE",
"506 5 OFFCURVE",
"540 25 CURVE",
"553 101 LINE",
"530 86 OFFCURVE",
"474 53 OFFCURVE",
"372 53 CURVE SMOOTH",
"219 53 OFFCURVE",
"76 170 OFFCURVE",
"118 413 CURVE SMOOTH",
"160 656 OFFCURVE",
"355 773 OFFCURVE",
"499 773 CURVE SMOOTH",
"604 773 OFFCURVE",
"647 740 OFFCURVE",
"664 727 CURVE"
);
}
);
};
guideLines = (
{
angle = 80;
position = "{612, 494}";
}
);
layerId = "7984B694-437B-44C7-A8AE-41A7C9CC5720";
paths = (
{
closed = 1;
nodes = (
"677 803 LINE",
"645 825 OFFCURVE",
"598 840 OFFCURVE",
"511 840 CURVE SMOOTH",
"280 840 OFFCURVE",
"86 654 OFFCURVE",
"43 413 CURVE SMOOTH",
"0 172 OFFCURVE",
"111 -15 OFFCURVE",
"360 -15 CURVE SMOOTH",
"440 -15 OFFCURVE",
"506 5 OFFCURVE",
"540 25 CURVE",
"553 101 LINE",
"530 86 OFFCURVE",
"470 52 OFFCURVE",
"368 52 CURVE SMOOTH",
"215 52 OFFCURVE",
"74 167 OFFCURVE",
"116 410 CURVE SMOOTH",
"158 653 OFFCURVE",
"352 774 OFFCURVE",
"496 774 CURVE SMOOTH",
"601 774 OFFCURVE",
"647 740 OFFCURVE",
"664 727 CURVE"
);
}
);
width = 630;
}
);
unicode = 0043;
},
{
glyphname = D;
lastChange = "2017-09-24 14:31:03 +0000";
layers = (
{
layerId = "6F85D940-A117-47EE-950D-70F837F8C9CE";
paths = (
{
closed = 1;
nodes = (
"-13 0 LINE",
"242 0 LINE SMOOTH",
"469 0 OFFCURVE",
"656 165 OFFCURVE",
"698 400 CURVE SMOOTH",
"741 646 OFFCURVE",
"602 825 OFFCURVE",
"376 825 CURVE SMOOTH",
"133 825 LINE"
);
},
{
closed = 1;
nodes = (
"336 657 LINE SMOOTH",
"476 657 OFFCURVE",
"527 557 OFFCURVE",
"504 425 CURVE SMOOTH",
"478 281 OFFCURVE",
"377 168 OFFCURVE",
"238 168 CURVE SMOOTH",
"205 168 LINE",
"291 657 LINE"
);
}
);
width = 722;
},
{
background = {
paths = (
{
closed = 1;
nodes = (
"-3 0 LINE",
"166 0 LINE SMOOTH",
"423 0 OFFCURVE",
"574 172 OFFCURVE",
"612 413 CURVE SMOOTH",
"650 653 OFFCURVE",
"553 825 OFFCURVE",
"297 825 CURVE SMOOTH",
"128 825 LINE"
);
},
{
closed = 1;
nodes = (
"264 757 LINE SMOOTH",
"484 757 OFFCURVE",
"580 630 OFFCURVE",
"544 412 CURVE SMOOTH",
"508 194 OFFCURVE",
"374 68 OFFCURVE",
"155 68 CURVE SMOOTH",
"76 68 LINE",
"185 757 LINE"
);
}
);
};
layerId = "7984B694-437B-44C7-A8AE-41A7C9CC5720";
paths = (
{
closed = 1;
nodes = (
"-3 0 LINE",
"166 0 LINE SMOOTH",
"423 0 OFFCURVE",
"574 172 OFFCURVE",
"612 413 CURVE SMOOTH",
"650 653 OFFCURVE",
"553 825 OFFCURVE",
"297 825 CURVE SMOOTH",
"128 825 LINE"
);
},
{
closed = 1;
nodes = (
"265 763 LINE SMOOTH",
"503 763 OFFCURVE",
"577 630 OFFCURVE",
"541 412 CURVE SMOOTH",
"505 194 OFFCURVE",
"374 68 OFFCURVE",
"155 68 CURVE SMOOTH",
"76 68 LINE",
"186 763 LINE"
);
}
);
width = 635;
}
);
rightKerningGroup = d;
unicode = 0044;
},
{
glyphname = Eth;
lastChange = "2017-06-25 12:04:12 +0000";
layers = (
{
layerId = "6F85D940-A117-47EE-950D-70F837F8C9CE";
paths = (
{
closed = 1;
nodes = (
"171 825 LINE",
"111 489 LINE",
"29 489 LINE",
"3 336 LINE",
"85 336 LINE",
"25 0 LINE",
"270 0 LINE SMOOTH",
"496 0 OFFCURVE",
"708 164 OFFCURVE",
"751 399 CURVE SMOOTH",
"794 646 OFFCURVE",
"631 825 OFFCURVE",
"404 825 CURVE SMOOTH"
);
},
{
closed = 1;
nodes = (
"243 168 LINE",
"273 336 LINE",
"382 336 LINE",
"408 489 LINE",
"299 489 LINE",
"329 657 LINE",
"364 657 LINE SMOOTH",
"503 657 OFFCURVE",
"574 557 OFFCURVE",
"552 426 CURVE SMOOTH",
"527 282 OFFCURVE",
"406 168 OFFCURVE",
"266 168 CURVE SMOOTH"
);
}
);
width = 776;
},
{
layerId = "7984B694-437B-44C7-A8AE-41A7C9CC5720";
paths = (
{
closed = 1;
nodes = (
"223 825 LINE",
"155 439 LINE",
"21 439 LINE",
"11 386 LINE",
"145 386 LINE",
"77 0 LINE",
"249 0 LINE SMOOTH",
"506 0 OFFCURVE",
"657 170 OFFCURVE",
"699 408 CURVE SMOOTH",
"742 651 OFFCURVE",
"645 825 OFFCURVE",
"389 825 CURVE SMOOTH"
);
},
{
closed = 1;
nodes = (
"157 68 LINE",
"213 386 LINE",
"360 386 LINE",
"370 439 LINE",
"223 439 LINE",
"279 757 LINE",
"360 757 LINE SMOOTH",
"580 757 OFFCURVE",
"672 632 OFFCURVE",
"633 417 CURVE SMOOTH",
"593 196 OFFCURVE",
"453 68 OFFCURVE",
"234 68 CURVE SMOOTH"
);
}
);
width = 723;
}
);
rightKerningGroup = d;
unicode = 00D0;
},
{
glyphname = Dcroat;
lastChange = "2017-06-25 12:04:12 +0000";
layers = (
{
layerId = "6F85D940-A117-47EE-950D-70F837F8C9CE";
paths = (
{
closed = 1;
nodes = (
"270 0 LINE SMOOTH",
"497 0 OFFCURVE",
"709 165 OFFCURVE",
"751 400 CURVE SMOOTH",
"794 646 OFFCURVE",
"630 825 OFFCURVE",
"404 825 CURVE SMOOTH",
"171 825 LINE",
"111 489 LINE",
"29 489 LINE",
"3 336 LINE",
"85 336 LINE",
"25 0 LINE"
);
},
{
closed = 1;
nodes = (
"273 336 LINE",
"382 336 LINE",
"408 489 LINE",
"299 489 LINE",
"329 657 LINE",
"364 657 LINE SMOOTH",
"504 657 OFFCURVE",
"575 557 OFFCURVE",
"552 425 CURVE SMOOTH",
"526 281 OFFCURVE",
"405 168 OFFCURVE",
"266 168 CURVE SMOOTH",
"243 168 LINE"
);
}
);
width = 776;
},
{
layerId = "7984B694-437B-44C7-A8AE-41A7C9CC5720";
paths = (
{
closed = 1;
nodes = (
"249 0 LINE SMOOTH",
"506 0 OFFCURVE",
"657 170 OFFCURVE",
"699 408 CURVE SMOOTH",
"742 651 OFFCURVE",
"645 825 OFFCURVE",
"389 825 CURVE SMOOTH",
"223 825 LINE",
"155 439 LINE",
"21 439 LINE",
"11 386 LINE",
"145 386 LINE",
"77 0 LINE"
);
},
{
closed = 1;
nodes = (
"213 386 LINE",
"360 386 LINE",
"370 439 LINE",
"223 439 LINE",
"279 757 LINE",
"360 757 LINE SMOOTH",
"580 757 OFFCURVE",
"672 632 OFFCURVE",
"633 417 CURVE SMOOTH",
"593 196 OFFCURVE",
"453 68 OFFCURVE",
"234 68 CURVE SMOOTH",
"157 68 LINE"
);
}
);
width = 723;
}
);
rightKerningGroup = d;
unicode = 0110;
},
{
glyphname = E;
lastChange = "2017-07-23 15:58:27 +0000";
layers = (
{
layerId = "6F85D940-A117-47EE-950D-70F837F8C9CE";
paths = (
{
closed = 1;
nodes = (
"-13 0 LINE",
"479 0 LINE",
"508 165 LINE",
"204 165 LINE",
"234 331 LINE",
"526 331 LINE",
"555 496 LINE",
"263 496 LINE",
"292 660 LINE",
"596 660 LINE",
"625 825 LINE",
"133 825 LINE"
);
}
);
width = 600;
},
{
layerId = "7984B694-437B-44C7-A8AE-41A7C9CC5720";
paths = (
{
closed = 1;
nodes = (
"4 0 LINE",
"426 0 LINE",
"437 65 LINE",
"83 65 LINE",
"133 381 LINE",
"475 381 LINE",
"485 446 LINE",
"143 446 LINE",
"193 760 LINE",
"547 760 LINE",
"558 825 LINE",
"136 825 LINE"
);
}
);
width = 552;
}
);
rightKerningGroup = E;
unicode = 0045;
},
{
glyphname = F;
lastChange = "2017-09-09 12:59:40 +0000";
layers = (
{
layerId = "6F85D940-A117-47EE-950D-70F837F8C9CE";
paths = (
{
closed = 1;
nodes = (
"-13 0 LINE",
"175 0 LINE",
"234 331 LINE",
"501 331 LINE",
"530 496 LINE",
"263 496 LINE",
"292 660 LINE",
"581 660 LINE",
"610 825 LINE",
"133 825 LINE"
);
}
);
width = 567;
},
{
layerId = "7984B694-437B-44C7-A8AE-41A7C9CC5720";
paths = (
{
closed = 1;
nodes = (
"-6 0 LINE",
"62 0 LINE",
"123 381 LINE",
"440 381 LINE",
"450 446 LINE",
"133 446 LINE",
"183 760 LINE",
"522 760 LINE",
"533 825 LINE",
"126 825 LINE"
);
}
);
width = 497;
}
);
rightKerningGroup = F;
unicode = 0046;
},
{
glyphname = G;
lastChange = "2017-09-09 10:42:08 +0000";
layers = (
{
background = {
components = (
{
name = O;
}
);
};
layerId = "6F85D940-A117-47EE-950D-70F837F8C9CE";
paths = (
{
closed = 1;
nodes = (
"408 317 LINE",
"605 319 LINE",
"588 218 OFFCURVE",
"500 151 OFFCURVE",
"387 157 CURVE SMOOTH",
"277 163 OFFCURVE",
"200 282 OFFCURVE",
"224 416 CURVE SMOOTH",
"250 565 OFFCURVE",
"337 670 OFFCURVE",
"458 670 CURVE SMOOTH",
"526 670 OFFCURVE",
"616 647 OFFCURVE",
"651 570 CURVE",
"790 701 LINE",
"725 797 OFFCURVE",
"614 841 OFFCURVE",
"497 841 CURVE SMOOTH",
"231 841 OFFCURVE",
"65 648 OFFCURVE",
"28 438 CURVE SMOOTH",
"-11 220 OFFCURVE",
"90 -15 OFFCURVE",
"361 -15 CURVE SMOOTH",
"714 -15 OFFCURVE",
"791 284 OFFCURVE",
"796 318 CURVE SMOOTH",
"819 462 LINE",
"434 462 LINE"
);
}
);
width = 829;
},
{
background = {
paths = (
{
closed = 1;
nodes = (
"392 377 LINE",
"672 377 LINE",
"640 174 OFFCURVE",
"514 53 OFFCURVE",
"341 53 CURVE SMOOTH",
"162 53 OFFCURVE",
"65 202 OFFCURVE",
"99 412 CURVE SMOOTH",
"133 625 OFFCURVE",
"291 774 OFFCURVE",
"457 774 CURVE SMOOTH",
"596 774 OFFCURVE",
"648 710 OFFCURVE",
"672 683 CURVE",
"732 732 LINE",
"700 768 OFFCURVE",
"632 840 OFFCURVE",
"467 840 CURVE SMOOTH",
"245 840 OFFCURVE",
"63 649 OFFCURVE",
"26 412 CURVE SMOOTH",
"-11 176 OFFCURVE",
"98 -15 OFFCURVE",
"330 -15 CURVE SMOOTH",
"679 -15 OFFCURVE",
"743 350 OFFCURVE",
"748 384 CURVE",
"757 442 LINE",
"402 442 LINE"
);
}
);
};
layerId = "7984B694-437B-44C7-A8AE-41A7C9CC5720";
paths = (
{
closed = 1;
nodes = (
"392 377 LINE",
"672 377 LINE",
"640 174 OFFCURVE",
"514 53 OFFCURVE",
"341 53 CURVE SMOOTH",
"162 53 OFFCURVE",
"65 202 OFFCURVE",
"99 412 CURVE SMOOTH",
"133 625 OFFCURVE",
"291 774 OFFCURVE",
"457 774 CURVE SMOOTH",
"596 774 OFFCURVE",
"648 710 OFFCURVE",
"672 683 CURVE",
"732 732 LINE",
"700 768 OFFCURVE",
"632 840 OFFCURVE",
"467 840 CURVE SMOOTH",
"245 840 OFFCURVE",
"63 649 OFFCURVE",
"26 412 CURVE SMOOTH",
"-11 176 OFFCURVE",
"98 -15 OFFCURVE",
"330 -15 CURVE SMOOTH",
"679 -15 OFFCURVE",
"743 350 OFFCURVE",
"748 384 CURVE",
"757 442 LINE",
"402 442 LINE"
);
}
);
width = 769;
}
);
leftKerningGroup = G;
rightKerningGroup = d;
unicode = 0047;
},
{
glyphname = H;
lastChange = "2017-07-23 15:58:27 +0000";
layers = (
{
layerId = "6F85D940-A117-47EE-950D-70F837F8C9CE";
paths = (
{
closed = 1;
nodes = (
"441 0 LINE",
"629 0 LINE",
"775 825 LINE",
"587 825 LINE",
"529 496 LINE",
"263 496 LINE",
"321 825 LINE",
"133 825 LINE",
"-13 0 LINE",
"175 0 LINE",
"234 331 LINE",
"500 331 LINE"
);
}
);
width = 762;
},
{
layerId = "7984B694-437B-44C7-A8AE-41A7C9CC5720";
paths = (
{
closed = 1;
nodes = (
"458 0 LINE",
"526 0 LINE",
"658 825 LINE",
"590 825 LINE",
"529 446 LINE",
"133 446 LINE",
"194 825 LINE",
"126 825 LINE",
"-6 0 LINE",
"62 0 LINE",
"123 381 LINE",
"519 381 LINE"
);
}
);
width = 652;
}
);
rightKerningGroup = d;
unicode = 0048;
},
{
glyphname = Hbar;
lastChange = "2017-06-25 12:04:12 +0000";
layers = (
{
components = (
{
name = H;
}
);
layerId = "6F85D940-A117-47EE-950D-70F837F8C9CE";
paths = (
{
closed = 1;
nodes = (
"28 578 LINE",
"790 578 LINE",
"815 718 LINE",
"53 718 LINE"
);
}
);
width = 762;
},
{
components = (
{
name = H;
}
);
layerId = "7984B694-437B-44C7-A8AE-41A7C9CC5720";
paths = (
{
closed = 1;
nodes = (
"37 628 LINE",
"699 628 LINE",
"708 678 LINE",
"46 678 LINE"
);
}
);
width = 652;
}
);
unicode = 0126;
},
{
glyphname = I;
lastChange = "2017-07-23 15:58:27 +0000";
layers = (
{
layerId = "6F85D940-A117-47EE-950D-70F837F8C9CE";
paths = (
{
closed = 1;
nodes = (
"-13 0 LINE",
"175 0 LINE",
"321 825 LINE",
"133 825 LINE"
);
}
);
width = 308;
},
{
layerId = "7984B694-437B-44C7-A8AE-41A7C9CC5720";
paths = (
{
closed = 1;
nodes = (
"4 0 LINE",
"72 0 LINE",
"204 825 LINE",
"136 825 LINE"
);
}
);
width = 208;
}
);
leftKerningGroup = i;
rightKerningGroup = d;
unicode = 0049;
},
{
glyphname = J;
lastChange = "2017-09-09 12:17:03 +0000";
layers = (
{
layerId = "6F85D940-A117-47EE-950D-70F837F8C9CE";
paths = (
{
closed = 1;
nodes = (
"492 825 LINE",
"304 825 LINE",
"209 288 LINE SMOOTH",
"194 205 OFFCURVE",
"141 165 OFFCURVE",
"81 165 CURVE SMOOTH",
"39 165 OFFCURVE",
"-4 215 OFFCURVE",
"-4 215 CURVE",
"-89 64 LINE",
"-87 64 OFFCURVE",
"-26 -15 OFFCURVE",
"98 -15 CURVE SMOOTH",
"257 -15 OFFCURVE",
"358 64 OFFCURVE",
"386 226 CURVE SMOOTH"
);
}
);
width = 469;
},
{
layerId = "7984B694-437B-44C7-A8AE-41A7C9CC5720";
paths = (
{
closed = 1;
nodes = (
"435 825 LINE",
"367 825 LINE",
"274 243 LINE SMOOTH",
"261 160 OFFCURVE",
"236 45 OFFCURVE",
"104 45 CURVE SMOOTH",
"16 45 OFFCURVE",
"-38 97 OFFCURVE",
"-52 118 CURVE",
"-87 61 LINE",
"-87 61 OFFCURVE",
"-32 -15 OFFCURVE",
"100 -15 CURVE SMOOTH",
"263 -15 OFFCURVE",
"318 89 OFFCURVE",
"343 251 CURVE SMOOTH"
);
}
);
width = 424;
}
);
rightKerningGroup = d;
unicode = 004A;
},
{
glyphname = K;
lastChange = "2017-09-09 13:02:14 +0000";
layers = (
{
layerId = "6F85D940-A117-47EE-950D-70F837F8C9CE";
paths = (
{
closed = 1;
nodes = (
"804 825 LINE",
"572 825 LINE",
"259 488 LINE",
"321 825 LINE",
"133 825 LINE",
"-13 0 LINE",
"175 0 LINE",
"241 360 LINE",
"451 0 LINE",
"686 0 LINE",
"421 434 LINE"
);
}
);
width = 761;
},
{
layerId = "7984B694-437B-44C7-A8AE-41A7C9CC5720";
paths = (
{
closed = 1;
nodes = (
"596 825 LINE",
"506 825 LINE",
"130 428 LINE",
"194 825 LINE",
"126 825 LINE",
"-6 0 LINE",
"62 0 LINE",
"125 390 LINE",
"397 0 LINE",
"484 0 LINE",
"197 414 LINE"
);
}
);
width = 551;
}
);
rightKerningGroup = K;
unicode = 004B;
},
{
glyphname = L;
lastChange = "2017-09-09 12:34:47 +0000";
layers = (
{
layerId = "6F85D940-A117-47EE-950D-70F837F8C9CE";
paths = (
{
closed = 1;
nodes = (
"-13 0 LINE",
"459 0 LINE",
"488 165 LINE",
"204 165 LINE",
"321 825 LINE",
"133 825 LINE"
);
}
);
width = 565;
},
{
layerId = "7984B694-437B-44C7-A8AE-41A7C9CC5720";
paths = (
{
closed = 1;
nodes = (
"-6 0 LINE",
"396 0 LINE",
"407 65 LINE",
"73 65 LINE",
"194 825 LINE",
"126 825 LINE"
);
}
);
width = 495;
}
);
rightKerningGroup = L;
unicode = 004C;
},
{
glyphname = Lslash;
lastChange = "2017-09-09 12:36:03 +0000";
layers = (
{
layerId = "6F85D940-A117-47EE-950D-70F837F8C9CE";
paths = (
{
closed = 1;
nodes = (
"495 0 LINE",
"524 165 LINE",
"240 165 LINE",
"294 457 LINE",
"413 540 LINE",
"437 693 LINE",
"317 610 LINE",
"357 825 LINE",
"169 825 LINE",
"103 462 LINE",
"17 403 LINE",
"-7 250 LINE",
"79 309 LINE",
"23 0 LINE"
);
}
);
width = 601;
},
{
layerId = "7984B694-437B-44C7-A8AE-41A7C9CC5720";
paths = (
{
closed = 1;
nodes = (
"439 0 LINE",
"451 65 LINE",
"117 65 LINE",
"184 444 LINE",
"274 506 LINE",
"287 589 LINE",
"198 527 LINE",
"251 825 LINE",
"183 825 LINE",
"120 474 LINE",
"18 403 LINE",
"4 320 LINE",
"107 391 LINE",
"37 0 LINE"
);
}
);
width = 545;
}
);
rightKerningGroup = L;
unicode = 0141;
},
{
glyphname = M;
lastChange = "2017-09-09 13:45:48 +0000";
layers = (
{
background = {
paths = (
{
closed = 1;
nodes = (
"701 825 LINE",
"436 301 LINE",
"427 279 LINE",
"424 301 LINE",
"329 825 LINE",
"103 825 LINE",
"-43 0 LINE",
"145 0 LINE",
"235 529 LINE",
"240 473 LINE",
"312 0 LINE",
"444 0 LINE",
"687 494 LINE",
"703 533 LINE",
"607 0 LINE",
"795 0 LINE",
"941 825 LINE"
);
}
);
};
layerId = "6F85D940-A117-47EE-950D-70F837F8C9CE";
paths = (
{
closed = 1;
nodes = (
"741 825 LINE",
"432 301 LINE",
"423 279 LINE",
"420 301 LINE",
"299 825 LINE",
"103 825 LINE",
"-43 0 LINE",
"145 0 LINE",
"228 461 LINE",
"231 423 LINE",
"312 0 LINE",
"444 0 LINE",
"676 423 LINE",
"689 461 LINE",
"607 0 LINE",
"795 0 LINE",
"941 825 LINE"
);
}
);
width = 908;
},
{
layerId = "7984B694-437B-44C7-A8AE-41A7C9CC5720";
paths = (
{
closed = 1;
nodes = (
"725 825 LINE",
"347 121 LINE",
"339 99 LINE",
"335 121 LINE",
"183 825 LINE",
"116 825 LINE",
"-16 0 LINE",
"52 0 LINE",
"161 689 LINE",
"166 603 LINE",
"298 0 LINE",
"350 0 LINE",
"671 603 LINE",
"705 689 LINE",
"594 0 LINE",
"662 0 LINE",
"794 825 LINE"
);
}
);
width = 788;
}
);
rightKerningGroup = d;
unicode = 004D;
},
{
glyphname = N;
lastChange = "2017-09-09 12:20:04 +0000";
layers = (
{
layerId = "6F85D940-A117-47EE-950D-70F837F8C9CE";
paths = (
{
closed = 1;
nodes = (
"507 0 LINE",
"693 0 LINE",
"839 825 LINE",
"651 825 LINE",
"560 313 LINE",
"556 313 LINE",
"319 825 LINE",
"133 825 LINE",
"-13 0 LINE",
"175 0 LINE",
"266 512 LINE",
"270 512 LINE"
);
}
);
width = 826;
},
{
layerId = "7984B694-437B-44C7-A8AE-41A7C9CC5720";
paths = (
{
closed = 1;
nodes = (
"513 0 LINE",
"580 0 LINE",
"712 825 LINE",
"644 825 LINE",
"532 123 LINE",
"527 123 LINE",
"193 825 LINE",
"126 825 LINE",
"-6 0 LINE",
"62 0 LINE",
"173 700 LINE",
"177 700 LINE"
);
}
);
width = 706;
}
);
rightKerningGroup = d;
unicode = 004E;
},
{
glyphname = Eng;
lastChange = "2017-09-09 10:44:47 +0000";
layers = (
{
components = (
{
name = N;
}
);
layerId = "6F85D940-A117-47EE-950D-70F837F8C9CE";
paths = (
{
closed = 1;
nodes = (
"680 -72 LINE SMOOTH",
"664 -163 OFFCURVE",
"595 -275 OFFCURVE",
"437 -275 CURVE SMOOTH",
"359 -275 OFFCURVE",
"331 -257 OFFCURVE",
"308 -246 CURVE",
"390 -100 LINE",
"399 -106 OFFCURVE",
"425 -115 OFFCURVE",
"446 -115 CURVE SMOOTH",
"477 -115 OFFCURVE",
"489 -93 OFFCURVE",
"496 -52 CURVE SMOOTH",
"505 0 LINE",
"693 0 LINE"
);
}
);
width = 826;
},
{
components = (
{
name = N;
}
);
layerId = "7984B694-437B-44C7-A8AE-41A7C9CC5720";
paths = (
{
closed = 1;
nodes = (
"567 -77 LINE SMOOTH",
"550 -178 OFFCURVE",
"508 -275 OFFCURVE",
"398 -275 CURVE SMOOTH",
"347 -275 OFFCURVE",
"310 -256 OFFCURVE",
"308 -254 CURVE",
"346 -195 LINE",
"357 -206 OFFCURVE",
"380 -213 OFFCURVE",
"403 -213 CURVE SMOOTH",
"473 -213 OFFCURVE",
"489 -141 OFFCURVE",
"505 -47 CURVE SMOOTH",
"513 0 LINE",
"580 0 LINE"
);
}
);
width = 706;
}
);
unicode = 014A;
},
{
glyphname = O;
lastChange = "2017-09-09 12:23:31 +0000";
layers = (
{
guideLines = (
{
angle = 80;
position = "{664, 437}";
}
);
layerId = "6F85D940-A117-47EE-950D-70F837F8C9CE";
paths = (
{
closed = 1;
nodes = (
"242 546 OFFCURVE",
"326 664 OFFCURVE",
"472 664 CURVE SMOOTH",
"608 664 OFFCURVE",
"683 557 OFFCURVE",
"657 415 CURVE SMOOTH",
"631 274 OFFCURVE",
"545 162 OFFCURVE",
"397 162 CURVE SMOOTH",
"256 162 OFFCURVE",
"199 290 OFFCURVE",
"220 415 CURVE SMOOTH"
);
},
{
closed = 1;
nodes = (
"-19 174 OFFCURVE",
"125 -15 OFFCURVE",
"379 -15 CURVE SMOOTH",
"607 -15 OFFCURVE",
"808 145 OFFCURVE",
"852 402 CURVE SMOOTH",
"894 650 OFFCURVE",
"746 840 OFFCURVE",
"494 840 CURVE SMOOTH",
"255 840 OFFCURVE",
"67 669 OFFCURVE",
"25 428 CURVE SMOOTH"
);
}
);
width = 877;
},
{
layerId = "7984B694-437B-44C7-A8AE-41A7C9CC5720";
paths = (
{
closed = 1;
nodes = (
"127 604 OFFCURVE",
"272 781 OFFCURVE",
"469 781 CURVE SMOOTH",
"657 781 OFFCURVE",
"754 616 OFFCURVE",
"722 418 CURVE SMOOTH",
"690 222 OFFCURVE",
"550 44 OFFCURVE",
"348 44 CURVE SMOOTH",
"156 44 OFFCURVE",
"64 205 OFFCURVE",
"95 408 CURVE SMOOTH"
);
},
{
closed = 1;
nodes = (
"-15 175 OFFCURVE",
"100 -15 OFFCURVE",
"345 -15 CURVE SMOOTH",
"580 -15 OFFCURVE",
"755 170 OFFCURVE",
"793 408 CURVE SMOOTH",
"833 641 OFFCURVE",
"710 840 OFFCURVE",
"473 840 CURVE SMOOTH",
"248 840 OFFCURVE",
"62 656 OFFCURVE",
"24 418 CURVE SMOOTH"
);
}
);
width = 817;
}
);
leftKerningGroup = O;
rightKerningGroup = O;
unicode = 004F;
},
{
glyphname = Oslash;
lastChange = "2017-06-25 12:04:12 +0000";
layers = (
{
layerId = "6F85D940-A117-47EE-950D-70F837F8C9CE";
paths = (
{
closed = 1;
nodes = (
"172 41 LINE",
"224 7 OFFCURVE",
"291 -15 OFFCURVE",
"375 -15 CURVE SMOOTH",
"606 -15 OFFCURVE",
"810 165 OFFCURVE",
"852 400 CURVE SMOOTH",
"872 515 OFFCURVE",
"847 615 OFFCURVE",
"797 689 CURVE",
"873 767 LINE",
"772 853 LINE",
"702 782 LINE",
"649 817 OFFCURVE",
"583 840 OFFCURVE",
"503 840 CURVE SMOOTH",
"282 840 OFFCURVE",
"67 661 OFFCURVE",
"25 426 CURVE SMOOTH",
"5 309 OFFCURVE",
"27 208 OFFCURVE",
"76 133 CURVE",
"4 59 LINE",
"105 -27 LINE"
);
},
{
closed = 1;
nodes = (
"354 167 OFFCURVE",
"325 170 OFFCURVE",
"301 182 CURVE",
"653 542 LINE",
"661 504 OFFCURVE",
"660 462 OFFCURVE",
"653 426 CURVE SMOOTH",
"631 297 OFFCURVE",
"540 167 OFFCURVE",
"384 167 CURVE SMOOTH"
);
},
{
closed = 1;
nodes = (
"215 320 OFFCURVE",
"217 363 OFFCURVE",
"224 400 CURVE SMOOTH",
"247 529 OFFCURVE",
"343 659 OFFCURVE",
"494 659 CURVE SMOOTH",
"522 659 OFFCURVE",
"551 655 OFFCURVE",
"574 643 CURVE",
"222 282 LINE"
);
}
);
width = 877;
},
{
layerId = "7984B694-437B-44C7-A8AE-41A7C9CC5720";
paths = (
{
closed = 1;
nodes = (
"113 65 LINE",
"165 16 OFFCURVE",
"240 -15 OFFCURVE",
"338 -15 CURVE SMOOTH",
"573 -15 OFFCURVE",
"751 170 OFFCURVE",
"793 408 CURVE SMOOTH",
"815 530 OFFCURVE",
"794 635 OFFCURVE",
"741 712 CURVE",
"823 795 LINE",
"783 829 LINE",
"708 751 LINE",
"655 806 OFFCURVE",
"577 840 OFFCURVE",
"480 840 CURVE SMOOTH",
"255 840 OFFCURVE",
"66 656 OFFCURVE",
"24 418 CURVE SMOOTH",
"2 291 OFFCURVE",
"22 181 OFFCURVE",
"78 103 CURVE",
"1 25 LINE",
"41 -9 LINE"
);
},
{
closed = 1;
nodes = (
"262 47 OFFCURVE",
"202 71 OFFCURVE",
"160 115 CURVE",
"692 660 LINE",
"728 594 OFFCURVE",
"738 507 OFFCURVE",
"722 418 CURVE SMOOTH",
"687 222 OFFCURVE",
"542 47 OFFCURVE",
"340 47 CURVE SMOOTH"
);
},
{
closed = 1;
nodes = (
"88 223 OFFCURVE",
"79 315 OFFCURVE",
"95 408 CURVE SMOOTH",
"130 604 OFFCURVE",
"281 779 OFFCURVE",
"478 779 CURVE SMOOTH",
"557 779 OFFCURVE",
"619 751 OFFCURVE",
"662 703 CURVE",
"129 156 LINE"
);
}
);
width = 817;
}
);
leftKerningGroup = O;
rightKerningGroup = O;
unicode = 00D8;
},
{
glyphname = OE;
lastChange = "2017-06-25 12:04:12 +0000";
layers = (
{
layerId = "6F85D940-A117-47EE-950D-70F837F8C9CE";
paths = (
{
closed = 1;
nodes = (
"889 0 LINE",
"918 165 LINE",
"634 165 LINE",
"664 331 LINE",
"936 331 LINE",
"965 496 LINE",
"693 496 LINE",
"722 660 LINE",
"1006 660 LINE",
"1035 825 LINE",
"506 825 LINE SMOOTH",
"279 825 OFFCURVE",
"67 660 OFFCURVE",
"25 425 CURVE SMOOTH",
"-18 178 OFFCURVE",
"145 0 OFFCURVE",
"372 0 CURVE SMOOTH"
);
},
{
closed = 1;
nodes = (
"272 168 OFFCURVE",
"201 268 OFFCURVE",
"224 400 CURVE SMOOTH",
"249 543 OFFCURVE",
"370 657 OFFCURVE",
"510 657 CURVE SMOOTH",
"533 657 LINE",
"447 168 LINE",
"412 168 LINE SMOOTH"
);
}
);
width = 1010;
},
{
layerId = "7984B694-437B-44C7-A8AE-41A7C9CC5720";
paths = (
{
closed = 1;
nodes = (
"798 0 LINE",
"810 65 LINE",
"456 65 LINE",
"511 381 LINE",
"853 381 LINE",
"865 446 LINE",
"523 446 LINE",
"578 760 LINE",
"932 760 LINE",
"944 825 LINE",
"479 825 LINE SMOOTH",
"252 825 OFFCURVE",
"66 656 OFFCURVE",
"24 418 CURVE SMOOTH",
"-19 174 OFFCURVE",
"95 0 OFFCURVE",
"339 0 CURVE SMOOTH"
);
},
{
closed = 1;
nodes = (
"141 62 OFFCURVE",
"62 218 OFFCURVE",
"95 408 CURVE SMOOTH",
"130 604 OFFCURVE",
"278 764 OFFCURVE",
"473 764 CURVE SMOOTH",
"511 764 LINE",
"387 62 LINE",
"345 62 LINE SMOOTH"
);
}
);
width = 919;
}
);
rightKerningGroup = d;
unicode = 0152;
},
{
glyphname = P;
lastChange = "2017-09-09 13:36:31 +0000";
layers = (
{
layerId = "6F85D940-A117-47EE-950D-70F837F8C9CE";
paths = (
{
closed = 1;
nodes = (
"-13 0 LINE",
"175 0 LINE",
"229 306 LINE",
"348 306 LINE SMOOTH",
"509 306 OFFCURVE",
"640 394 OFFCURVE",
"669 558 CURVE SMOOTH",
"700 735 OFFCURVE",
"589 825 OFFCURVE",
"428 825 CURVE SMOOTH",
"133 825 LINE"
);
},
{
closed = 1;
nodes = (
"294 675 LINE",
"353 675 LINE SMOOTH",
"427 675 OFFCURVE",
"488 657 OFFCURVE",
"474 578 CURVE SMOOTH",
"458 488 OFFCURVE",
"377 456 OFFCURVE",
"303 456 CURVE SMOOTH",
"256 456 LINE"
);
}
);
width = 666;
},
{
layerId = "7984B694-437B-44C7-A8AE-41A7C9CC5720";
paths = (
{
closed = 1;
nodes = (
"4 0 LINE",
"72 0 LINE",
"126 336 LINE",
"261 336 LINE SMOOTH",
"422 336 OFFCURVE",
"543 412 OFFCURVE",
"569 579 CURVE SMOOTH",
"572 598 OFFCURVE",
"574 616 OFFCURVE",
"574 633 CURVE SMOOTH",
"574 768 OFFCURVE",
"477 825 OFFCURVE",
"334 825 CURVE SMOOTH",
"136 825 LINE"
);
},
{
closed = 1;
nodes = (
"193 760 LINE",
"309 760 LINE SMOOTH",
"404 760 OFFCURVE",
"510 740 OFFCURVE",
"510 624 CURVE SMOOTH",
"510 613 OFFCURVE",
"509 602 OFFCURVE",
"507 589 CURVE SMOOTH",
"483 434 OFFCURVE",
"351 401 OFFCURVE",
"247 401 CURVE SMOOTH",
"136 401 LINE"
);
}
);
width = 566;
}
);
rightKerningGroup = P;
unicode = 0050;
},
{
glyphname = Thorn;
lastChange = "2017-06-25 12:04:12 +0000";
layers = (
{
layerId = "6F85D940-A117-47EE-950D-70F837F8C9CE";
paths = (
{
closed = 1;
nodes = (
"-13 0 LINE",
"175 0 LINE",
"202 153 LINE",
"321 153 LINE SMOOTH",
"482 153 OFFCURVE",
"613 241 OFFCURVE",
"642 405 CURVE SMOOTH",
"673 582 OFFCURVE",
"562 672 OFFCURVE",
"401 672 CURVE SMOOTH",
"294 672 LINE",
"321 825 LINE",
"133 825 LINE"
);
},
{
closed = 1;
nodes = (
"267 522 LINE",
"326 522 LINE SMOOTH",
"400 522 OFFCURVE",
"456 503 OFFCURVE",
"442 425 CURVE SMOOTH",
"426 336 OFFCURVE",
"350 303 OFFCURVE",
"276 303 CURVE SMOOTH",
"229 303 LINE"
);
}
);
width = 666;
},
{
layerId = "7984B694-437B-44C7-A8AE-41A7C9CC5720";
paths = (
{
closed = 1;
nodes = (
"-13 0 LINE",
"55 0 LINE",
"82 153 LINE",
"228 153 LINE SMOOTH",
"389 153 OFFCURVE",
"504 246 OFFCURVE",
"533 413 CURVE SMOOTH",
"564 587 OFFCURVE",
"475 672 OFFCURVE",
"314 672 CURVE SMOOTH",
"174 672 LINE",
"201 825 LINE",
"133 825 LINE"
);
},
{
closed = 1;
nodes = (
"162 607 LINE",
"318 607 LINE SMOOTH",
"432 607 OFFCURVE",
"495 554 OFFCURVE",
"472 423 CURVE SMOOTH",
"448 287 OFFCURVE",
"358 218 OFFCURVE",
"244 218 CURVE SMOOTH",
"94 218 LINE"
);
}
);
width = 556;
}
);
rightKerningGroup = d;
unicode = 00DE;
},
{
glyphname = Q;
lastChange = "2017-09-09 12:21:06 +0000";
layers = (
{
background = {
components = (
{
name = Q.ss01;
transform = "{1, 0, 0, 1, 1, 0}";
}
);
};
layerId = "6F85D940-A117-47EE-950D-70F837F8C9CE";
paths = (
{
closed = 1;
nodes = (
"604 667 OFFCURVE",
"680 557 OFFCURVE",
"650 396 CURVE SMOOTH",
"624 256 OFFCURVE",
"538 178 OFFCURVE",
"423 117 CURVE SMOOTH",
"357 82 OFFCURVE",
"285 53 OFFCURVE",
"222 18 CURVE SMOOTH",
"180 -5 OFFCURVE",
"142 -31 OFFCURVE",
"111 -63 CURVE",
"164 -173 LINE",
"184 -153 OFFCURVE",
"236 -127 OFFCURVE",
"302 -127 CURVE SMOOTH",
"359 -127 OFFCURVE",
"397 -145 OFFCURVE",
"436 -163 CURVE SMOOTH",
"478 -183 OFFCURVE",
"522 -204 OFFCURVE",
"592 -204 CURVE SMOOTH",
"662 -204 OFFCURVE",
"715 -183 OFFCURVE",
"749 -147 CURVE",
"777 10 LINE",
"745 -9 OFFCURVE",
"679 -35 OFFCURVE",
"615 -35 CURVE SMOOTH",
"547 -35 OFFCURVE",
"495 -8 OFFCURVE",
"477 -8 CURVE",
"662 43 OFFCURVE",
"813 202 OFFCURVE",
"850 413 CURVE SMOOTH",
"893 657 OFFCURVE",
"750 840 OFFCURVE",
"501 840 CURVE SMOOTH",
"230 840 OFFCURVE",
"62 642 OFFCURVE",
"24 423 CURVE SMOOTH",
"-4 261 OFFCURVE",
"73 102 OFFCURVE",
"196 43 CURVE",
"328 125 LINE",
"222 223 OFFCURVE",
"208 341 OFFCURVE",
"228 436 CURVE SMOOTH",
"256 569 OFFCURVE",
"349 667 OFFCURVE",
"475 667 CURVE SMOOTH"
);
}
);
width = 873;
},
{
layerId = "7984B694-437B-44C7-A8AE-41A7C9CC5720";
paths = (
{
closed = 1;
nodes = (
"652 779 OFFCURVE",
"752 627 OFFCURVE",
"715 413 CURVE SMOOTH",
"660 92 OFFCURVE",
"354 22 OFFCURVE",
"257 -9 CURVE SMOOTH",
"232 -17 OFFCURVE",
"211 -26 OFFCURVE",
"193 -36 CURVE SMOOTH",
"165 -51 OFFCURVE",
"144 -67 OFFCURVE",
"135 -75 CURVE",
"162 -116 LINE",
"191 -93 OFFCURVE",
"252 -62 OFFCURVE",
"313 -62 CURVE SMOOTH",
"357 -62 OFFCURVE",
"395 -77 OFFCURVE",
"433 -92 CURVE SMOOTH",
"474 -109 OFFCURVE",
"520 -126 OFFCURVE",
"569 -126 CURVE SMOOTH",
"622 -126 OFFCURVE",
"673 -109 OFFCURVE",
"690 -101 CURVE",
"703 -28 LINE",
"677 -41 OFFCURVE",
"623 -59 OFFCURVE",
"570 -59 CURVE SMOOTH",
"504 -59 OFFCURVE",
"455 -33 OFFCURVE",
"397 -14 CURVE",
"597 27 OFFCURVE",
"751 206 OFFCURVE",
"788 413 CURVE SMOOTH",
"830 645 OFFCURVE",
"712 840 OFFCURVE",
"481 840 CURVE SMOOTH",
"258 840 OFFCURVE",
"68 681 OFFCURVE",
"27 436 CURVE SMOOTH",
"-1 267 OFFCURVE",
"48 104 OFFCURVE",
"191 37 CURVE",
"228 92 LINE",
"115 149 OFFCURVE",
"70 269 OFFCURVE",
"100 436 CURVE SMOOTH",
"136 637 OFFCURVE",
"279 779 OFFCURVE",
"470 779 CURVE SMOOTH"
);
}
);
width = 811;
}
);
leftMetricsKey = O;
rightMetricsKey = O;
unicode = 0051;
},
{
glyphname = R;
lastChange = "2017-09-09 13:36:21 +0000";
layers = (
{
layerId = "6F85D940-A117-47EE-950D-70F837F8C9CE";
paths = (
{
closed = 1;
nodes = (
"-13 0 LINE",
"175 0 LINE",
"233 326 LINE",
"236 326 LINE",
"399 0 LINE",
"634 0 LINE",
"445 339 LINE",
"554 371 OFFCURVE",
"631 449 OFFCURVE",
"651 567 CURVE SMOOTH",
"681 735 OFFCURVE",
"585 825 OFFCURVE",
"432 825 CURVE SMOOTH",
"133 825 LINE"
);
},
{
closed = 1;
nodes = (
"294 675 LINE",
"322 675 LINE SMOOTH",
"393 675 OFFCURVE",
"473 677 OFFCURVE",
"456 580 CURVE SMOOTH",
"436 471 OFFCURVE",
"363 459 OFFCURVE",
"292 459 CURVE SMOOTH",
"256 459 LINE"
);
}
);
width = 716;
},
{
layerId = "7984B694-437B-44C7-A8AE-41A7C9CC5720";
paths = (
{
closed = 1;
nodes = (
"-6 0 LINE",
"62 0 LINE",
"119 356 LINE",
"247 356 LINE",
"414 0 LINE",
"492 0 LINE",
"325 362 LINE",
"386 369 OFFCURVE",
"535 416 OFFCURVE",
"562 590 CURVE SMOOTH",
"588 747 OFFCURVE",
"500 825 OFFCURVE",
"328 825 CURVE SMOOTH",
"126 825 LINE"
);
},
{
closed = 1;
nodes = (
"183 760 LINE",
"320 760 LINE SMOOTH",
"444 760 OFFCURVE",
"522 713 OFFCURVE",
"501 599 CURVE SMOOTH",
"482 483 OFFCURVE",
"393 419 OFFCURVE",
"264 419 CURVE SMOOTH",
"129 419 LINE"
);
}
);
width = 579;
}
);
rightKerningGroup = R;
unicode = 0052;
},
{
glyphname = S;
lastChange = "2017-09-09 12:25:21 +0000";
layers = (
{
guideLines = (
{
angle = 56;
position = "{247, 482}";
}
);
layerId = "7984B694-437B-44C7-A8AE-41A7C9CC5720";
paths = (
{
closed = 1;
nodes = (
"232 840 OFFCURVE",
"116 753 OFFCURVE",
"101 642 CURVE SMOOTH",
"87 542 OFFCURVE",
"152 482 OFFCURVE",
"253 428 CURVE SMOOTH",
"355 373 OFFCURVE",
"462 339 OFFCURVE",
"448 214 CURVE SMOOTH",
"436 106 OFFCURVE",
"334 51 OFFCURVE",
"224 51 CURVE SMOOTH",
"149 51 OFFCURVE",
"73 77 OFFCURVE",
"16 131 CURVE",
"-27 68 LINE",
"39 16 OFFCURVE",
"122 -15 OFFCURVE",
"218 -15 CURVE SMOOTH",
"377 -15 OFFCURVE",
"500 72 OFFCURVE",
"517 206 CURVE SMOOTH",
"535 348 OFFCURVE",
"460 401 OFFCURVE",
"325 466 CURVE SMOOTH",
"243 506 OFFCURVE",
"161 554 OFFCURVE",
"172 633 CURVE SMOOTH",
"184 718 OFFCURVE",
"255 774 OFFCURVE",
"368 774 CURVE SMOOTH",
"443 774 OFFCURVE",
"509 742 OFFCURVE",
"539 717 CURVE",
"578 775 LINE",
"545 803 OFFCURVE",
"464 840 OFFCURVE",
"363 840 CURVE SMOOTH"
);
}
);
width = 567;
},
{
background = {
paths = (
{
closed = 1;
nodes = (
"307 840 OFFCURVE",
"150 752 OFFCURVE",
"123 598 CURVE SMOOTH",
"108 512 OFFCURVE",
"155 425 OFFCURVE",
"246 376 CURVE SMOOTH",
"335 328 OFFCURVE",
"418 300 OFFCURVE",
"408 240 CURVE SMOOTH",
"395 163 OFFCURVE",
"316 159 OFFCURVE",
"275 159 CURVE SMOOTH",
"183 159 OFFCURVE",
"89 252 OFFCURVE",
"89 252 CURVE",
"-33 94 LINE",
"-33 94 OFFCURVE",
"65 -15 OFFCURVE",
"258 -15 CURVE SMOOTH",
"419 -15 OFFCURVE",
"581 54 OFFCURVE",
"616 251 CURVE SMOOTH",
"635 359 OFFCURVE",
"548 437 OFFCURVE",
"462 476 CURVE SMOOTH",
"376 515 OFFCURVE",
"298 550 OFFCURVE",
"307 602 CURVE SMOOTH",
"315 647 OFFCURVE",
"358 669 OFFCURVE",
"422 669 CURVE SMOOTH",
"507 669 OFFCURVE",
"579 612 OFFCURVE",
"579 612 CURVE",
"682 762 LINE",
"682 762 OFFCURVE",
"590 840 OFFCURVE",
"440 840 CURVE SMOOTH"
);
}
);
};
layerId = "6F85D940-A117-47EE-950D-70F837F8C9CE";
paths = (
{
closed = 1;
nodes = (
"286 840 OFFCURVE",
"145 768 OFFCURVE",
"118 620 CURVE SMOOTH",
"100 522 OFFCURVE",
"148 432 OFFCURVE",
"246 379 CURVE SMOOTH",
"342 327 OFFCURVE",
"455 286 OFFCURVE",
"422 205 CURVE SMOOTH",
"403 157 OFFCURVE",
"335 148 OFFCURVE",
"298 148 CURVE SMOOTH",
"212 148 OFFCURVE",
"90 226 OFFCURVE",
"86 236 CURVE",
"-3 76 LINE",
"0 76 OFFCURVE",
"85 -15 OFFCURVE",
"284 -15 CURVE SMOOTH",
"439 -15 OFFCURVE",
"593 47 OFFCURVE",
"619 238 CURVE SMOOTH",
"635 352 OFFCURVE",
"560 429 OFFCURVE",
"449 481 CURVE SMOOTH",
"357 524 OFFCURVE",
"291 566 OFFCURVE",
"297 612 CURVE SMOOTH",
"304 663 OFFCURVE",
"341 683 OFFCURVE",
"411 683 CURVE SMOOTH",
"490 683 OFFCURVE",
"574 622 OFFCURVE",
"571 618 CURVE",
"670 771 LINE",
"668 771 OFFCURVE",
"569 840 OFFCURVE",
"413 840 CURVE SMOOTH"
);
}
);
width = 658;
}
);
leftKerningGroup = S;
rightKerningGroup = d;
unicode = 0053;
},
{
color = 1;
glyphname = Germandbls;
lastChange = "2017-09-09 10:32:56 +0000";
layers = (
{
background = {
components = (
{
name = B;
transform = "{1, 0, 0, 1, -2, 0}";
}
);
};
guideLines = (
{
position = "{-238, 332}";
},
{
position = "{-307, 500}";
}
);
layerId = "6F85D940-A117-47EE-950D-70F837F8C9CE";
paths = (
{
closed = 1;
nodes = (
"236 0 LINE",
"282 -11 OFFCURVE",
"331 -17 OFFCURVE",
"379 -17 CURVE SMOOTH",
"536 -17 OFFCURVE",
"685 48 OFFCURVE",
"716 220 CURVE SMOOTH",
"752 418 OFFCURVE",
"638 478 OFFCURVE",
"527 482 CURVE",
"691 661 LINE",
"723 813 LINE",
"641 836 OFFCURVE",
"551 844 OFFCURVE",
"484 844 CURVE SMOOTH",
"271 844 OFFCURVE",
"122 764 OFFCURVE",
"89 577 CURVE SMOOTH",
"-13 0 LINE",
"173 0 LINE",
"260 494 LINE SMOOTH",
"283 623 OFFCURVE",
"328 685 OFFCURVE",
"425 685 CURVE SMOOTH",
"447 685 OFFCURVE",
"473 684 OFFCURVE",
"498 679 CURVE",
"349 485 LINE",
"325 337 LINE",
"474 351 OFFCURVE",
"536 315 OFFCURVE",
"524 234 CURVE SMOOTH",
"514 169 OFFCURVE",
"465 143 OFFCURVE",
"391 143 CURVE SMOOTH",
"354 143 OFFCURVE",
"311 150 OFFCURVE",
"263 161 CURVE"
);
}
);
width = 737;
},
{
background = {
components = (
{
name = R;
transform = "{1, 0, 0, 1, 6, 0}";
}
);
};
layerId = "7984B694-437B-44C7-A8AE-41A7C9CC5720";
paths = (
{
closed = 1;
nodes = (
"192 13 LINE",
"241 -3 OFFCURVE",
"292 -12 OFFCURVE",
"341 -12 CURVE SMOOTH",
"486 -12 OFFCURVE",
"616 62 OFFCURVE",
"647 231 CURVE SMOOTH",
"682 422 OFFCURVE",
"540 477 OFFCURVE",
"410 464 CURVE",
"647 756 LINE",
"659 817 LINE",
"578 835 OFFCURVE",
"504 845 OFFCURVE",
"438 845 CURVE SMOOTH",
"247 845 OFFCURVE",
"122 763 OFFCURVE",
"89 556 CURVE SMOOTH",
"-1 0 LINE",
"72 0 LINE",
"151 519 LINE SMOOTH",
"182 723 OFFCURVE",
"280 788 OFFCURVE",
"436 788 CURVE SMOOTH",
"479 788 OFFCURVE",
"526 782 OFFCURVE",
"576 769 CURVE",
"339 477 LINE",
"326 405 LINE",
"533 426 OFFCURVE",
"600 368 OFFCURVE",
"577 238 CURVE SMOOTH",
"558 129 OFFCURVE",
"479 53 OFFCURVE",
"343 53 CURVE SMOOTH",
"301 53 OFFCURVE",
"253 60 OFFCURVE",
"200 76 CURVE"
);
}
);
width = 682;
}
);
leftMetricsKey = E;
rightKerningGroup = d;
unicode = 1E9E;
},
{
glyphname = T;
lastChange = "2017-09-09 13:35:10 +0000";
layers = (
{
layerId = "6F85D940-A117-47EE-950D-70F837F8C9CE";
paths = (
{
closed = 1;
nodes = (
"131 0 LINE",
"319 0 LINE",
"436 660 LINE",
"632 660 LINE",
"661 825 LINE",
"81 825 LINE",
"52 660 LINE",
"248 660 LINE"
);
}
);
width = 596;
},
{
layerId = "7984B694-437B-44C7-A8AE-41A7C9CC5720";
paths = (
{
closed = 1;
nodes = (
"178 0 LINE",
"246 0 LINE",
"367 760 LINE",
"603 760 LINE",
"614 825 LINE",
"74 825 LINE",
"63 760 LINE",
"299 760 LINE"
);
}
);
width = 556;
}
);
leftKerningGroup = T;
rightKerningGroup = T;
unicode = 0054;
},
{
glyphname = Tbar;
lastChange = "2017-06-25 12:04:12 +0000";
layers = (
{
components = (
{
name = T;
}
);
layerId = "6F85D940-A117-47EE-950D-70F837F8C9CE";
paths = (
{
closed = 1;
nodes = (
"0 375 LINE",
"581 375 LINE",
"606 515 LINE",
"25 515 LINE"
);
}
);
width = 596;
},
{
components = (
{
name = T;
transform = "{1, 0, 0, 1, 1, 0}";
}
);
layerId = "7984B694-437B-44C7-A8AE-41A7C9CC5720";
paths = (
{
closed = 1;
nodes = (
"10 415 LINE",
"531 415 LINE",
"544 485 LINE",
"23 485 LINE"
);
}
);
width = 557;
}
);
unicode = 0166;
},
{
glyphname = U;
lastChange = "2017-09-03 16:52:42 +0000";
layers = (
{
layerId = "6F85D940-A117-47EE-950D-70F837F8C9CE";
paths = (
{
closed = 1;
nodes = (
"503 395 LINE SMOOTH",
"475 237 OFFCURVE",
"428 170 OFFCURVE",
"331 170 CURVE SMOOTH",
"234 170 OFFCURVE",
"205 237 OFFCURVE",
"233 381 CURVE SMOOTH",
"311 825 LINE",
"123 825 LINE",
"37 340 LINE SMOOTH",
"1 136 OFFCURVE",
"92 -15 OFFCURVE",
"308 -15 CURVE SMOOTH",
"512 -15 OFFCURVE",
"643 122 OFFCURVE",
"679 326 CURVE SMOOTH",
"767 825 LINE",
"579 825 LINE"
);
}
);
width = 744;
},
{
layerId = "7984B694-437B-44C7-A8AE-41A7C9CC5720";
paths = (
{
closed = 1;
nodes = (
"518 300 LINE SMOOTH",
"498 172 OFFCURVE",
"415 50 OFFCURVE",
"271 50 CURVE SMOOTH",
"143 50 OFFCURVE",
"87 150 OFFCURVE",
"109 296 CURVE SMOOTH",
"194 825 LINE",
"126 825 LINE",
"45 315 LINE SMOOTH",
"13 117 OFFCURVE",
"80 -15 OFFCURVE",
"268 -15 CURVE SMOOTH",
"446 -15 OFFCURVE",
"555 107 OFFCURVE",
"588 311 CURVE SMOOTH",
"670 825 LINE",
"602 825 LINE"
);
}
);
width = 664;
}
);
rightKerningGroup = d;
unicode = 0055;
},
{
glyphname = V;
lastChange = "2017-09-09 13:39:40 +0000";
layers = (
{
layerId = "6F85D940-A117-47EE-950D-70F837F8C9CE";
paths = (
{
closed = 1;
nodes = (
"867 825 LINE",
"651 825 LINE",
"369 303 LINE",
"275 825 LINE",
"67 825 LINE",
"244 0 LINE",
"398 0 LINE"
);
}
);
width = 784;
},
{
layerId = "7984B694-437B-44C7-A8AE-41A7C9CC5720";
paths = (
{
closed = 1;
nodes = (
"757 825 LINE",
"680 825 LINE",
"290 93 LINE",
"134 825 LINE",
"59 825 LINE",
"240 0 LINE",
"314 0 LINE"
);
}
);
width = 677;
}
);
leftKerningGroup = V;
rightKerningGroup = V;
unicode = 0056;
},
{
glyphname = W;
lastChange = "2017-09-09 13:32:51 +0000";
layers = (
{
layerId = "6F85D940-A117-47EE-950D-70F837F8C9CE";
paths = (
{
closed = 1;
nodes = (
"1210 825 LINE",
"999 825 LINE",
"759 259 LINE",
"754 259 LINE",
"703 825 LINE",
"561 825 LINE",
"312 259 LINE",
"307 259 LINE",
"265 825 LINE",
"59 825 LINE",
"149 0 LINE",
"358 0 LINE",
"573 463 LINE",
"622 0 LINE",
"830 0 LINE"
);
}
);
width = 1136;
},
{
layerId = "7984B694-437B-44C7-A8AE-41A7C9CC5720";
paths = (
{
closed = 1;
nodes = (
"974 825 LINE",
"899 825 LINE",
"647 123 LINE",
"641 123 LINE",
"559 825 LINE",
"481 825 LINE",
"186 123 LINE",
"180 123 LINE",
"145 825 LINE",
"71 825 LINE",
"121 0 LINE",
"200 0 LINE",
"502 703 LINE",
"584 0 LINE",
"662 0 LINE"
);
}
);
width = 894;
}
);
leftKerningGroup = V;
rightKerningGroup = V;
unicode = 0057;
},
{
glyphname = X;
lastChange = "2017-09-09 13:41:40 +0000";
layers = (
{
layerId = "6F85D940-A117-47EE-950D-70F837F8C9CE";
paths = (
{
closed = 1;
nodes = (
"855 825 LINE",
"617 825 LINE",
"423 600 LINE",
"313 825 LINE",
"93 825 LINE",
"284 444 LINE",
"-99 0 LINE",
"138 0 LINE",
"375 281 LINE",
"508 0 LINE",
"747 0 LINE",
"516 444 LINE"
);
}
);
width = 798;
},
{
layerId = "7984B694-437B-44C7-A8AE-41A7C9CC5720";
paths = (
{
closed = 1;
nodes = (
"699 825 LINE",
"617 825 LINE",
"331 490 LINE",
"153 825 LINE",
"75 825 LINE",
"283 444 LINE",
"-91 0 LINE",
"-10 0 LINE",
"318 391 LINE",
"520 0 LINE",
"597 0 LINE",
"367 444 LINE"
);
}
);
width = 640;
}
);
rightKerningGroup = X;
unicode = 0058;
},
{
glyphname = Y;
lastChange = "2017-09-09 13:31:56 +0000";
layers = (
{
layerId = "6F85D940-A117-47EE-950D-70F837F8C9CE";
paths = (
{
closed = 1;
nodes = (
"221 0 LINE",
"409 0 LINE",
"477 370 LINE",
"841 825 LINE",
"611 825 LINE",
"410 561 LINE",
"307 825 LINE",
"85 825 LINE",
"289 370 LINE"
);
}
);
width = 726;
},
{
layerId = "7984B694-437B-44C7-A8AE-41A7C9CC5720";
paths = (
{
closed = 1;
nodes = (
"231 0 LINE",
"299 0 LINE",
"351 320 LINE",
"706 825 LINE",
"628 825 LINE",
"325 384 LINE",
"164 825 LINE",
"90 825 LINE",
"284 320 LINE"
);
}
);
width = 596;
}
);
leftKerningGroup = Y;
rightKerningGroup = Y;
unicode = 0059;
},
{
glyphname = Z;
lastChange = "2017-09-09 13:43:08 +0000";
layers = (
{
layerId = "6F85D940-A117-47EE-950D-70F837F8C9CE";
paths = (
{
closed = 1;
nodes = (
"118 660 LINE",
"465 660 LINE",
"-59 0 LINE",
"653 0 LINE",
"682 165 LINE",
"303 165 LINE",
"828 825 LINE",
"147 825 LINE"
);
}
);
width = 733;
},
{
layerId = "7984B694-437B-44C7-A8AE-41A7C9CC5720";
paths = (
{
closed = 1;
nodes = (
"129 766 LINE",
"569 766 LINE",
"-52 0 LINE",
"539 0 LINE",
"550 62 LINE",
"82 62 LINE",
"692 825 LINE",
"139 825 LINE"
);
}
);
width = 647;
}
);
unicode = 005A;
},
{
glyphname = Q.ss01;
lastChange = "2017-09-09 12:21:05 +0000";
layers = (
{
components = (
{
name = O;
}
);
layerId = "6F85D940-A117-47EE-950D-70F837F8C9CE";
paths = (
{
closed = 1;
nodes = (
"566 -104 LINE",
"767 -104 LINE",
"607 288 LINE",
"406 288 LINE"
);
}
);
width = 882;
},
{
background = {
paths = (
{
closed = 1;
nodes = (
"230 67 LINE",
"86 141 OFFCURVE",
"74 278 OFFCURVE",
"98 413 CURVE SMOOTH",
"132 606 OFFCURVE",
"280 779 OFFCURVE",
"475 779 CURVE SMOOTH",
"671 779 OFFCURVE",
"761 604 OFFCURVE",
"723 413 CURVE SMOOTH",
"671 151 OFFCURVE",
"501 53 OFFCURVE",
"265 -9 CURVE SMOOTH",
"198 -27 OFFCURVE",
"143 -75 OFFCURVE",
"143 -75 CURVE",
"170 -116 LINE",
"170 -116 OFFCURVE",
"239 -57 OFFCURVE",
"317 -57 CURVE SMOOTH",
"424 -57 OFFCURVE",
"452 -119 OFFCURVE",
"565 -119 CURVE SMOOTH",
"616 -119 OFFCURVE",
"679 -100 OFFCURVE",
"698 -91 CURVE",
"708 -14 LINE",
"708 -14 OFFCURVE",
"651 -49 OFFCURVE",
"576 -49 CURVE SMOOTH",
"514 -49 OFFCURVE",
"488 -19 OFFCURVE",
"422 -7 CURVE",
"616 32 OFFCURVE",
"759 202 OFFCURVE",
"796 413 CURVE SMOOTH",
"838 654 OFFCURVE",
"715 840 OFFCURVE",
"486 840 CURVE SMOOTH",
"259 840 OFFCURVE",
"67 654 OFFCURVE",
"25 413 CURVE SMOOTH",
"-5 244 OFFCURVE",
"29 85 OFFCURVE",
"193 12 CURVE"
);
}
);
};
components = (
{
name = O;
}
);
layerId = "7984B694-437B-44C7-A8AE-41A7C9CC5720";
paths = (
{
closed = 1;
nodes = (
"582 -104 LINE",
"665 -104 LINE",
"498 288 LINE",
"415 288 LINE"
);
}
);
width = 817;
}
);
leftMetricsKey = O;
rightMetricsKey = O;
},
{
color = 1;
glyphname = a;
lastChange = "2017-09-24 14:32:33 +0000";
layers = (
{
background = {
components = (
{
name = n;
transform = "{-1, 0, 0, -1, 552, 513}";
}
);
};
layerId = "7984B694-437B-44C7-A8AE-41A7C9CC5720";
paths = (
{
closed = 1;
nodes = (
"495 522 OFFCURVE",
"439 526 OFFCURVE",
"384 526 CURVE SMOOTH",
"194 526 OFFCURVE",
"55 436 OFFCURVE",
"22 254 CURVE SMOOTH",
"-5 103 OFFCURVE",
"57 -14 OFFCURVE",
"200 -14 CURVE SMOOTH",
"316 -14 OFFCURVE",
"387 70 OFFCURVE",
"420 152 CURVE",
"389 0 LINE",
"457 0 LINE",
"547 513 LINE"
);
},
{
closed = 1;
nodes = (
"115 49 OFFCURVE",
"70 130 OFFCURVE",
"89 241 CURVE SMOOTH",
"114 386 OFFCURVE",
"220 470 OFFCURVE",
"373 470 CURVE SMOOTH",
"403 470 OFFCURVE",
"436 469 OFFCURVE",
"470 463 CURVE",
"451 346 LINE SMOOTH",
"424 178 OFFCURVE",
"325 49 OFFCURVE",
"211 49 CURVE SMOOTH"
);
}
);
width = 562;
},
{
background = {
components = (
{
name = n;
transform = "{-1, 0, 0, -1, 657, 513}";
}
);
};
layerId = "6F85D940-A117-47EE-950D-70F837F8C9CE";
paths = (
{
closed = 1;
nodes = (
"568 521 OFFCURVE",
"499 527 OFFCURVE",
"432 527 CURVE SMOOTH",
"213 527 OFFCURVE",
"56 458 OFFCURVE",
"21 261 CURVE SMOOTH",
"-6 110 OFFCURVE",
"65 -10 OFFCURVE",
"215 -10 CURVE SMOOTH",
"297 -10 OFFCURVE",
"360 41 OFFCURVE",
"401 140 CURVE",
"375 0 LINE",
"552 0 LINE",
"639 513 LINE"
);
},
{
closed = 1;
nodes = (
"206 146 OFFCURVE",
"184 200 OFFCURVE",
"194 257 CURVE SMOOTH",
"210 345 OFFCURVE",
"282 391 OFFCURVE",
"376 391 CURVE SMOOTH",
"396 391 OFFCURVE",
"417 389 OFFCURVE",
"439 385 CURVE",
"430 337 LINE SMOOTH",
"412 239 OFFCURVE",
"353 146 OFFCURVE",
"269 146 CURVE SMOOTH"
);
}
);
width = 657;
}
);
leftKerningGroup = o;
leftMetricsKey = o;
rightKerningGroup = aacute;
unicode = 0061;
},
{
color = 1;
glyphname = ae;
lastChange = "2017-09-09 13:27:25 +0000";
layers = (
{
background = {
components = (
{
name = e;
transform = "{-1, 0, 0, -1, 528, 512}";
}
);
};
layerId = "7984B694-437B-44C7-A8AE-41A7C9CC5720";
paths = (
{
closed = 1;
nodes = (
"76 417 LINE",
"135 436 OFFCURVE",
"202 450 OFFCURVE",
"259 450 CURVE SMOOTH",
"344 450 OFFCURVE",
"408 419 OFFCURVE",
"393 330 CURVE",
"388 301 LINE",
"275 302 OFFCURVE",
"36 325 OFFCURVE",
"5 162 CURVE SMOOTH",
"-20 29 OFFCURVE",
"71 -14 OFFCURVE",
"175 -14 CURVE SMOOTH",
"280 -14 OFFCURVE",
"363 47 OFFCURVE",
"392 104 CURVE",
"417 21 OFFCURVE",
"506 -14 OFFCURVE",
"607 -14 CURVE SMOOTH",
"670 -14 OFFCURVE",
"741 0 OFFCURVE",
"797 24 CURVE",
"806 90 LINE",
"751 62 OFFCURVE",
"687 46 OFFCURVE",
"598 46 CURVE SMOOTH",
"482 46 OFFCURVE",
"430 128 OFFCURVE",
"445 248 CURVE",
"830 247 LINE",
"878 440 OFFCURVE",
"807 527 OFFCURVE",
"647 527 CURVE SMOOTH",
"549 527 OFFCURVE",
"474 471 OFFCURVE",
"439 417 CURVE",
"423 496 OFFCURVE",
"352 516 OFFCURVE",
"283 517 CURVE SMOOTH",
"221 518 OFFCURVE",
"134 501 OFFCURVE",
"84 483 CURVE"
);
},
{
closed = 1;
nodes = (
"87 234 OFFCURVE",
"199 262 OFFCURVE",
"379 246 CURVE",
"370 188 LINE SMOOTH",
"359 118 OFFCURVE",
"277 46 OFFCURVE",
"177 46 CURVE SMOOTH",
"121 46 OFFCURVE",
"58 71 OFFCURVE",
"73 154 CURVE SMOOTH"
);
},
{
closed = 1;
nodes = (
"456 306 LINE",
"476 416 OFFCURVE",
"545 470 OFFCURVE",
"645 469 CURVE SMOOTH",
"769 468 OFFCURVE",
"789 382 OFFCURVE",
"774 307 CURVE"
);
}
);
width = 863;
},
{
background = {
components = (
{
name = e;
transform = "{1, 0, 0, 1, 353, 0}";
}
);
};
guideLines = (
{
angle = 80;
position = "{391, 385}";
}
);
layerId = "6F85D940-A117-47EE-950D-70F837F8C9CE";
paths = (
{
closed = 1;
nodes = (
"88 368 LINE",
"145 382 OFFCURVE",
"202 389 OFFCURVE",
"251 389 CURVE SMOOTH",
"327 389 OFFCURVE",
"381 371 OFFCURVE",
"377 334 CURVE SMOOTH",
"376 324 LINE",
"262 329 OFFCURVE",
"35 332 OFFCURVE",
"5 172 CURVE SMOOTH",
"-10 92 OFFCURVE",
"26 -15 OFFCURVE",
"177 -15 CURVE SMOOTH",
"344 -15 OFFCURVE",
"425 74 OFFCURVE",
"433 88 CURVE",
"475 14 OFFCURVE",
"557 -17 OFFCURVE",
"653 -17 CURVE SMOOTH",
"711 -17 OFFCURVE",
"775 -5 OFFCURVE",
"837 14 CURVE",
"862 157 LINE",
"813 138 OFFCURVE",
"744 127 OFFCURVE",
"690 127 CURVE SMOOTH",
"614 127 OFFCURVE",
"540 155 OFFCURVE",
"540 220 CURVE",
"887 219 LINE",
"942 408 OFFCURVE",
"867 529 OFFCURVE",
"689 529 CURVE SMOOTH",
"602 529 OFFCURVE",
"526 508 OFFCURVE",
"479 447 CURVE",
"455 510 OFFCURVE",
"376 524 OFFCURVE",
"291 524 CURVE SMOOTH",
"227 524 OFFCURVE",
"161 518 OFFCURVE",
"111 509 CURVE"
);
},
{
closed = 1;
nodes = (
"169 204 OFFCURVE",
"208 223 OFFCURVE",
"360 220 CURVE",
"357 203 LINE",
"345 153 OFFCURVE",
"275 123 OFFCURVE",
"222 123 CURVE SMOOTH",
"186 123 OFFCURVE",
"158 137 OFFCURVE",
"163 168 CURVE SMOOTH"
);
},
{
closed = 1;
nodes = (
"558 324 LINE",
"569 371 OFFCURVE",
"615 414 OFFCURVE",
"668 414 CURVE SMOOTH",
"718 414 OFFCURVE",
"749 391 OFFCURVE",
"741 328 CURVE"
);
}
);
width = 917;
}
);
leftKerningGroup = o;
leftMetricsKey = a;
rightKerningGroup = c;
rightMetricsKey = e;
unicode = 00E6;
},
{
color = 1;
glyphname = b;
lastChange = "2017-09-24 14:33:05 +0000";
layers = (
{
components = (
{
name = a;
transform = "{-1, 0, 0, -1, 647, 513}";
}
);
layerId = "6F85D940-A117-47EE-950D-70F837F8C9CE";
paths = (
{
closed = 1;
nodes = (
"95 513 LINE",
"269 497 LINE",
"335 861 LINE",
"157 861 LINE"
);
}
);
width = 647;
},
{
components = (
{
name = a;
transform = "{-1, 0, 0, -1, 562, 514}";
}
);
guideLines = (
{
position = "{215, -16}";
}
);
layerId = "7984B694-437B-44C7-A8AE-41A7C9CC5720";
paths = (
{
closed = 1;
nodes = (
"105 514 LINE",
"173 514 LINE",
"234 860 LINE",
"168 860 LINE"
);
}
);
width = 561;
}
);
leftKerningGroup = l;
leftMetricsKey = l;
rightKerningGroup = b;
rightMetricsKey = o;
unicode = 0062;
},
{
color = 1;
glyphname = c;
lastChange = "2017-09-09 13:28:33 +0000";
layers = (
{
background = {
components = (
{
name = e;
transform = "{1, 0, 0, 1, -6, 0}";
}
);
};
layerId = "7984B694-437B-44C7-A8AE-41A7C9CC5720";
paths = (
{
closed = 1;
nodes = (
"365 63 OFFCURVE",
"306 48 OFFCURVE",
"254 48 CURVE SMOOTH",
"132 48 OFFCURVE",
"69 135 OFFCURVE",
"92 265 CURVE SMOOTH",
"116 402 OFFCURVE",
"214 466 OFFCURVE",
"311 466 CURVE SMOOTH",
"373 466 OFFCURVE",
"435 440 OFFCURVE",
"447 429 CURVE",
"459 495 LINE",
"444 508 OFFCURVE",
"390 528 OFFCURVE",
"322 528 CURVE SMOOTH",
"164 528 OFFCURVE",
"52 420 OFFCURVE",
"24 265 CURVE SMOOTH",
"-4 109 OFFCURVE",
"82 -15 OFFCURVE",
"247 -15 CURVE SMOOTH",
"302 -15 OFFCURVE",
"355 -2 OFFCURVE",
"395 20 CURVE",
"406 87 LINE"
);
}
);
width = 455;
},
{
layerId = "6F85D940-A117-47EE-950D-70F837F8C9CE";
paths = (
{
closed = 1;
nodes = (
"380 143 OFFCURVE",
"340 135 OFFCURVE",
"305 135 CURVE SMOOTH",
"229 135 OFFCURVE",
"181 187 OFFCURVE",
"194 265 CURVE SMOOTH",
"208 345 OFFCURVE",
"261 377 OFFCURVE",
"335 377 CURVE SMOOTH",
"369 377 OFFCURVE",
"407 368 OFFCURVE",
"448 347 CURVE",
"477 505 LINE",
"444 520 OFFCURVE",
"406 528 OFFCURVE",
"348 528 CURVE SMOOTH",
"175 528 OFFCURVE",
"53 428 OFFCURVE",
"23 271 CURVE SMOOTH",
"-8 109 OFFCURVE",
"91 -12 OFFCURVE",
"264 -15 CURVE SMOOTH",
"324 -16 OFFCURVE",
"361 -6 OFFCURVE",
"398 9 CURVE",
"421 159 LINE"
);
}
);
width = 467;
}
);
leftKerningGroup = o;
leftMetricsKey = o;
rightKerningGroup = c;
unicode = 0063;
},
{
color = 1;
glyphname = d;
lastChange = "2017-09-09 13:31:37 +0000";
layers = (
{
anchors = (
{
name = bottom;
position = "{287, 0}";
},
{
name = center;
position = "{332, 257}";
},
{
name = top;
position = "{377, 513}";
},
{
name = topright;
position = "{689, 513}";
}
);
background = {
paths = (
{
closed = 1;
nodes = (
"629 470 LINE",
"671 861 LINE",
"494 861 LINE",
"457 501 LINE"
);
},
{
closed = 1;
nodes = (
"228 155 OFFCURVE",
"185 201 OFFCURVE",
"192 271 CURVE SMOOTH",
"198 334 OFFCURVE",
"243 381 OFFCURVE",
"338 380 CURVE SMOOTH",
"440 379 LINE",
"433 317 LINE SMOOTH",
"425 246 OFFCURVE",
"377 155 OFFCURVE",
"304 155 CURVE SMOOTH"
);
},
{
closed = 1;
nodes = (
"482 514 LINE",
"188 554 OFFCURVE",
"30 459 OFFCURVE",
"5 251 CURVE SMOOTH",
"-11 118 OFFCURVE",
"73 -12 OFFCURVE",
"223 -12 CURVE SMOOTH",
"313 -12 OFFCURVE",
"389 59 OFFCURVE",
"420 151 CURVE",
"404 -1 LINE",
"578 -1 LINE",
"579 -1 LINE",
"633 502 LINE"
);
}
);
};
components = (
{
name = a;
}
);
layerId = "6F85D940-A117-47EE-950D-70F837F8C9CE";
paths = (
{
closed = 1;
nodes = (
"701 860 LINE",
"526 860 LINE",
"485 623 LINE",
"468 499 LINE",
"637 501 LINE"
);
}
);
width = 657;
},
{
anchors = (
{
name = bottom;
position = "{269, 0}";
},
{
name = center;
position = "{314, 257}";
},
{
name = top;
position = "{359, 513}";
},
{
name = topright;
position = "{635, 513}";
}
);
components = (
{
name = a;
}
);
guideLines = (
{
position = "{221, -16}";
}
);
layerId = "7984B694-437B-44C7-A8AE-41A7C9CC5720";
paths = (
{
closed = 1;
nodes = (
"610 860 LINE",
"543 860 LINE",
"498 616 LINE",
"480 494 LINE",
"543 492 LINE"
);
}
);
width = 562;
}
);
leftKerningGroup = o;
leftMetricsKey = o;
rightKerningGroup = d;
unicode = 0064;
},
{
color = 1;
glyphname = eth;
lastChange = "2017-09-09 10:46:37 +0000";
layers = (
{
background = {
components = (
{
name = o;
transform = "{1, 0, 0, 1, -14, 0}";
}
);
};
layerId = "7984B694-437B-44C7-A8AE-41A7C9CC5720";
paths = (
{
closed = 1;
nodes = (
"0 107 OFFCURVE",
"67 -15 OFFCURVE",
"238 -15 CURVE SMOOTH",
"404 -15 OFFCURVE",
"520 112 OFFCURVE",
"545 251 CURVE SMOOTH",
"586 477 OFFCURVE",
"516 644 OFFCURVE",
"368 729 CURVE",
"463 803 LINE",
"419 847 LINE",
"314 753 LINE",
"290 774 OFFCURVE",
"224 800 OFFCURVE",
"181 814 CURVE",
"149 753 LINE",
"150 753 OFFCURVE",
"211 741 OFFCURVE",
"264 707 CURVE",
"167 624 LINE",
"206 581 LINE",
"322 685 LINE",
"409 639 OFFCURVE",
"489 520 OFFCURVE",
"498 435 CURVE",
"465 487 OFFCURVE",
"427 526 OFFCURVE",
"309 526 CURVE SMOOTH",
"196 526 OFFCURVE",
"56 424 OFFCURVE",
"27 259 CURVE SMOOTH"
);
},
{
closed = 1;
nodes = (
"114 356 OFFCURVE",
"197 466 OFFCURVE",
"314 466 CURVE SMOOTH",
"426 466 OFFCURVE",
"498 382 OFFCURVE",
"478 258 CURVE SMOOTH",
"457 131 OFFCURVE",
"367 49 OFFCURVE",
"242 49 CURVE SMOOTH",
"135 49 OFFCURVE",
"76 127 OFFCURVE",
"97 254 CURVE SMOOTH"
);
}
);
width = 580;
},
{
background = {
components = (
{
name = o;
transform = "{1, 0, 0, 1, 45, 0}";
}
);
};
layerId = "6F85D940-A117-47EE-950D-70F837F8C9CE";
paths = (
{
closed = 1;
nodes = (
"38 114 OFFCURVE",
"122 -15 OFFCURVE",
"304 -15 CURVE SMOOTH",
"481 -15 OFFCURVE",
"613 95 OFFCURVE",
"645 280 CURVE SMOOTH",
"674 442 OFFCURVE",
"635 628 OFFCURVE",
"494 741 CURVE",
"560 797 LINE",
"494 875 LINE",
"405 800 LINE",
"313 853 OFFCURVE",
"238 869 OFFCURVE",
"238 869 CURVE",
"172 725 LINE",
"174 725 OFFCURVE",
"220 717 OFFCURVE",
"278 687 CURVE",
"200 622 LINE",
"267 545 LINE",
"381 641 LINE",
"426 611 OFFCURVE",
"482 539 OFFCURVE",
"484 487 CURVE",
"469 511 OFFCURVE",
"435 528 OFFCURVE",
"381 528 CURVE SMOOTH",
"251 528 OFFCURVE",
"93 429 OFFCURVE",
"65 269 CURVE SMOOTH"
);
},
{
closed = 1;
nodes = (
"236 321 OFFCURVE",
"292 376 OFFCURVE",
"366 376 CURVE SMOOTH",
"425 376 OFFCURVE",
"477 336 OFFCURVE",
"470 268 CURVE SMOOTH",
"462 189 OFFCURVE",
"403 136 OFFCURVE",
"331 136 CURVE SMOOTH",
"264 136 OFFCURVE",
"223 181 OFFCURVE",
"229 245 CURVE SMOOTH"
);
}
);
width = 684;
}
);
rightKerningGroup = d;
unicode = 00F0;
},
{
color = 1;
glyphname = dcroat;
lastChange = "2017-09-09 11:30:12 +0000";
layers = (
{
components = (
{
name = d;
}
);
layerId = "6F85D940-A117-47EE-950D-70F837F8C9CE";
paths = (
{
closed = 1;
nodes = (
"749 628 LINE",
"769 742 LINE",
"407 742 LINE",
"387 628 LINE"
);
}
);
width = 683;
},
{
components = (
{
name = d;
transform = "{1, 0, 0, 1, 8, 0}";
}
);
layerId = "7984B694-437B-44C7-A8AE-41A7C9CC5720";
paths = (
{
closed = 1;
nodes = (
"660 648 LINE",
"670 702 LINE",
"388 702 LINE",
"378 648 LINE"
);
}
);
width = 572;
}
);
leftKerningGroup = o;
rightKerningGroup = d;
unicode = 0111;
},
{
color = 1;
glyphname = e;
lastChange = "2017-09-09 13:39:23 +0000";
layers = (
{
background = {
components = (
{
name = c;
transform = "{1, 0, 0, 1, -2, 0}";
}
);
};
layerId = "7984B694-437B-44C7-A8AE-41A7C9CC5720";
paths = (
{
closed = 1;
nodes = (
"491 251 LINE",
"537 423 OFFCURVE",
"477 528 OFFCURVE",
"308 528 CURVE SMOOTH",
"160 528 OFFCURVE",
"50 415 OFFCURVE",
"24 268 CURVE SMOOTH",
"-7 93 OFFCURVE",
"85 -16 OFFCURVE",
"263 -16 CURVE SMOOTH",
"331 -16 OFFCURVE",
"403 -1 OFFCURVE",
"459 26 CURVE",
"468 91 LINE",
"411 64 OFFCURVE",
"339 46 OFFCURVE",
"275 46 CURVE SMOOTH",
"141 46 OFFCURVE",
"63 124 OFFCURVE",
"89 250 CURVE"
);
},
{
closed = 1;
nodes = (
"103 305 LINE",
"112 350 OFFCURVE",
"168 470 OFFCURVE",
"303 470 CURVE SMOOTH",
"400 470 OFFCURVE",
"451 416 OFFCURVE",
"433 309 CURVE"
);
}
);
width = 525;
},
{
background = {
paths = (
{
closed = 1;
nodes = (
"548 222 LINE",
"550 228 OFFCURVE",
"553 249 OFFCURVE",
"555 256 CURVE SMOOTH",
"605 432 OFFCURVE",
"492 528 OFFCURVE",
"336 528 CURVE SMOOTH",
"171 528 OFFCURVE",
"43 412 OFFCURVE",
"17 262 CURVE SMOOTH",
"-9 113 OFFCURVE",
"81 -15 OFFCURVE",
"236 -15 CURVE SMOOTH",
"380 -15 OFFCURVE",
"448 31 OFFCURVE",
"520 109 CURVE",
"399 186 LINE",
"353 139 OFFCURVE",
"327 126 OFFCURVE",
"270 126 CURVE SMOOTH",
"225 126 OFFCURVE",
"174 160 OFFCURVE",
"185 222 CURVE"
);
},
{
closed = 1;
nodes = (
"209 330 LINE",
"218 375 OFFCURVE",
"268 413 OFFCURVE",
"319 413 CURVE SMOOTH",
"370 413 OFFCURVE",
"397 371 OFFCURVE",
"392 330 CURVE"
);
}
);
};
layerId = "6F85D940-A117-47EE-950D-70F837F8C9CE";
paths = (
{
closed = 1;
nodes = (
"535 219 LINE",
"586 399 OFFCURVE",
"520 528 OFFCURVE",
"330 528 CURVE SMOOTH",
"168 528 OFFCURVE",
"49 421 OFFCURVE",
"23 273 CURVE SMOOTH",
"-11 82 OFFCURVE",
"117 -19 OFFCURVE",
"299 -19 CURVE SMOOTH",
"357 -19 OFFCURVE",
"421 -9 OFFCURVE",
"487 12 CURVE",
"508 159 LINE",
"460 139 OFFCURVE",
"396 126 OFFCURVE",
"338 126 CURVE SMOOTH",
"257 126 OFFCURVE",
"185 155 OFFCURVE",
"189 219 CURVE"
);
},
{
closed = 1;
nodes = (
"208 329 LINE",
"218 374 OFFCURVE",
"258 415 OFFCURVE",
"321 415 CURVE SMOOTH",
"369 415 OFFCURVE",
"397 372 OFFCURVE",
"388 331 CURVE"
);
}
);
width = 564;
}
);
leftKerningGroup = o;
leftMetricsKey = o;
note = " ";
rightKerningGroup = c;
unicode = 0065;
},
{
color = 1;
glyphname = f;
lastChange = "2017-09-09 13:31:15 +0000";
layers = (
{
layerId = "7984B694-437B-44C7-A8AE-41A7C9CC5720";
paths = (
{
closed = 1;
nodes = (
"35 456 LINE",
"149 456 LINE",
"24 -260 LINE",
"91 -260 LINE",
"216 456 LINE",
"367 456 LINE",
"377 513 LINE",
"226 513 LINE",
"244 615 LINE SMOOTH",
"257 693 OFFCURVE",
"278 756 OFFCURVE",
"317 790 CURVE SMOOTH",
"352 819 OFFCURVE",
"388 818 OFFCURVE",
"441 810 CURVE",
"452 870 LINE",
"398 880 OFFCURVE",
"336 875 OFFCURVE",
"288 841 CURVE SMOOTH",
"232 801 OFFCURVE",
"197 729 OFFCURVE",
"182 644 CURVE SMOOTH",
"159 513 LINE",
"45 513 LINE"
);
}
);
width = 334;
},
{
layerId = "6F85D940-A117-47EE-950D-70F837F8C9CE";
paths = (
{
closed = 1;
nodes = (
"21 378 LINE",
"105 378 LINE",
"-7 -260 LINE",
"171 -260 LINE",
"283 378 LINE",
"391 378 LINE",
"414 513 LINE",
"306 513 LINE",
"326 624 LINE SMOOTH",
"339 695 OFFCURVE",
"378 718 OFFCURVE",
"407 718 CURVE SMOOTH",
"424 718 OFFCURVE",
"442 718 OFFCURVE",
"459 718 CURVE",
"486 870 LINE",
"464 873 OFFCURVE",
"442 875 OFFCURVE",
"420 875 CURVE SMOOTH",
"276 875 OFFCURVE",
"176 784 OFFCURVE",
"152 645 CURVE SMOOTH",
"129 513 LINE",
"45 513 LINE"
);
}
);
width = 375;
}
);
leftKerningGroup = f;
note = " ";
rightKerningGroup = d;
unicode = 0066;
},
{
color = 1;
glyphname = g;
lastChange = "2017-09-09 12:47:36 +0000";
layers = (
{
components = (
{
name = a;
}
);
layerId = "6F85D940-A117-47EE-950D-70F837F8C9CE";
paths = (
{
closed = 1;
nodes = (
"375 0 LINE",
"358 -80 OFFCURVE",
"293 -119 OFFCURVE",
"226 -124 CURVE SMOOTH",
"141 -130 OFFCURVE",
"64 -110 OFFCURVE",
"16 -80 CURVE",
"-7 -232 LINE",
"39 -256 OFFCURVE",
"99 -275 OFFCURVE",
"208 -275 CURVE SMOOTH",
"390 -275 OFFCURVE",
"519 -183 OFFCURVE",
"552 0 CURVE"
);
}
);
width = 657;
},
{
components = (
{
name = a;
}
);
guideLines = (
{
angle = 84;
position = "{506, -41}";
}
);
layerId = "7984B694-437B-44C7-A8AE-41A7C9CC5720";
paths = (
{
closed = 1;
nodes = (
"389 0 LINE",
"371 -97 OFFCURVE",
"332 -161 OFFCURVE",
"251 -193 CURVE SMOOTH",
"179 -221 OFFCURVE",
"72 -213 OFFCURVE",
"-6 -174 CURVE",
"-16 -241 LINE",
"76 -280 OFFCURVE",
"187 -285 OFFCURVE",
"278 -251 CURVE SMOOTH",
"372 -216 OFFCURVE",
"434 -132 OFFCURVE",
"457 0 CURVE"
);
}
);
width = 560;
}
);
leftKerningGroup = o;
leftMetricsKey = o;
rightKerningGroup = g;
unicode = 0067;
},
{
color = 1;
glyphname = h;
lastChange = "2017-09-24 14:33:05 +0000";
layers = (
{
background = {
components = (
{
name = n;
transform = "{1, 0, 0, 1, -5, 0}";
}
);
};
components = (
{
name = n;
transform = "{1, 0, 0, 1, -5, 0}";
}
);
layerId = "6F85D940-A117-47EE-950D-70F837F8C9CE";
paths = (
{
closed = 1;
nodes = (
"266 513 LINE",
"327 860 LINE",
"156 860 LINE",
"95 513 LINE"
);
}
);
width = 652;
},
{
background = {
components = (
{
name = n;
transform = "{1, 0, 0, 1, 11, 0}";
}
);
};
components = (
{
name = n;
transform = "{1, 0, 0, 1, 5, 0}";
}
);
layerId = "7984B694-437B-44C7-A8AE-41A7C9CC5720";
paths = (
{
closed = 1;
nodes = (
"173 513 LINE",
"235 860 LINE",
"166 860 LINE",
"104 507 LINE"
);
}
);
width = 551;
}
);
leftKerningGroup = l;
leftMetricsKey = l;
note = " ";
rightKerningGroup = b;
rightMetricsKey = n;
unicode = 0068;
},
{
color = 1;
glyphname = hbar;
lastChange = "2017-09-09 12:57:32 +0000";
layers = (
{
components = (
{
name = h;
}
);
layerId = "6F85D940-A117-47EE-950D-70F837F8C9CE";
paths = (
{
closed = 1;
nodes = (
"430 628 LINE",
"450 742 LINE",
"88 742 LINE",
"68 628 LINE"
);
}
);
width = 661;
},
{
components = (
{
name = h;
transform = "{1, 0, 0, 1, -12, 0}";
}
);
layerId = "7984B694-437B-44C7-A8AE-41A7C9CC5720";
paths = (
{
closed = 1;
nodes = (
"341 648 LINE",
"351 702 LINE",
"69 702 LINE",
"59 648 LINE"
);
}
);
width = 552;
}
);
leftKerningGroup = l;
unicode = 0127;
},
{
color = 1;
glyphname = i;
lastChange = "2017-09-09 13:26:44 +0000";
layers = (
{
layerId = "7984B694-437B-44C7-A8AE-41A7C9CC5720";
paths = (
{
closed = 1;
nodes = (
"84 0 LINE",
"174 513 LINE",
"107 513 LINE",
"17 0 LINE"
);
},
{
closed = 1;
nodes = (
"213 722 OFFCURVE",
"242 749 OFFCURVE",
"242 780 CURVE SMOOTH",
"242 809 OFFCURVE",
"221 830 OFFCURVE",
"192 830 CURVE SMOOTH",
"161 830 OFFCURVE",
"132 803 OFFCURVE",
"132 772 CURVE SMOOTH",
"132 743 OFFCURVE",
"153 722 OFFCURVE",
"182 722 CURVE SMOOTH"
);
}
);
width = 191;
},
{
layerId = "6F85D940-A117-47EE-950D-70F837F8C9CE";
paths = (
{
closed = 1;
nodes = (
"187 0 LINE",
"277 513 LINE",
"100 513 LINE",
"10 0 LINE"
);
},
{
closed = 1;
nodes = (
"274 620 OFFCURVE",
"322 660 OFFCURVE",
"332 712 CURVE SMOOTH",
"344 776 OFFCURVE",
"299 830 OFFCURVE",
"235 830 CURVE SMOOTH",
"183 830 OFFCURVE",
"134 790 OFFCURVE",
"125 738 CURVE SMOOTH",
"114 674 OFFCURVE",
"158 620 OFFCURVE",
"222 620 CURVE SMOOTH"
);
}
);
width = 292;
}
);
leftKerningGroup = i;
rightKerningGroup = d;
unicode = 0069;
},
{
color = 1;
glyphname = dotlessi;
lastChange = "2017-06-25 12:04:12 +0000";
layers = (
{
layerId = "6F85D940-A117-47EE-950D-70F837F8C9CE";
paths = (
{
closed = 1;
nodes = (
"178 0 LINE",
"268 513 LINE",
"91 513 LINE",
"1 0 LINE"
);
}
);
width = 269;
},
{
layerId = "7984B694-437B-44C7-A8AE-41A7C9CC5720";
paths = (
{
closed = 1;
nodes = (
"81 0 LINE",
"171 513 LINE",
"104 513 LINE",
"14 0 LINE"
);
}
);
width = 185;
}
);
leftKerningGroup = i;
rightKerningGroup = d;
unicode = 0131;
},
{
color = 1;
glyphname = j;
lastChange = "2017-09-09 13:33:48 +0000";
layers = (
{
layerId = "7984B694-437B-44C7-A8AE-41A7C9CC5720";
paths = (
{
closed = 1;
nodes = (
"69 -74 LINE SMOOTH",
"47 -199 OFFCURVE",
"3 -275 OFFCURVE",
"-119 -275 CURVE SMOOTH",
"-138 -275 OFFCURVE",
"-147 -275 OFFCURVE",
"-172 -270 CURVE",
"-159 -210 LINE",
"-133 -214 OFFCURVE",
"-125 -214 OFFCURVE",
"-106 -214 CURVE SMOOTH",
"-31 -214 OFFCURVE",
"-14 -168 OFFCURVE",
"7 -47 CURVE SMOOTH",
"105 513 LINE",
"173 513 LINE"
);
},
{
closed = 1;
nodes = (
"159 830 OFFCURVE",
"131 802 OFFCURVE",
"131 770 CURVE SMOOTH",
"131 742 OFFCURVE",
"153 722 OFFCURVE",
"181 722 CURVE SMOOTH",
"213 722 OFFCURVE",
"241 750 OFFCURVE",
"241 781 CURVE SMOOTH",
"241 809 OFFCURVE",
"220 830 OFFCURVE",
"191 830 CURVE SMOOTH"
);
}
);
width = 188;
},
{
layerId = "6F85D940-A117-47EE-950D-70F837F8C9CE";
paths = (
{
closed = 1;
nodes = (
"175 -76 LINE SMOOTH",
"159 -167 OFFCURVE",
"94 -269 OFFCURVE",
"-49 -275 CURVE SMOOTH",
"-93 -277 OFFCURVE",
"-132 -274 OFFCURVE",
"-153 -272 CURVE",
"-120 -116 LINE",
"-121 -116 OFFCURVE",
"-77 -116 OFFCURVE",
"-52 -115 CURVE SMOOTH",
"-25 -114 OFFCURVE",
"-3 -96 OFFCURVE",
"5 -48 CURVE SMOOTH",
"102 513 LINE",
"279 513 LINE"
);
},
{
closed = 1;
nodes = (
"189 830 OFFCURVE",
"136 786 OFFCURVE",
"125 730 CURVE SMOOTH",
"114 670 OFFCURVE",
"156 620 OFFCURVE",
"216 620 CURVE SMOOTH",
"273 620 OFFCURVE",
"325 664 OFFCURVE",
"335 720 CURVE SMOOTH",
"345 780 OFFCURVE",
"305 830 OFFCURVE",
"244 830 CURVE SMOOTH"
);
}
);
width = 294;
}
);
note = " ";
rightKerningGroup = d;
unicode = 006A;
},
{
color = 1;
glyphname = k;
lastChange = "2017-09-24 14:33:05 +0000";
layers = (
{
background = {
components = (
{
name = h;
transform = "{1, 0, 0, 1, -10, 0}";
}
);
};
layerId = "6F85D940-A117-47EE-950D-70F837F8C9CE";
paths = (
{
closed = 1;
nodes = (
"182 0 LINE",
"214 160 LINE",
"289 180 LINE",
"367 0 LINE",
"575 0 LINE",
"434 241 LINE",
"481 263 OFFCURVE",
"522 297 OFFCURVE",
"553 347 CURVE SMOOTH",
"579 390 OFFCURVE",
"599 444 OFFCURVE",
"610 513 CURVE",
"437 511 LINE",
"430 466 OFFCURVE",
"411 425 OFFCURVE",
"384 392 CURVE SMOOTH",
"348 347 OFFCURVE",
"296 315 OFFCURVE",
"235 307 CURVE",
"333 860 LINE",
"156 860 LINE",
"5 0 LINE"
);
}
);
width = 620;
},
{
background = {
components = (
{
name = n;
}
);
};
layerId = "7984B694-437B-44C7-A8AE-41A7C9CC5720";
paths = (
{
closed = 1;
nodes = (
"84 0 LINE",
"114 173 LINE",
"256 220 LINE",
"372 0 LINE",
"458 0 LINE",
"306 252 LINE",
"361 279 OFFCURVE",
"405 314 OFFCURVE",
"437 357 CURVE SMOOTH",
"471 402 OFFCURVE",
"494 455 OFFCURVE",
"504 513 CURVE",
"436 513 LINE",
"422 437 OFFCURVE",
"385 377 OFFCURVE",
"322 331 CURVE SMOOTH",
"270 293 OFFCURVE",
"202 263 OFFCURVE",
"128 239 CURVE",
"234 860 LINE",
"166 860 LINE",
"16 0 LINE"
);
}
);
width = 503;
}
);
leftKerningGroup = l;
leftMetricsKey = l;
rightKerningGroup = x;
unicode = 006B;
},
{
color = 1;
glyphname = l;
lastChange = "2017-09-09 13:40:52 +0000";
layers = (
{
layerId = "7984B694-437B-44C7-A8AE-41A7C9CC5720";
paths = (
{
closed = 1;
nodes = (
"234 860 LINE",
"166 860 LINE",
"16 0 LINE",
"84 0 LINE"
);
}
);
width = 189;
},
{
layerId = "6F85D940-A117-47EE-950D-70F837F8C9CE";
paths = (
{
closed = 1;
nodes = (
"333 860 LINE",
"156 860 LINE",
"6 0 LINE",
"183 0 LINE"
);
}
);
width = 288;
}
);
leftKerningGroup = l;
rightKerningGroup = d;
unicode = 006C;
},
{
color = 1;
glyphname = lslash;
lastChange = "2017-09-09 12:57:32 +0000";
layers = (
{
layerId = "6F85D940-A117-47EE-950D-70F837F8C9CE";
paths = (
{
closed = 1;
nodes = (
"228 0 LINE",
"309 449 LINE",
"395 509 LINE",
"419 662 LINE",
"332 602 LINE",
"379 860 LINE",
"202 860 LINE",
"131 463 LINE",
"44 403 LINE",
"21 250 LINE",
"107 310 LINE",
"51 0 LINE"
);
}
);
width = 369;
},
{
layerId = "7984B694-437B-44C7-A8AE-41A7C9CC5720";
paths = (
{
closed = 1;
nodes = (
"99 0 LINE",
"174 420 LINE",
"257 477 LINE",
"270 561 LINE",
"187 504 LINE",
"250 860 LINE",
"182 860 LINE",
"109 450 LINE",
"41 403 LINE",
"28 319 LINE",
"96 366 LINE",
"31 0 LINE"
);
}
);
width = 219;
}
);
leftKerningGroup = l;
rightKerningGroup = d;
unicode = 0142;
},
{
color = 1;
glyphname = m;
lastChange = "2017-09-09 13:27:25 +0000";
layers = (
{
layerId = "6F85D940-A117-47EE-950D-70F837F8C9CE";
paths = (
{
closed = 1;
nodes = (
"14 0 LINE",
"191 0 LINE",
"226 187 LINE SMOOTH",
"245 297 OFFCURVE",
"302 363 OFFCURVE",
"357 363 CURVE SMOOTH",
"410 363 OFFCURVE",
"429 350 OFFCURVE",
"417 281 CURVE SMOOTH",
"368 0 LINE",
"530 0 LINE",
"563 182 LINE SMOOTH",
"576 253 OFFCURVE",
"613 363 OFFCURVE",
"690 363 CURVE SMOOTH",
"743 363 OFFCURVE",
"753 327 OFFCURVE",
"741 258 CURVE SMOOTH",
"697 0 LINE",
"874 0 LINE",
"934 335 LINE SMOOTH",
"959 483 OFFCURVE",
"904 525 OFFCURVE",
"808 525 CURVE SMOOTH",
"682 525 OFFCURVE",
"631 447 OFFCURVE",
"597 376 CURVE",
"615 483 OFFCURVE",
"556 525 OFFCURVE",
"457 525 CURVE SMOOTH",
"354 525 OFFCURVE",
"279 420 OFFCURVE",
"255 376 CURVE",
"281 513 LINE",
"104 513 LINE"
);
}
);
width = 970;
},
{
background = {
paths = (
{
closed = 1;
nodes = (
"-258 0 LINE",
"-219 218 LINE SMOOTH",
"-193 366 OFFCURVE",
"-81 467 OFFCURVE",
"-2 467 CURVE SMOOTH",
"43 467 OFFCURVE",
"88 437 OFFCURVE",
"74 355 CURVE SMOOTH",
"12 0 LINE",
"81 0 LINE",
"119 218 LINE SMOOTH",
"145 367 OFFCURVE",
"254 466 OFFCURVE",
"336 467 CURVE SMOOTH",
"397 468 OFFCURVE",
"428 432 OFFCURVE",
"414 355 CURVE SMOOTH",
"351 0 LINE",
"419 0 LINE",
"481 355 LINE SMOOTH",
"501 469 OFFCURVE",
"456 528 OFFCURVE",
"350 528 CURVE SMOOTH",
"270 528 OFFCURVE",
"184 470 OFFCURVE",
"137 372 CURVE",
"153 473 OFFCURVE",
"104 528 OFFCURVE",
"13 528 CURVE SMOOTH",
"-54 528 OFFCURVE",
"-153 475 OFFCURVE",
"-203 357 CURVE",
"-168 513 LINE",
"-236 513 LINE",
"-326 0 LINE"
);
}
);
};
guideLines = (
{
position = "{147, 227}";
}
);
layerId = "7984B694-437B-44C7-A8AE-41A7C9CC5720";
paths = (
{
closed = 1;
nodes = (
"14 0 LINE",
"82 0 LINE",
"122 220 LINE SMOOTH",
"149 368 OFFCURVE",
"254 467 OFFCURVE",
"338 467 CURVE SMOOTH",
"401 467 OFFCURVE",
"426 426 OFFCURVE",
"414 355 CURVE SMOOTH",
"352 0 LINE",
"421 0 LINE",
"459 218 LINE SMOOTH",
"485 367 OFFCURVE",
"594 466 OFFCURVE",
"676 467 CURVE SMOOTH",
"744 466 OFFCURVE",
"766 424 OFFCURVE",
"754 355 CURVE SMOOTH",
"691 0 LINE",
"759 0 LINE",
"821 355 LINE SMOOTH",
"839 464 OFFCURVE",
"803 528 OFFCURVE",
"690 528 CURVE SMOOTH",
"610 528 OFFCURVE",
"524 470 OFFCURVE",
"477 372 CURVE",
"500 463 OFFCURVE",
"456 528 OFFCURVE",
"353 528 CURVE SMOOTH",
"272 528 OFFCURVE",
"188 476 OFFCURVE",
"138 358 CURVE",
"172 513 LINE",
"104 513 LINE"
);
}
);
width = 855;
}
);
leftKerningGroup = r;
leftMetricsKey = "=i+19";
note = " ";
rightKerningGroup = b;
rightMetricsKey = n;
unicode = 006D;
},
{
color = 1;
glyphname = n;
lastChange = "2017-09-09 13:27:04 +0000";
layers = (
{
background = {
paths = (
{
closed = 1;
nodes = (
"119 220 LINE SMOOTH",
"131 331 OFFCURVE",
"221 468 OFFCURVE",
"335 468 CURVE SMOOTH",
"408 468 OFFCURVE",
"447 436 OFFCURVE",
"437 339 CURVE SMOOTH",
"435 321 OFFCURVE",
"423 206 OFFCURVE",
"401 0 CURVE",
"469 0 LINE",
"504 337 LINE SMOOTH",
"521 491 OFFCURVE",
"449 530 OFFCURVE",
"346 529 CURVE SMOOTH",
"247 528 OFFCURVE",
"168 471 OFFCURVE",
"131 365 CURVE",
"150 513 LINE",
"82 513 LINE",
"28 0 LINE",
"96 0 LINE"
);
}
);
};
layerId = "7984B694-437B-44C7-A8AE-41A7C9CC5720";
paths = (
{
closed = 1;
nodes = (
"78 0 LINE",
"118 224 LINE SMOOTH",
"137 331 OFFCURVE",
"243 468 OFFCURVE",
"356 468 CURVE SMOOTH",
"445 468 OFFCURVE",
"457 421 OFFCURVE",
"441 331 CURVE SMOOTH",
"383 0 LINE",
"450 0 LINE",
"505 311 LINE SMOOTH",
"531 458 OFFCURVE",
"508 529 OFFCURVE",
"363 529 CURVE SMOOTH",
"296 529 OFFCURVE",
"200 497 OFFCURVE",
"140 370 CURVE",
"168 513 LINE",
"100 513 LINE",
"10 0 LINE"
);
}
);
width = 546;
},
{
layerId = "6F85D940-A117-47EE-950D-70F837F8C9CE";
paths = (
{
closed = 1;
nodes = (
"188 0 LINE",
"213 142 LINE SMOOTH",
"235 271 OFFCURVE",
"290 366 OFFCURVE",
"379 366 CURVE SMOOTH",
"441 366 OFFCURVE",
"439 321 OFFCURVE",
"427 252 CURVE SMOOTH",
"384 0 LINE",
"561 0 LINE",
"620 330 LINE SMOOTH",
"646 478 OFFCURVE",
"570 525 OFFCURVE",
"475 526 CURVE SMOOTH",
"387 527 OFFCURVE",
"314 512 OFFCURVE",
"248 373 CURVE",
"271 513 LINE",
"100 513 LINE",
"10 0 LINE"
);
}
);
width = 657;
}
);
leftKerningGroup = r;
leftMetricsKey = "=i+15";
rightKerningGroup = b;
unicode = 006E;
},
{
color = 1;
glyphname = eng;
lastChange = "2017-09-09 10:48:16 +0000";
layers = (
{
components = (
{
name = n;
}
);
layerId = "6F85D940-A117-47EE-950D-70F837F8C9CE";
paths = (
{
closed = 1;
nodes = (
"553 -72 LINE SMOOTH",
"537 -163 OFFCURVE",
"468 -275 OFFCURVE",
"321 -275 CURVE SMOOTH",
"243 -275 OFFCURVE",
"214 -257 OFFCURVE",
"191 -246 CURVE",
"273 -100 LINE",
"271 -100 OFFCURVE",
"303 -115 OFFCURVE",
"331 -115 CURVE SMOOTH",
"355 -115 OFFCURVE",
"371 -100 OFFCURVE",
"380 -52 CURVE SMOOTH",
"389 0 LINE",
"566 0 LINE"
);
}
);
width = 661;
},
{
components = (
{
name = n;
}
);
layerId = "7984B694-437B-44C7-A8AE-41A7C9CC5720";
paths = (
{
closed = 1;
nodes = (
"436 -77 LINE SMOOTH",
"418 -178 OFFCURVE",
"374 -275 OFFCURVE",
"264 -275 CURVE SMOOTH",
"213 -275 OFFCURVE",
"176 -256 OFFCURVE",
"174 -254 CURVE",
"213 -195 LINE",
"224 -206 OFFCURVE",
"247 -213 OFFCURVE",
"270 -213 CURVE SMOOTH",
"340 -213 OFFCURVE",
"359 -141 OFFCURVE",
"375 -47 CURVE SMOOTH",
"383 0 LINE",
"450 0 LINE"
);
}
);
width = 551;
}
);
unicode = 014B;
},
{
color = 1;
glyphname = o;
lastChange = "2017-09-24 14:31:47 +0000";
layers = (
{
guideLines = (
{
angle = 80;
position = "{247, -89}";
}
);
layerId = "6F85D940-A117-47EE-950D-70F837F8C9CE";
paths = (
{
closed = 1;
nodes = (
"444 -15 OFFCURVE",
"572 100 OFFCURVE",
"596 258 CURVE SMOOTH",
"621 421 OFFCURVE",
"518 528 OFFCURVE",
"353 528 CURVE SMOOTH",
"199 528 OFFCURVE",
"47 434 OFFCURVE",
"20 258 CURVE SMOOTH",
"-5 96 OFFCURVE",
"94 -15 OFFCURVE",
"267 -15 CURVE SMOOTH"
);
},
{
closed = 1;
nodes = (
"218 129 OFFCURVE",
"179 184 OFFCURVE",
"191 256 CURVE SMOOTH",
"203 330 OFFCURVE",
"261 382 OFFCURVE",
"327 382 CURVE SMOOTH",
"396 382 OFFCURVE",
"431 324 OFFCURVE",
"421 255 CURVE SMOOTH",
"411 184 OFFCURVE",
"358 129 OFFCURVE",
"288 129 CURVE SMOOTH"
);
}
);
width = 616;
},
{
guideLines = (
{
angle = 80;
position = "{29, 187}";
},
{
angle = 80;
position = "{287, 317}";
}
);
layerId = "7984B694-437B-44C7-A8AE-41A7C9CC5720";
paths = (
{
closed = 1;
nodes = (
"402 -15 OFFCURVE",
"515 100 OFFCURVE",
"540 248 CURVE SMOOTH",
"568 412 OFFCURVE",
"481 528 OFFCURVE",
"324 528 CURVE SMOOTH",
"170 528 OFFCURVE",
"50 416 OFFCURVE",
"24 266 CURVE SMOOTH",
"-4 106 OFFCURVE",
"79 -15 OFFCURVE",
"237 -15 CURVE SMOOTH"
);
},
{
closed = 1;
nodes = (
"138 46 OFFCURVE",
"74 135 OFFCURVE",
"94 261 CURVE SMOOTH",
"112 375 OFFCURVE",
"196 467 OFFCURVE",
"310 467 CURVE SMOOTH",
"433 467 OFFCURVE",
"489 371 OFFCURVE",
"468 251 CURVE SMOOTH",
"448 136 OFFCURVE",
"361 46 OFFCURVE",
"246 46 CURVE SMOOTH"
);
}
);
width = 564;
}
);
leftKerningGroup = o;
rightKerningGroup = c;
unicode = 006F;
},
{
color = 1;
glyphname = oslash;
lastChange = "2017-09-09 13:00:19 +0000";
layers = (
{
layerId = "6F85D940-A117-47EE-950D-70F837F8C9CE";
paths = (
{
closed = 1;
nodes = (
"97 50 LINE",
"140 11 OFFCURVE",
"208 -15 OFFCURVE",
"296 -15 CURVE SMOOTH",
"467 -15 OFFCURVE",
"609 91 OFFCURVE",
"636 243 CURVE SMOOTH",
"648 310 OFFCURVE",
"634 367 OFFCURVE",
"606 410 CURVE",
"708 484 LINE",
"669 538 LINE",
"563 461 LINE",
"518 501 OFFCURVE",
"451 528 OFFCURVE",
"368 528 CURVE SMOOTH",
"201 528 OFFCURVE",
"52 423 OFFCURVE",
"25 269 CURVE SMOOTH",
"13 201 OFFCURVE",
"26 144 OFFCURVE",
"52 100 CURVE",
"-47 28 LINE",
"-8 -26 LINE"
);
},
{
closed = 1;
nodes = (
"277 136 OFFCURVE",
"255 139 OFFCURVE",
"239 151 CURVE",
"454 307 LINE",
"455 293 OFFCURVE",
"454 279 OFFCURVE",
"452 269 CURVE SMOOTH",
"439 193 OFFCURVE",
"373 136 OFFCURVE",
"298 136 CURVE SMOOTH"
);
},
{
closed = 1;
nodes = (
"205 218 OFFCURVE",
"207 232 OFFCURVE",
"209 243 CURVE SMOOTH",
"222 320 OFFCURVE",
"291 377 OFFCURVE",
"364 377 CURVE SMOOTH",
"383 377 OFFCURVE",
"405 373 OFFCURVE",
"422 360 CURVE",
"206 204 LINE"
);
}
);
width = 661;
},
{
layerId = "7984B694-437B-44C7-A8AE-41A7C9CC5720";
paths = (
{
closed = 1;
nodes = (
"97 47 LINE",
"133 9 OFFCURVE",
"188 -15 OFFCURVE",
"265 -15 CURVE SMOOTH",
"428 -15 OFFCURVE",
"543 106 OFFCURVE",
"569 250 CURVE SMOOTH",
"581 319 OFFCURVE",
"571 381 OFFCURVE",
"543 428 CURVE",
"607 484 LINE",
"570 538 LINE",
"500 478 LINE",
"465 509 OFFCURVE",
"415 528 OFFCURVE",
"351 528 CURVE SMOOTH",
"192 528 OFFCURVE",
"71 407 OFFCURVE",
"45 260 CURVE SMOOTH",
"34 199 OFFCURVE",
"39 144 OFFCURVE",
"60 100 CURVE",
"-23 28 LINE",
"14 -26 LINE"
);
},
{
closed = 1;
nodes = (
"218 49 OFFCURVE",
"178 63 OFFCURVE",
"150 92 CURVE",
"491 384 LINE",
"507 350 OFFCURVE",
"511 307 OFFCURVE",
"503 261 CURVE SMOOTH",
"480 134 OFFCURVE",
"382 49 OFFCURVE",
"268 49 CURVE SMOOTH"
);
},
{
closed = 1;
nodes = (
"108 178 OFFCURVE",
"107 214 OFFCURVE",
"114 251 CURVE SMOOTH",
"137 379 OFFCURVE",
"240 464 OFFCURVE",
"350 464 CURVE SMOOTH",
"388 464 OFFCURVE",
"423 453 OFFCURVE",
"450 433 CURVE",
"117 148 LINE"
);
}
);
width = 603;
}
);
leftKerningGroup = o;
rightKerningGroup = c;
unicode = 00F8;
},
{
color = 1;
glyphname = p;
lastChange = "2017-09-09 13:39:55 +0000";
layers = (
{
components = (
{
name = a;
transform = "{-1, 0, 0, -1, 647, 513}";
}
);
layerId = "6F85D940-A117-47EE-950D-70F837F8C9CE";
paths = (
{
closed = 1;
nodes = (
"168 -100 LINE",
"182 5 LINE",
"18 60 LINE",
"-38 -260 LINE",
"139 -260 LINE"
);
}
);
width = 647;
},
{
background = {
components = (
{
name = a;
transform = "{-1, 0, 0, -1, 561, 513}";
}
);
paths = (
{
closed = 1;
nodes = (
"-32 -260 LINE",
"36 -260 LINE",
"65 19 LINE",
"-3 19 LINE"
);
}
);
};
components = (
{
name = a;
transform = "{-1, 0, 0, -1, 567, 514}";
}
);
guideLines = (
{
position = "{179, -16}";
}
);
layerId = "7984B694-437B-44C7-A8AE-41A7C9CC5720";
paths = (
{
closed = 1;
nodes = (
"68 -109 LINE",
"82 19 LINE",
"23 19 LINE",
"-25 -260 LINE",
"43 -260 LINE"
);
}
);
width = 566;
}
);
leftKerningGroup = r;
rightKerningGroup = b;
rightMetricsKey = o;
unicode = 0070;
},
{
color = 1;
glyphname = thorn;
lastChange = "2017-09-09 12:57:32 +0000";
layers = (
{
components = (
{
name = p;
}
);
layerId = "6F85D940-A117-47EE-950D-70F837F8C9CE";
paths = (
{
closed = 1;
nodes = (
"166 860 LINE",
"104 513 LINE",
"281 513 LINE",
"343 860 LINE"
);
}
);
width = 683;
},
{
background = {
components = (
{
name = p;
transform = "{1, 0, 0, 1, -14, 0}";
}
);
paths = (
{
closed = 1;
nodes = (
"103 514 LINE",
"171 514 LINE",
"231 859 LINE",
"165 859 LINE"
);
}
);
};
components = (
{
name = p;
transform = "{1, 0, 0, 1, -1, 0}";
}
);
layerId = "7984B694-437B-44C7-A8AE-41A7C9CC5720";
paths = (
{
closed = 1;
nodes = (
"171 859 LINE",
"109 514 LINE",
"177 514 LINE",
"237 859 LINE"
);
}
);
width = 572;
}
);
leftKerningGroup = l;
rightKerningGroup = b;
unicode = 00FE;
},
{
color = 1;
glyphname = q;
lastChange = "2017-09-09 12:48:32 +0000";
layers = (
{
background = {
components = (
{
name = a;
transform = "{1, 0, 0, 1, 13, 0}";
}
);
paths = (
{
closed = 1;
nodes = (
"390 -261 LINE",
"567 -261 LINE",
"594 0 LINE",
"417 0 LINE"
);
}
);
};
components = (
{
name = a;
}
);
layerId = "6F85D940-A117-47EE-950D-70F837F8C9CE";
paths = (
{
closed = 1;
nodes = (
"375 0 LINE",
"329 -260 LINE",
"506 -260 LINE",
"552 0 LINE"
);
}
);
width = 670;
},
{
components = (
{
name = a;
}
);
layerId = "7984B694-437B-44C7-A8AE-41A7C9CC5720";
paths = (
{
closed = 1;
nodes = (
"389 1 LINE",
"341 -260 LINE",
"412 -260 LINE",
"488 178 LINE"
);
}
);
width = 561;
}
);
leftKerningGroup = o;
leftMetricsKey = o;
rightKerningGroup = d;
unicode = 0071;
},
{
color = 1;
glyphname = r;
lastChange = "2017-09-09 13:32:26 +0000";
layers = (
{
background = {
components = (
{
name = n;
transform = "{1, 0, 0, 1, -19, 0}";
}
);
};
layerId = "7984B694-437B-44C7-A8AE-41A7C9CC5720";
paths = (
{
closed = 1;
nodes = (
"101 205 LINE SMOOTH",
"115 281 OFFCURVE",
"155 352 OFFCURVE",
"203 397 CURVE SMOOTH",
"244 436 OFFCURVE",
"286 456 OFFCURVE",
"335 449 CURVE",
"349 524 LINE",
"313 532 OFFCURVE",
"254 512 OFFCURVE",
"212 478 CURVE SMOOTH",
"171 445 OFFCURVE",
"135 397 OFFCURVE",
"117 349 CURVE",
"154 513 LINE",
"86 513 LINE",
"-4 0 LINE",
"64 0 LINE"
);
}
);
width = 312;
},
{
layerId = "6F85D940-A117-47EE-950D-70F837F8C9CE";
paths = (
{
closed = 1;
nodes = (
"221 170 LINE SMOOTH",
"235 249 OFFCURVE",
"272 303 OFFCURVE",
"328 332 CURVE SMOOTH",
"365 356 OFFCURVE",
"415 365 OFFCURVE",
"471 362 CURVE",
"495 520 LINE",
"446 529 OFFCURVE",
"396 523 OFFCURVE",
"351 493 CURVE SMOOTH",
"291 451 OFFCURVE",
"262 380 OFFCURVE",
"257 371 CURVE",
"282 513 LINE",
"105 513 LINE",
"15 0 LINE",
"192 0 LINE"
);
}
);
width = 468;
}
);
leftKerningGroup = r;
note = " ";
rightKerningGroup = r;
unicode = 0072;
},
{
color = 1;
glyphname = s;
lastChange = "2017-09-09 13:37:16 +0000";
layers = (
{
background = {
paths = (
{
closed = 1;
nodes = (
"153 528 OFFCURVE",
"65 477 OFFCURVE",
"49 390 CURVE SMOOTH",
"48 381 OFFCURVE",
"47 373 OFFCURVE",
"47 366 CURVE SMOOTH",
"47 281 OFFCURVE",
"135 258 OFFCURVE",
"190 237 CURVE SMOOTH",
"225 224 OFFCURVE",
"292 201 OFFCURVE",
"292 155 CURVE SMOOTH",
"292 152 OFFCURVE",
"292 149 OFFCURVE",
"291 146 CURVE SMOOTH",
"282 93 OFFCURVE",
"239 49 OFFCURVE",
"143 49 CURVE SMOOTH",
"69 49 OFFCURVE",
"22 67 OFFCURVE",
"1 85 CURVE",
"-10 17 LINE",
"1 5 OFFCURVE",
"48 -15 OFFCURVE",
"137 -15 CURVE SMOOTH",
"241 -15 OFFCURVE",
"340 35 OFFCURVE",
"360 142 CURVE SMOOTH",
"362 152 OFFCURVE",
"363 161 OFFCURVE",
"363 169 CURVE SMOOTH",
"363 255 OFFCURVE",
"276 278 OFFCURVE",
"218 298 CURVE SMOOTH",
"184 309 OFFCURVE",
"118 329 OFFCURVE",
"118 377 CURVE SMOOTH",
"118 380 OFFCURVE",
"118 384 OFFCURVE",
"119 387 CURVE SMOOTH",
"129 444 OFFCURVE",
"182 466 OFFCURVE",
"245 466 CURVE SMOOTH",
"287 466 OFFCURVE",
"343 456 OFFCURVE",
"377 441 CURVE",
"389 508 LINE",
"389 508 OFFCURVE",
"348 528 OFFCURVE",
"256 528 CURVE SMOOTH"
);
}
);
};
layerId = "7984B694-437B-44C7-A8AE-41A7C9CC5720";
paths = (
{
closed = 1;
nodes = (
"148 528 OFFCURVE",
"64 478 OFFCURVE",
"49 390 CURVE SMOOTH",
"34 301 OFFCURVE",
"103 271 OFFCURVE",
"190 239 CURVE SMOOTH",
"257 214 OFFCURVE",
"302 195 OFFCURVE",
"292 138 CURVE SMOOTH",
"284 92 OFFCURVE",
"241 47 OFFCURVE",
"139 47 CURVE SMOOTH",
"76 47 OFFCURVE",
"21 67 OFFCURVE",
"1 85 CURVE",
"-10 17 LINE",
"-1 5 OFFCURVE",
"56 -15 OFFCURVE",
"128 -15 CURVE SMOOTH",
"237 -15 OFFCURVE",
"340 31 OFFCURVE",
"360 142 CURVE SMOOTH",
"378 240 OFFCURVE",
"308 267 OFFCURVE",
"218 297 CURVE SMOOTH",
"172 313 OFFCURVE",
"108 337 OFFCURVE",
"117 390 CURVE SMOOTH",
"126 444 OFFCURVE",
"188 466 OFFCURVE",
"246 466 CURVE SMOOTH",
"299 466 OFFCURVE",
"343 456 OFFCURVE",
"377 441 CURVE",
"389 508 LINE",
"368 517 OFFCURVE",
"321 528 OFFCURVE",
"266 528 CURVE SMOOTH"
);
}
);
width = 401;
},
{
layerId = "6F85D940-A117-47EE-950D-70F837F8C9CE";
paths = (
{
closed = 1;
nodes = (
"175 528 OFFCURVE",
"77 471 OFFCURVE",
"58 368 CURVE SMOOTH",
"45 289 OFFCURVE",
"94 249 OFFCURVE",
"143 224 CURVE SMOOTH",
"194 192 OFFCURVE",
"245 191 OFFCURVE",
"240 156 CURVE SMOOTH",
"236 129 OFFCURVE",
"195 119 OFFCURVE",
"147 119 CURVE SMOOTH",
"108 119 OFFCURVE",
"63 126 OFFCURVE",
"27 136 CURVE",
"5 3 LINE",
"5 3 OFFCURVE",
"33 -15 OFFCURVE",
"160 -15 CURVE SMOOTH",
"262 -15 OFFCURVE",
"401 6 OFFCURVE",
"427 155 CURVE SMOOTH",
"446 262 OFFCURVE",
"363 296 OFFCURVE",
"296 317 CURVE SMOOTH",
"257 332 OFFCURVE",
"225 338 OFFCURVE",
"229 363 CURVE SMOOTH",
"232 387 OFFCURVE",
"270 395 OFFCURVE",
"314 395 CURVE SMOOTH",
"357 395 OFFCURVE",
"412 387 OFFCURVE",
"441 376 CURVE",
"462 509 LINE",
"462 509 OFFCURVE",
"409 528 OFFCURVE",
"307 528 CURVE SMOOTH"
);
}
);
width = 484;
}
);
leftKerningGroup = s;
rightKerningGroup = s;
unicode = 0073;
},
{
color = 1;
glyphname = germandbls;
lastChange = "2017-09-09 12:57:32 +0000";
layers = (
{
guideLines = (
{
angle = 80;
position = "{552, 513}";
}
);
layerId = "6F85D940-A117-47EE-950D-70F837F8C9CE";
paths = (
{
closed = 1;
nodes = (
"304 -15 LINE",
"495 -36 OFFCURVE",
"632 49 OFFCURVE",
"664 232 CURVE SMOOTH",
"680 324 OFFCURVE",
"653 414 OFFCURVE",
"566 454 CURVE",
"643 484 OFFCURVE",
"686 557 OFFCURVE",
"697 622 CURVE SMOOTH",
"719 744 OFFCURVE",
"631 875 OFFCURVE",
"461 875 CURVE SMOOTH",
"302 875 OFFCURVE",
"182 779 OFFCURVE",
"156 629 CURVE",
"0 -260 LINE",
"177 -260 LINE",
"331 600 LINE SMOOTH",
"342 659 OFFCURVE",
"386 726 OFFCURVE",
"448 726 CURVE SMOOTH",
"511 726 OFFCURVE",
"536 683 OFFCURVE",
"526 629 CURVE SMOOTH",
"513 560 OFFCURVE",
"465 527 OFFCURVE",
"397 524 CURVE",
"375 389 LINE",
"467 389 OFFCURVE",
"502 314 OFFCURVE",
"490 244 CURVE SMOOTH",
"478 177 OFFCURVE",
"422 113 OFFCURVE",
"328 125 CURVE"
);
}
);
width = 686;
},
{
layerId = "7984B694-437B-44C7-A8AE-41A7C9CC5720";
paths = (
{
closed = 1;
nodes = (
"194 -15 LINE",
"382 -15 OFFCURVE",
"496 75 OFFCURVE",
"526 230 CURVE SMOOTH",
"546 334 OFFCURVE",
"473 437 OFFCURVE",
"398 453 CURVE",
"467 471 OFFCURVE",
"548 569 OFFCURVE",
"563 655 CURVE SMOOTH",
"588 796 OFFCURVE",
"512 875 OFFCURVE",
"386 875 CURVE SMOOTH",
"254 875 OFFCURVE",
"149 774 OFFCURVE",
"123 624 CURVE",
"-32 -260 LINE",
"36 -260 LINE",
"192 634 LINE SMOOTH",
"209 733 OFFCURVE",
"278 814 OFFCURVE",
"384 814 CURVE SMOOTH",
"460 814 OFFCURVE",
"514 779 OFFCURVE",
"495 672 CURVE SMOOTH",
"478 576 OFFCURVE",
"400 484 OFFCURVE",
"282 484 CURVE",
"275 419 LINE",
"411 419 OFFCURVE",
"471 329 OFFCURVE",
"455 238 CURVE SMOOTH",
"437 135 OFFCURVE",
"355 53 OFFCURVE",
"206 53 CURVE"
);
}
);
width = 553;
}
);
leftKerningGroup = l;
rightKerningGroup = d;
unicode = 00DF;
},
{
color = 1;
glyphname = t;
lastChange = "2017-09-09 13:38:44 +0000";
layers = (
{
layerId = "7984B694-437B-44C7-A8AE-41A7C9CC5720";
paths = (
{
closed = 1;
nodes = (
"39 456 LINE",
"125 456 LINE",
"73 163 LINE SMOOTH",
"54 54 OFFCURVE",
"67 -14 OFFCURVE",
"169 -14 CURVE SMOOTH",
"200 -14 OFFCURVE",
"224 -8 OFFCURVE",
"246 -2 CURVE",
"253 49 LINE",
"216 43 OFFCURVE",
"166 34 OFFCURVE",
"146 56 CURVE SMOOTH",
"129 75 OFFCURVE",
"131 103 OFFCURVE",
"142 167 CURVE",
"192 456 LINE",
"330 456 LINE",
"340 513 LINE",
"203 513 LINE",
"236 704 LINE",
"172 704 LINE",
"139 513 LINE",
"49 513 LINE"
);
}
);
width = 295;
},
{
layerId = "6F85D940-A117-47EE-950D-70F837F8C9CE";
paths = (
{
closed = 1;
nodes = (
"26 378 LINE",
"100 378 LINE",
"65 192 LINE SMOOTH",
"48 101 OFFCURVE",
"68 -7 OFFCURVE",
"212 -7 CURVE SMOOTH",
"264 -7 OFFCURVE",
"294 -3 OFFCURVE",
"330 8 CURVE",
"350 143 LINE",
"327 143 OFFCURVE",
"289 143 OFFCURVE",
"271 144 CURVE SMOOTH",
"245 145 OFFCURVE",
"237 154 OFFCURVE",
"246 202 CURVE SMOOTH",
"278 378 LINE",
"386 378 LINE",
"409 513 LINE",
"301 513 LINE",
"335 704 LINE",
"157 704 LINE",
"124 513 LINE",
"50 513 LINE"
);
}
);
width = 390;
}
);
leftKerningGroup = t;
rightKerningGroup = t;
unicode = 0074;
},
{
color = 1;
glyphname = tbar;
lastChange = "2017-06-25 12:04:12 +0000";
layers = (
{
components = (
{
name = t;
}
);
layerId = "6F85D940-A117-47EE-950D-70F837F8C9CE";
paths = (
{
closed = 1;
nodes = (
"8 208 LINE",
"366 208 LINE",
"390 343 LINE",
"32 343 LINE"
);
}
);
width = 400;
},
{
components = (
{
name = t;
transform = "{1, 0, 0, 1, -1, 0}";
}
);
layerId = "7984B694-437B-44C7-A8AE-41A7C9CC5720";
paths = (
{
closed = 1;
nodes = (
"28 282 LINE",
"314 282 LINE",
"324 339 LINE",
"38 339 LINE"
);
}
);
width = 337;
}
);
unicode = 0167;
},
{
color = 1;
glyphname = u;
lastChange = "2017-09-09 13:39:16 +0000";
layers = (
{
background = {
paths = (
{
closed = 1;
nodes = (
"158 513 LINE",
"91 513 LINE",
"39 223 LINE SMOOTH",
"12 75 OFFCURVE",
"78 -15 OFFCURVE",
"215 -15 CURVE SMOOTH",
"369 -15 OFFCURVE",
"451 89 OFFCURVE",
"474 223 CURVE SMOOTH",
"524 513 LINE",
"457 513 LINE",
"421 295 LINE SMOOTH",
"387 94 OFFCURVE",
"317 49 OFFCURVE",
"226 49 CURVE SMOOTH",
"130 49 OFFCURVE",
"83 97 OFFCURVE",
"118 293 CURVE SMOOTH"
);
}
);
};
guideLines = (
{
angle = 80;
position = "{247, 185}";
}
);
layerId = "7984B694-437B-44C7-A8AE-41A7C9CC5720";
paths = (
{
closed = 1;
nodes = (
"158 513 LINE",
"91 513 LINE",
"47 268 LINE SMOOTH",
"17 101 OFFCURVE",
"54 -15 OFFCURVE",
"215 -15 CURVE SMOOTH",
"373 -15 OFFCURVE",
"453 99 OFFCURVE",
"481 264 CURVE SMOOTH",
"524 513 LINE",
"457 513 LINE",
"421 295 LINE SMOOTH",
"394 134 OFFCURVE",
"343 49 OFFCURVE",
"228 49 CURVE SMOOTH",
"98 49 OFFCURVE",
"91 143 OFFCURVE",
"118 293 CURVE SMOOTH"
);
}
);
width = 531;
},
{
layerId = "6F85D940-A117-47EE-950D-70F837F8C9CE";
paths = (
{
closed = 1;
nodes = (
"268 513 LINE",
"91 513 LINE",
"48 273 LINE SMOOTH",
"17 101 OFFCURVE",
"90 -15 OFFCURVE",
"278 -15 CURVE SMOOTH",
"454 -15 OFFCURVE",
"552 87 OFFCURVE",
"582 259 CURVE SMOOTH",
"627 513 LINE",
"450 513 LINE",
"409 286 LINE SMOOTH",
"391 185 OFFCURVE",
"360 129 OFFCURVE",
"296 129 CURVE SMOOTH",
"235 129 OFFCURVE",
"208 171 OFFCURVE",
"226 272 CURVE SMOOTH"
);
}
);
width = 632;
}
);
leftKerningGroup = u;
rightKerningGroup = u;
rightMetricsKey = n;
unicode = 0075;
},
{
color = 1;
glyphname = v;
lastChange = "2017-09-09 13:23:14 +0000";
layers = (
{
guideLines = (
{
angle = 80;
position = "{275, 246}";
}
);
layerId = "7984B694-437B-44C7-A8AE-41A7C9CC5720";
paths = (
{
closed = 1;
nodes = (
"131 455 LINE",
"93 367 OFFCURVE",
"59 287 OFFCURVE",
"46 213 CURVE SMOOTH",
"21 70 OFFCURVE",
"78 -16 OFFCURVE",
"219 -16 CURVE SMOOTH",
"369 -16 OFFCURVE",
"446 109 OFFCURVE",
"476 274 CURVE SMOOTH",
"489 347 OFFCURVE",
"498 440 OFFCURVE",
"486 513 CURVE",
"418 513 LINE",
"430 438 OFFCURVE",
"422 357 OFFCURVE",
"407 270 CURVE SMOOTH",
"384 134 OFFCURVE",
"326 42 OFFCURVE",
"223 42 CURVE SMOOTH",
"91 42 OFFCURVE",
"93 161 OFFCURVE",
"139 300 CURVE SMOOTH",
"209 513 LINE",
"45 513 LINE",
"35 455 LINE"
);
}
);
width = 515;
},
{
layerId = "6F85D940-A117-47EE-950D-70F837F8C9CE";
paths = (
{
closed = 1;
nodes = (
"117 385 LINE",
"57 294 OFFCURVE",
"25 173 OFFCURVE",
"68 89 CURVE SMOOTH",
"102 22 OFFCURVE",
"174 -15 OFFCURVE",
"271 -15 CURVE SMOOTH",
"460 -15 OFFCURVE",
"569 117 OFFCURVE",
"601 304 CURVE SMOOTH",
"612 368 OFFCURVE",
"615 439 OFFCURVE",
"609 513 CURVE",
"432 513 LINE",
"436 438 OFFCURVE",
"434 364 OFFCURVE",
"423 301 CURVE SMOOTH",
"405 200 OFFCURVE",
"369 129 OFFCURVE",
"298 129 CURVE SMOOTH",
"245 129 OFFCURVE",
"201 167 OFFCURVE",
"233 288 CURVE SMOOTH",
"292 513 LINE",
"45 513 LINE",
"23 385 LINE"
);
}
);
width = 618;
},
{
associatedMasterId = "7984B694-437B-44C7-A8AE-41A7C9CC5720";
guideLines = (
{
angle = 80;
position = "{275, 246}";
}
);
layerId = "DC9DD43C-A323-4520-A95F-C2241ECC476C";
name = "Sep 9 17, 14:03";
paths = (
{
closed = 1;
nodes = (
"131 455 LINE",
"93 367 OFFCURVE",
"59 287 OFFCURVE",
"46 213 CURVE SMOOTH",
"21 70 OFFCURVE",
"107 -37 OFFCURVE",
"248 -17 CURVE",
"452 55 OFFCURVE",
"523 302 OFFCURVE",
"488 513 CURVE",
"418 513 LINE",
"442 344 OFFCURVE",
"407 125 OFFCURVE",
"239 44 CURVE",
"107 44 OFFCURVE",
"93 161 OFFCURVE",
"139 300 CURVE SMOOTH",
"209 513 LINE",
"45 513 LINE",
"35 455 LINE"
);
}
);
width = 515;
}
);
leftKerningGroup = v;
rightKerningGroup = v;
unicode = 0076;
},
{
color = 1;
glyphname = w;
lastChange = "2017-09-09 13:25:35 +0000";
layers = (
{
background = {
components = (
{
name = v;
}
);
};
guideLines = (
{
angle = 84;
position = "{273, 178}";
}
);
layerId = "7984B694-437B-44C7-A8AE-41A7C9CC5720";
paths = (
{
closed = 1;
nodes = (
"131 455 LINE",
"88 356 OFFCURVE",
"38 242 OFFCURVE",
"38 149 CURVE SMOOTH",
"38 52 OFFCURVE",
"100 -15 OFFCURVE",
"195 -15 CURVE SMOOTH",
"296 -15 OFFCURVE",
"348 51 OFFCURVE",
"378 110 CURVE",
"387 53 OFFCURVE",
"433 -15 OFFCURVE",
"529 -15 CURVE SMOOTH",
"629 -15 OFFCURVE",
"691 59 OFFCURVE",
"729 164 CURVE SMOOTH",
"765 264 OFFCURVE",
"775 392 OFFCURVE",
"769 513 CURVE",
"700 513 LINE",
"705 407 OFFCURVE",
"698 281 OFFCURVE",
"668 188 CURVE SMOOTH",
"642 108 OFFCURVE",
"599 51 OFFCURVE",
"533 51 CURVE SMOOTH",
"449 51 OFFCURVE",
"412 127 OFFCURVE",
"430 233 CURVE SMOOTH",
"477 513 LINE",
"408 513 LINE",
"360 235 LINE SMOOTH",
"342 132 OFFCURVE",
"293 48 OFFCURVE",
"202 48 CURVE SMOOTH",
"102 48 OFFCURVE",
"91 157 OFFCURVE",
"127 265 CURVE SMOOTH",
"209 513 LINE",
"45 513 LINE",
"35 455 LINE"
);
}
);
width = 796;
},
{
background = {
components = (
{
name = v;
transform = "{1, 0, 0, 1, 292, 0}";
}
);
};
layerId = "6F85D940-A117-47EE-950D-70F837F8C9CE";
paths = (
{
closed = 1;
nodes = (
"120 384 LINE",
"56 293 OFFCURVE",
"18 172 OFFCURVE",
"60 91 CURVE SMOOTH",
"91 22 OFFCURVE",
"150 -14 OFFCURVE",
"256 -14 CURVE SMOOTH",
"345 -14 OFFCURVE",
"420 22 OFFCURVE",
"459 74 CURVE",
"475 30 OFFCURVE",
"548 -14 OFFCURVE",
"614 -14 CURVE SMOOTH",
"803 -14 OFFCURVE",
"890 142 OFFCURVE",
"919 304 CURVE SMOOTH",
"931 377 OFFCURVE",
"933 451 OFFCURVE",
"926 513 CURVE",
"749 513 LINE",
"754 450 OFFCURVE",
"754 366 OFFCURVE",
"741 292 CURVE SMOOTH",
"725 203 OFFCURVE",
"691 131 OFFCURVE",
"629 131 CURVE SMOOTH",
"568 131 OFFCURVE",
"558 191 OFFCURVE",
"572 276 CURVE SMOOTH",
"610 513 LINE",
"439 513 LINE",
"399 282 LINE SMOOTH",
"382 181 OFFCURVE",
"347 131 OFFCURVE",
"283 131 CURVE SMOOTH",
"227 131 OFFCURVE",
"207 183 OFFCURVE",
"233 284 CURVE SMOOTH",
"294 513 LINE",
"45 513 LINE",
"23 384 LINE"
);
}
);
width = 936;
}
);
leftKerningGroup = v;
leftMetricsKey = v;
note = " ";
rightKerningGroup = v;
rightMetricsKey = v;
unicode = 0077;
},
{
color = 1;
glyphname = x;
lastChange = "2017-09-09 13:42:18 +0000";
layers = (
{
layerId = "7984B694-437B-44C7-A8AE-41A7C9CC5720";
paths = (
{
closed = 1;
nodes = (
"558 513 LINE",
"475 513 LINE",
"281 319 LINE",
"157 513 LINE",
"76 513 LINE",
"231 268 LINE",
"-46 0 LINE",
"44 0 LINE",
"267 220 LINE",
"410 0 LINE",
"498 0 LINE",
"317 268 LINE"
);
}
);
width = 542;
},
{
layerId = "6F85D940-A117-47EE-950D-70F837F8C9CE";
paths = (
{
closed = 1;
nodes = (
"663 513 LINE",
"451 513 LINE",
"339 394 LINE",
"273 513 LINE",
"71 513 LINE",
"214 268 LINE",
"-55 0 LINE",
"164 0 LINE",
"305 145 LINE",
"390 0 LINE",
"599 0 LINE",
"430 268 LINE"
);
}
);
width = 634;
}
);
rightKerningGroup = x;
unicode = 0078;
},
{
color = 1;
glyphname = y;
lastChange = "2017-09-09 13:43:20 +0000";
layers = (
{
background = {
components = (
{
name = q;
transform = "{1, 0, 0, 1, -17, 0}";
}
);
};
guideLines = (
{
angle = 80;
position = "{497, 54}";
}
);
layerId = "7984B694-437B-44C7-A8AE-41A7C9CC5720";
paths = (
{
closed = 1;
nodes = (
"35 455 LINE",
"131 455 LINE",
"90 355 OFFCURVE",
"58 281 OFFCURVE",
"45 205 CURVE SMOOTH",
"22 71 OFFCURVE",
"79 -15 OFFCURVE",
"205 -15 CURVE SMOOTH",
"299 -15 OFFCURVE",
"361 39 OFFCURVE",
"395 109 CURVE",
"375 -3 LINE SMOOTH",
"358 -100 OFFCURVE",
"318 -160 OFFCURVE",
"237 -193 CURVE SMOOTH",
"164 -224 OFFCURVE",
"67 -212 OFFCURVE",
"-8 -174 CURVE",
"-19 -241 LINE",
"73 -280 OFFCURVE",
"173 -285 OFFCURVE",
"264 -251 CURVE SMOOTH",
"357 -213 OFFCURVE",
"420 -133 OFFCURVE",
"443 -1 CURVE SMOOTH",
"534 513 LINE",
"466 513 LINE",
"429 304 LINE SMOOTH",
"402 153 OFFCURVE",
"327 50 OFFCURVE",
"216 50 CURVE SMOOTH",
"102 50 OFFCURVE",
"90 144 OFFCURVE",
"131 274 CURVE SMOOTH",
"209 513 LINE",
"45 513 LINE"
);
}
);
width = 548;
},
{
background = {
components = (
{
name = v;
transform = "{1, 0, 0, 1, -21, 0}";
}
);
};
guideLines = (
{
alignment = right;
angle = 80;
position = "{170, 202}";
}
);
layerId = "6F85D940-A117-47EE-950D-70F837F8C9CE";
paths = (
{
closed = 1;
nodes = (
"23 385 LINE",
"117 385 LINE",
"53 290 OFFCURVE",
"27 170 OFFCURVE",
"58 94 CURVE SMOOTH",
"87 23 OFFCURVE",
"159 -15 OFFCURVE",
"231 -15 CURVE SMOOTH",
"298 -15 OFFCURVE",
"364 19 OFFCURVE",
"393 90 CURVE",
"383 36 LINE SMOOTH",
"363 -76 OFFCURVE",
"293 -125 OFFCURVE",
"221 -125 CURVE SMOOTH",
"163 -125 OFFCURVE",
"77 -117 OFFCURVE",
"18 -80 CURVE",
"-7 -232 LINE",
"36 -258 OFFCURVE",
"105 -275 OFFCURVE",
"209 -275 CURVE SMOOTH",
"348 -275 OFFCURVE",
"503 -224 OFFCURVE",
"542 -18 CURVE SMOOTH",
"643 513 LINE",
"466 513 LINE",
"423 270 LINE SMOOTH",
"407 176 OFFCURVE",
"365 129 OFFCURVE",
"293 129 CURVE SMOOTH",
"226 129 OFFCURVE",
"207 186 OFFCURVE",
"235 295 CURVE SMOOTH",
"291 513 LINE",
"47 513 LINE"
);
}
);
width = 658;
}
);
leftKerningGroup = v;
leftMetricsKey = v;
rightKerningGroup = v;
unicode = 0079;
},
{
color = 1;
glyphname = z;
lastChange = "2017-07-23 19:52:15 +0000";
layers = (
{
anchors = (
{
name = bottom;
position = "{187, 0}";
},
{
name = top;
position = "{277, 513}";
}
);
layerId = "7984B694-437B-44C7-A8AE-41A7C9CC5720";
paths = (
{
closed = 1;
nodes = (
"68 513 LINE",
"59 455 LINE",
"365 455 LINE",
"-37 26 LINE",
"5 -4 LINE",
"73 57 LINE",
"155 26 LINE SMOOTH",
"233 -4 OFFCURVE",
"266 -11 OFFCURVE",
"303 -11 CURVE SMOOTH",
"339 -11 OFFCURVE",
"373 0 OFFCURVE",
"397 23 CURVE SMOOTH",
"422 47 OFFCURVE",
"436 82 OFFCURVE",
"439 126 CURVE",
"376 128 LINE",
"371 76 OFFCURVE",
"349 53 OFFCURVE",
"310 53 CURVE SMOOTH",
"286 53 OFFCURVE",
"252 59 OFFCURVE",
"184 82 CURVE SMOOTH",
"117 105 LINE",
"487 513 LINE"
);
}
);
width = 463;
},
{
anchors = (
{
name = bottom;
position = "{240, 0}";
},
{
name = top;
position = "{330, 513}";
}
);
layerId = "6F85D940-A117-47EE-950D-70F837F8C9CE";
paths = (
{
closed = 1;
nodes = (
"82 513 LINE",
"59 378 LINE",
"273 378 LINE",
"-27 49 LINE",
"87 -16 LINE",
"160 41 LINE",
"244 10 LINE SMOOTH",
"291 -7 OFFCURVE",
"338 -19 OFFCURVE",
"380 -15 CURVE SMOOTH",
"452 -8 OFFCURVE",
"495 12 OFFCURVE",
"521 78 CURVE SMOOTH",
"533 110 OFFCURVE",
"540 148 OFFCURVE",
"546 192 CURVE",
"394 192 LINE",
"389 158 OFFCURVE",
"380 137 OFFCURVE",
"364 129 CURVE SMOOTH",
"352 122 OFFCURVE",
"337 122 OFFCURVE",
"316 128 CURVE SMOOTH",
"245 148 LINE",
"586 513 LINE"
);
}
);
width = 563;
}
);
leftKerningGroup = z;
rightKerningGroup = d;
unicode = 007A;
},
{
glyphname = f_f;
lastChange = "2017-09-09 13:27:25 +0000";
layers = (
{
background = {
paths = (
{
closed = 1;
nodes = (
"21 378 LINE",
"105 378 LINE",
"-8 -264 LINE",
"170 -264 LINE",
"283 378 LINE",
"391 378 LINE",
"414 513 LINE",
"306 513 LINE",
"326 624 LINE SMOOTH",
"339 695 OFFCURVE",
"378 718 OFFCURVE",
"407 718 CURVE SMOOTH",
"426 718 OFFCURVE",
"450 718 OFFCURVE",
"459 717 CURVE",
"486 870 LINE",
"464 873 OFFCURVE",
"442 875 OFFCURVE",
"420 875 CURVE SMOOTH",
"276 875 OFFCURVE",
"176 784 OFFCURVE",
"152 645 CURVE SMOOTH",
"129 513 LINE",
"45 513 LINE"
);
}
);
};
layerId = "6F85D940-A117-47EE-950D-70F837F8C9CE";
paths = (
{
closed = 1;
nodes = (
"105 378 LINE",
"38 0 LINE",
"216 0 LINE",
"282.635 378 LINE",
"463 378 LINE",
"350 -260 LINE",
"528 -260 LINE",
"640.588 378 LINE",
"749 378 LINE",
"772 513 LINE",
"664 513 LINE",
"684 624 LINE SMOOTH",
"697 695 OFFCURVE",
"736 718 OFFCURVE",
"765 718 CURVE SMOOTH",
"784 718 OFFCURVE",
"808 718 OFFCURVE",
"817 718 CURVE",
"844 870 LINE",
"829 872 OFFCURVE",
"806 875 OFFCURVE",
"779 875 CURVE SMOOTH",
"637 875 OFFCURVE",
"535 786 OFFCURVE",
"510 645 CURVE SMOOTH",
"487 513 LINE",
"306.433 513 LINE",
"326 624 LINE SMOOTH",
"339 695 OFFCURVE",
"378 718 OFFCURVE",
"407 718 CURVE SMOOTH",
"426 718 OFFCURVE",
"450 718 OFFCURVE",
"459 718 CURVE",
"486 870 LINE",
"471 872 OFFCURVE",
"448 875 OFFCURVE",
"421 875 CURVE SMOOTH",
"279 875 OFFCURVE",
"177 786 OFFCURVE",
"152 645 CURVE SMOOTH",
"129 513 LINE",
"45 513 LINE",
"21 378 LINE"
);
}
);
width = 733;
},
{
background = {
components = (
{
name = f;
transform = "{1, 0, 0, 1, -1, 0}";
}
);
};
layerId = "7984B694-437B-44C7-A8AE-41A7C9CC5720";
paths = (
{
closed = 1;
nodes = (
"149 455 LINE",
"70 0 LINE",
"137 0 LINE",
"216 455 LINE",
"438 456 LINE",
"313 -260 LINE",
"380 -260 LINE",
"505 456 LINE",
"656 456 LINE",
"666 513 LINE",
"515 513 LINE",
"533 615 LINE SMOOTH",
"553 732 OFFCURVE",
"589 816 OFFCURVE",
"678 816 CURVE SMOOTH",
"693 816 OFFCURVE",
"711 814 OFFCURVE",
"731 811 CURVE",
"741 871 LINE",
"727 874 OFFCURVE",
"709 876 OFFCURVE",
"689 876 CURVE SMOOTH",
"565 876 OFFCURVE",
"494 776 OFFCURVE",
"471 644 CURVE SMOOTH",
"448 513 LINE",
"227 513 LINE",
"245 615 LINE SMOOTH",
"276 787 OFFCURVE",
"335 816 OFFCURVE",
"387 816 CURVE SMOOTH",
"415 816 OFFCURVE",
"425 815 OFFCURVE",
"444 811 CURVE",
"454 871 LINE",
"443 873 OFFCURVE",
"429 876 OFFCURVE",
"397 876 CURVE SMOOTH",
"307 876 OFFCURVE",
"215 812 OFFCURVE",
"184 644 CURVE SMOOTH",
"160 513 LINE",
"46 513 LINE",
"35 455 LINE"
);
}
);
width = 623;
}
);
leftMetricsKey = f;
rightKerningGroup = d;
rightMetricsKey = f;
unicode = FB00;
},
{
color = 3;
glyphname = f_f_i;
lastChange = "2017-09-09 13:32:11 +0000";
layers = (
{
layerId = "6F85D940-A117-47EE-950D-70F837F8C9CE";
paths = (
{
closed = 1;
nodes = (
"105 378 LINE",
"38 0 LINE",
"216 0 LINE",
"282.635 378 LINE",
"463 378 LINE",
"350 -264 LINE",
"528 -264 LINE",
"641 378 LINE",
"804 378 LINE",
"738 0 LINE",
"915 0 LINE",
"1005 513 LINE",
"664 513 LINE",
"684 624 LINE SMOOTH",
"697 695 OFFCURVE",
"736 713 OFFCURVE",
"765 718 CURVE SMOOTH",
"804 725 OFFCURVE",
"843 715 OFFCURVE",
"889 673 CURVE",
"971 792 LINE",
"954 825 OFFCURVE",
"886 880 OFFCURVE",
"767 875 CURVE SMOOTH",
"651 870 OFFCURVE",
"536 795 OFFCURVE",
"510 645 CURVE SMOOTH",
"487 513 LINE",
"306.433 513 LINE",
"326 624 LINE SMOOTH",
"339 695 OFFCURVE",
"378 718 OFFCURVE",
"407 718 CURVE SMOOTH",
"426 718 OFFCURVE",
"450 718 OFFCURVE",
"459 718 CURVE",
"486 870 LINE",
"471 872 OFFCURVE",
"448 875 OFFCURVE",
"421 875 CURVE SMOOTH",
"279 875 OFFCURVE",
"177 786 OFFCURVE",
"152 645 CURVE SMOOTH",
"129 513 LINE",
"45 513 LINE",
"21 378 LINE"
);
}
);
width = 1000;
},
{
background = {
components = (
{
name = i;
transform = "{1, 0, 0, 1, 635, 0}";
}
);
};
layerId = "7984B694-437B-44C7-A8AE-41A7C9CC5720";
paths = (
{
closed = 1;
nodes = (
"149 455 LINE",
"70 0 LINE",
"137 0 LINE",
"216 455 LINE",
"438 456 LINE",
"313 -260 LINE",
"380 -260 LINE",
"505 456 LINE",
"729 456 LINE",
"649 0 LINE",
"716 0 LINE",
"806 513 LINE",
"515 513 LINE",
"533 615 LINE SMOOTH",
"553 732 OFFCURVE",
"593 819 OFFCURVE",
"682 819 CURVE SMOOTH",
"733 819 OFFCURVE",
"762 793 OFFCURVE",
"778 755 CURVE",
"825 796 LINE",
"811 827 OFFCURVE",
"769 876 OFFCURVE",
"689 876 CURVE SMOOTH",
"565 876 OFFCURVE",
"494 776 OFFCURVE",
"471 644 CURVE SMOOTH",
"448 513 LINE",
"227 513 LINE",
"245 615 LINE SMOOTH",
"276 787 OFFCURVE",
"335 816 OFFCURVE",
"387 816 CURVE SMOOTH",
"415 816 OFFCURVE",
"426 815 OFFCURVE",
"445 811 CURVE",
"454 871 LINE",
"443 873 OFFCURVE",
"429 876 OFFCURVE",
"397 876 CURVE SMOOTH",
"307 876 OFFCURVE",
"215 812 OFFCURVE",
"184 644 CURVE SMOOTH",
"160 513 LINE",
"46 513 LINE",
"35 455 LINE"
);
}
);
width = 802;
}
);
leftKerningGroup = f;
leftMetricsKey = f;
rightKerningGroup = d;
rightMetricsKey = i;
unicode = FB03;
},
{
color = 3;
glyphname = f_f_j;
lastChange = "2017-09-09 13:27:25 +0000";
layers = (
{
background = {
paths = (
{
closed = 1;
nodes = (
"21 378 LINE",
"105 378 LINE",
"-5 -260 LINE",
"173 -260 LINE",
"283 378 LINE",
"391 378 LINE",
"414 513 LINE",
"306 513 LINE",
"326 624 LINE SMOOTH",
"339 695 OFFCURVE",
"378 718 OFFCURVE",
"407 718 CURVE SMOOTH",
"426 718 OFFCURVE",
"450 718 OFFCURVE",
"459 717 CURVE",
"486 870 LINE",
"486 870 OFFCURVE",
"494 875 OFFCURVE",
"409 875 CURVE SMOOTH",
"293 875 OFFCURVE",
"178 795 OFFCURVE",
"152 645 CURVE SMOOTH",
"129 513 LINE",
"45 513 LINE"
);
},
{
closed = 1;
nodes = (
"580 0 LINE",
"641 378 LINE",
"749 378 LINE",
"772 513 LINE",
"664 513 LINE",
"684 624 LINE SMOOTH",
"697 695 OFFCURVE",
"736 713 OFFCURVE",
"765 718 CURVE SMOOTH",
"804 725 OFFCURVE",
"843 715 OFFCURVE",
"889 673 CURVE",
"971 792 LINE",
"954 825 OFFCURVE",
"886 880 OFFCURVE",
"767 875 CURVE SMOOTH",
"651 870 OFFCURVE",
"536 795 OFFCURVE",
"510 645 CURVE SMOOTH",
"487 513 LINE",
"403 513 LINE",
"379 378 LINE",
"463 378 LINE",
"402 0 LINE"
);
},
{
closed = 1;
nodes = (
"595 -274 OFFCURVE",
"634 -277 OFFCURVE",
"678 -275 CURVE SMOOTH",
"821 -269 OFFCURVE",
"886 -167 OFFCURVE",
"902 -76 CURVE SMOOTH",
"1006 513 LINE",
"679 513 LINE",
"655 378 LINE",
"805.658 378 LINE",
"732 -48 LINE SMOOTH",
"724 -96 OFFCURVE",
"702 -114 OFFCURVE",
"675 -115 CURVE SMOOTH",
"650 -116 OFFCURVE",
"606 -116 OFFCURVE",
"607 -116 CURVE",
"574 -272 LINE"
);
}
);
};
layerId = "6F85D940-A117-47EE-950D-70F837F8C9CE";
paths = (
{
closed = 1;
nodes = (
"170 -260 LINE",
"282.588 378 LINE",
"463 378 LINE",
"402 0 LINE",
"580 0 LINE",
"641 378 LINE",
"806 378 LINE",
"732 -48 LINE SMOOTH",
"724 -96 OFFCURVE",
"702 -114 OFFCURVE",
"675 -115 CURVE SMOOTH",
"650 -116 OFFCURVE",
"606 -116 OFFCURVE",
"607 -116 CURVE",
"574 -272 LINE",
"595 -274 OFFCURVE",
"634 -277 OFFCURVE",
"678 -275 CURVE SMOOTH",
"821 -269 OFFCURVE",
"886 -167 OFFCURVE",
"902 -76 CURVE SMOOTH",
"1006 513 LINE",
"664 513 LINE",
"684 624 LINE SMOOTH",
"697 695 OFFCURVE",
"736 713 OFFCURVE",
"765 718 CURVE SMOOTH",
"804 725 OFFCURVE",
"843 715 OFFCURVE",
"889 673 CURVE",
"971 792 LINE",
"954 825 OFFCURVE",
"886 880 OFFCURVE",
"767 875 CURVE SMOOTH",
"651 870 OFFCURVE",
"536 795 OFFCURVE",
"510 645 CURVE SMOOTH",
"487 513 LINE",
"306.412 513 LINE",
"326 624 LINE SMOOTH",
"339 695 OFFCURVE",
"378 718 OFFCURVE",
"407 718 CURVE SMOOTH",
"426 718 OFFCURVE",
"450 718 OFFCURVE",
"459 718 CURVE",
"486 870 LINE",
"471 872 OFFCURVE",
"448 875 OFFCURVE",
"421 875 CURVE SMOOTH",
"279 875 OFFCURVE",
"177 786 OFFCURVE",
"152 645 CURVE SMOOTH",
"129 513 LINE",
"45 513 LINE",
"21 378 LINE",
"105 378 LINE",
"-8 -260 LINE"
);
}
);
width = 1002;
},
{
layerId = "7984B694-437B-44C7-A8AE-41A7C9CC5720";
paths = (
{
closed = 1;
nodes = (
"94 -260 LINE",
"216 455 LINE",
"438 456 LINE",
"358 0 LINE",
"425 0 LINE",
"505 456 LINE",
"718 456 LINE",
"630 -47 LINE SMOOTH",
"607 -168 OFFCURVE",
"592 -214 OFFCURVE",
"517 -214 CURVE SMOOTH",
"498 -214 OFFCURVE",
"490 -214 OFFCURVE",
"464 -210 CURVE",
"451 -270 LINE",
"476 -275 OFFCURVE",
"485 -275 OFFCURVE",
"504 -275 CURVE SMOOTH",
"626 -275 OFFCURVE",
"670 -199 OFFCURVE",
"692 -74 CURVE SMOOTH",
"796 513 LINE",
"515 513 LINE",
"533 615 LINE SMOOTH",
"553 732 OFFCURVE",
"593 819 OFFCURVE",
"682 819 CURVE SMOOTH",
"733 819 OFFCURVE",
"762 793 OFFCURVE",
"778 755 CURVE",
"825 796 LINE",
"811 827 OFFCURVE",
"769 876 OFFCURVE",
"689 876 CURVE SMOOTH",
"565 876 OFFCURVE",
"494 776 OFFCURVE",
"471 644 CURVE SMOOTH",
"448 513 LINE",
"227 513 LINE",
"245 615 LINE SMOOTH",
"276 787 OFFCURVE",
"335 816 OFFCURVE",
"387 816 CURVE SMOOTH",
"415 816 OFFCURVE",
"426 815 OFFCURVE",
"445 811 CURVE",
"454 871 LINE",
"443 873 OFFCURVE",
"429 876 OFFCURVE",
"397 876 CURVE SMOOTH",
"307 876 OFFCURVE",
"215 812 OFFCURVE",
"184 644 CURVE SMOOTH",
"160 513 LINE",
"46 513 LINE",
"35 455 LINE",
"149 455 LINE",
"27 -260 LINE"
);
}
);
width = 790;
},
{
associatedMasterId = "7984B694-437B-44C7-A8AE-41A7C9CC5720";
layerId = "A4E552E4-62BE-43BB-A58F-34F0EE3B77B8";
paths = (
{
closed = 1;
nodes = (
"943 -275 OFFCURVE",
"987 -170 OFFCURVE",
"987 -79 CURVE SMOOTH",
"987 513 LINE",
"642 513 LINE",
"642 617 LINE SMOOTH",
"642 688 OFFCURVE",
"658 719 OFFCURVE",
"728 719 CURVE SMOOTH",
"781 719 OFFCURVE",
"845 667 OFFCURVE",
"845 667 CURVE",
"907 792 LINE",
"907 792 OFFCURVE",
"814 875 OFFCURVE",
"676 875 CURVE SMOOTH",
"536 875 OFFCURVE",
"466 772 OFFCURVE",
"465 622 CURVE SMOOTH",
"465 513 LINE",
"287 513 LINE",
"287 617 LINE SMOOTH",
"287 688 OFFCURVE",
"297 718 OFFCURVE",
"342 718 CURVE SMOOTH",
"371 718 OFFCURVE",
"395 704 OFFCURVE",
"395 704 CURVE",
"457 829 LINE",
"457 829 OFFCURVE",
"401 875 OFFCURVE",
"311 875 CURVE SMOOTH",
"183 875 OFFCURVE",
"111 772 OFFCURVE",
"110 622 CURVE SMOOTH",
"110 513 LINE",
"36 513 LINE",
"36 378 LINE",
"110 378 LINE",
"110 0 LINE",
"287 0 LINE",
"287 378 LINE",
"465 378 LINE",
"465 0 LINE",
"642 0 LINE",
"642 378 LINE",
"810 378 LINE",
"810 -45 LINE SMOOTH",
"810 -93 OFFCURVE",
"791 -115 OFFCURVE",
"761 -115 CURVE SMOOTH",
"739 -115 OFFCURVE",
"716 -100 OFFCURVE",
"716 -100 CURVE",
"661 -243 LINE",
"686 -254 OFFCURVE",
"718 -275 OFFCURVE",
"802 -275 CURVE SMOOTH"
);
}
);
width = 1047;
},
{
associatedMasterId = "7984B694-437B-44C7-A8AE-41A7C9CC5720";
layerId = "7B60DD57-6012-4D0F-BD38-A72A4BAC0E9D";
paths = (
{
closed = 1;
nodes = (
"756 -275 OFFCURVE",
"784 -180 OFFCURVE",
"784 -79 CURVE SMOOTH",
"784 513 LINE",
"503 513 LINE",
"503 617 LINE SMOOTH",
"503 768 OFFCURVE",
"564 813 OFFCURVE",
"611 813 CURVE SMOOTH",
"710 813 OFFCURVE",
"727 743 OFFCURVE",
"727 743 CURVE",
"763 796 LINE",
"763 796 OFFCURVE",
"725 875 OFFCURVE",
"612 875 CURVE SMOOTH",
"531 875 OFFCURVE",
"436 802 OFFCURVE",
"436 642 CURVE SMOOTH",
"436 513 LINE",
"216 513 LINE",
"216 617 LINE SMOOTH",
"216 768 OFFCURVE",
"267 813 OFFCURVE",
"314 813 CURVE SMOOTH",
"363 813 OFFCURVE",
"386 783 OFFCURVE",
"386 783 CURVE",
"412 847 LINE",
"412 847 OFFCURVE",
"378 875 OFFCURVE",
"315 875 CURVE SMOOTH",
"234 875 OFFCURVE",
"149 802 OFFCURVE",
"149 642 CURVE SMOOTH",
"149 513 LINE",
"35 513 LINE",
"35 448 LINE",
"149 448 LINE",
"149 0 LINE",
"216 0 LINE",
"216 448 LINE",
"436 448 LINE",
"436 0 LINE",
"503 0 LINE",
"503 448 LINE",
"716 448 LINE",
"716 -45 LINE SMOOTH",
"716 -143 OFFCURVE",
"707 -213 OFFCURVE",
"647 -213 CURVE SMOOTH",
"605 -213 OFFCURVE",
"588 -190 OFFCURVE",
"588 -190 CURVE",
"558 -253 LINE",
"561 -255 OFFCURVE",
"595 -275 OFFCURVE",
"649 -275 CURVE SMOOTH"
);
}
);
width = 855;
}
);
leftMetricsKey = f;
rightKerningGroup = d;
rightMetricsKey = j;
},
{
color = 3;
glyphname = f_f_l;
lastChange = "2017-09-24 14:34:25 +0000";
layers = (
{
layerId = "6F85D940-A117-47EE-950D-70F837F8C9CE";
paths = (
{
closed = 1;
nodes = (
"909 0 LINE",
"1060 860 LINE",
"883 860 LINE",
"732 0 LINE"
);
},
{
closed = 1;
nodes = (
"21 378 LINE",
"105 378 LINE",
"38 0 LINE",
"216 0 LINE",
"283 378 LINE",
"463 378 LINE",
"350 -260 LINE",
"528 -260 LINE",
"641 378 LINE",
"749 378 LINE",
"772 513 LINE",
"664 513 LINE",
"684 624 LINE SMOOTH",
"699 704 OFFCURVE",
"752 737 OFFCURVE",
"809 737 CURVE SMOOTH",
"843 737 OFFCURVE",
"879 735 OFFCURVE",
"909 723 CURVE",
"1060 860 LINE",
"1008 867 OFFCURVE",
"920 877 OFFCURVE",
"836 877 CURVE SMOOTH",
"657 877 OFFCURVE",
"540 820 OFFCURVE",
"510 645 CURVE SMOOTH",
"487 513 LINE",
"306 513 LINE",
"326 624 LINE SMOOTH",
"339 695 OFFCURVE",
"378 718 OFFCURVE",
"407 718 CURVE SMOOTH",
"426 718 OFFCURVE",
"450 718 OFFCURVE",
"459 718 CURVE",
"486 870 LINE",
"471 872 OFFCURVE",
"448 875 OFFCURVE",
"421 875 CURVE SMOOTH",
"279 875 OFFCURVE",
"177 786 OFFCURVE",
"152 645 CURVE SMOOTH",
"129 513 LINE",
"45 513 LINE"
);
}
);
width = 1014;
},
{
background = {
paths = (
{
closed = 1;
nodes = (
"706 0 LINE",
"856 860 LINE",
"788 860 LINE",
"638 0 LINE"
);
},
{
closed = 1;
nodes = (
"313 -260 LINE",
"380 -260 LINE",
"505 456 LINE",
"656 456 LINE",
"666 513 LINE",
"515 513 LINE",
"533 615 LINE SMOOTH",
"558 756 OFFCURVE",
"592 823 OFFCURVE",
"716 823 CURVE SMOOTH",
"743 823 OFFCURVE",
"768 819 OFFCURVE",
"782 812 CURVE",
"856 860 LINE",
"827 870 OFFCURVE",
"779 879 OFFCURVE",
"728 879 CURVE SMOOTH",
"571 879 OFFCURVE",
"498 800 OFFCURVE",
"471 644 CURVE SMOOTH",
"448 513 LINE",
"196 513 LINE",
"186 456 LINE",
"438 456 LINE"
);
}
);
};
layerId = "7984B694-437B-44C7-A8AE-41A7C9CC5720";
paths = (
{
closed = 1;
nodes = (
"706 0 LINE",
"856 860 LINE",
"788 860 LINE",
"638 0 LINE"
);
},
{
closed = 1;
nodes = (
"35 455 LINE",
"149 455 LINE",
"70 0 LINE",
"137 0 LINE",
"216.175 456 LINE",
"438 456 LINE",
"313 -260 LINE",
"380 -260 LINE",
"505 456 LINE",
"656 456 LINE",
"666 513 LINE",
"515 513 LINE",
"533 615 LINE SMOOTH",
"558 756 OFFCURVE",
"592 823 OFFCURVE",
"716 823 CURVE SMOOTH",
"743 823 OFFCURVE",
"768 822 OFFCURVE",
"782 815 CURVE",
"856 860 LINE",
"827 870 OFFCURVE",
"779 879 OFFCURVE",
"728 879 CURVE SMOOTH",
"571 879 OFFCURVE",
"498 800 OFFCURVE",
"471 644 CURVE SMOOTH",
"448 513 LINE",
"227 513 LINE",
"245 615 LINE SMOOTH",
"276 787 OFFCURVE",
"335 816 OFFCURVE",
"387 816 CURVE SMOOTH",
"415 816 OFFCURVE",
"426 815 OFFCURVE",
"445 811 CURVE",
"454 871 LINE",
"443 873 OFFCURVE",
"429 876 OFFCURVE",
"397 876 CURVE SMOOTH",
"307 876 OFFCURVE",
"215 812 OFFCURVE",
"184 644 CURVE SMOOTH",
"160 513 LINE",
"46 513 LINE"
);
}
);
width = 811;
}
);
leftMetricsKey = f;
rightKerningGroup = d;
rightMetricsKey = l;
unicode = FB04;
},
{
color = 3;
glyphname = f_f_t;
lastChange = "2017-09-24 14:33:05 +0000";
layers = (
{
layerId = "6F85D940-A117-47EE-950D-70F837F8C9CE";
paths = (
{
closed = 1;
nodes = (
"870 704 LINE",
"837 513 LINE",
"664 513 LINE",
"684 624 LINE SMOOTH",
"697 695 OFFCURVE",
"736 718 OFFCURVE",
"765 718 CURVE SMOOTH",
"782 718 OFFCURVE",
"800 718 OFFCURVE",
"817 718 CURVE",
"844 870 LINE",
"829 872 OFFCURVE",
"806 875 OFFCURVE",
"779 875 CURVE SMOOTH",
"637 875 OFFCURVE",
"535 786 OFFCURVE",
"510 645 CURVE SMOOTH",
"487 513 LINE",
"306 513 LINE",
"326 624 LINE SMOOTH",
"339 695 OFFCURVE",
"378 718 OFFCURVE",
"407 718 CURVE SMOOTH",
"424 718 OFFCURVE",
"442 718 OFFCURVE",
"459 718 CURVE",
"486 870 LINE",
"471 872 OFFCURVE",
"448 875 OFFCURVE",
"421 875 CURVE SMOOTH",
"279 875 OFFCURVE",
"177 786 OFFCURVE",
"152 645 CURVE SMOOTH",
"129 513 LINE",
"45 513 LINE",
"21 378 LINE",
"105 378 LINE",
"38 0 LINE",
"216 0 LINE",
"283 378 LINE",
"463 378 LINE",
"350 -260 LINE",
"528 -260 LINE",
"641 378 LINE",
"813 378 LINE",
"778 184 LINE SMOOTH",
"763 93 OFFCURVE",
"781 -15 OFFCURVE",
"925 -15 CURVE SMOOTH",
"977 -15 OFFCURVE",
"1007 -11 OFFCURVE",
"1043 0 CURVE",
"1064 143 LINE",
"1064 143 OFFCURVE",
"1010 143 OFFCURVE",
"985 144 CURVE SMOOTH",
"959 145 OFFCURVE",
"954 164 OFFCURVE",
"962 212 CURVE SMOOTH",
"991 378 LINE",
"1099 378 LINE",
"1122 513 LINE",
"1014 513 LINE",
"1048 704 LINE"
);
}
);
width = 1104;
},
{
background = {
components = (
{
name = f;
transform = "{1, 0, 0, 1, 286, 0}";
},
{
name = t;
transform = "{1, 0, 0, 1, 612, 0}";
}
);
paths = (
{
closed = 1;
nodes = (
"137 0 LINE",
"216 455 LINE",
"436 455 LINE",
"447 513 LINE",
"227 513 LINE",
"245 615 LINE SMOOTH",
"276 787 OFFCURVE",
"335 816 OFFCURVE",
"387 816 CURVE SMOOTH",
"415 816 OFFCURVE",
"426 815 OFFCURVE",
"445 811 CURVE",
"454 871 LINE",
"443 873 OFFCURVE",
"429 876 OFFCURVE",
"397 876 CURVE SMOOTH",
"307 876 OFFCURVE",
"215 812 OFFCURVE",
"184 644 CURVE SMOOTH",
"160 513 LINE",
"46 513 LINE",
"35 455 LINE",
"149 455 LINE",
"70 0 LINE"
);
}
);
};
layerId = "7984B694-437B-44C7-A8AE-41A7C9CC5720";
paths = (
{
closed = 1;
nodes = (
"780 704 LINE",
"747 513 LINE",
"515 513 LINE",
"533 615 LINE SMOOTH",
"554 732 OFFCURVE",
"589 816 OFFCURVE",
"678 816 CURVE SMOOTH",
"693 816 OFFCURVE",
"712 814 OFFCURVE",
"732 811 CURVE",
"741 871 LINE",
"727 874 OFFCURVE",
"709 876 OFFCURVE",
"689 876 CURVE SMOOTH",
"565 876 OFFCURVE",
"494 776 OFFCURVE",
"471 644 CURVE SMOOTH",
"448 513 LINE",
"227 513 LINE",
"245 615 LINE SMOOTH",
"276 787 OFFCURVE",
"335 816 OFFCURVE",
"387 816 CURVE SMOOTH",
"415 816 OFFCURVE",
"426 815 OFFCURVE",
"445 811 CURVE",
"454 871 LINE",
"443 873 OFFCURVE",
"429 876 OFFCURVE",
"397 876 CURVE SMOOTH",
"307 876 OFFCURVE",
"215 812 OFFCURVE",
"184 644 CURVE SMOOTH",
"160 513 LINE",
"46 513 LINE",
"35 455 LINE",
"149 455 LINE",
"70 0 LINE",
"137 0 LINE",
"216 455 LINE",
"438 455 LINE",
"313 -260 LINE",
"380 -260 LINE",
"505 456 LINE",
"737 456 LINE",
"685 163 LINE SMOOTH",
"669 73 OFFCURVE",
"670 -11 OFFCURVE",
"774 -14 CURVE SMOOTH",
"809 -15 OFFCURVE",
"834 -8 OFFCURVE",
"858 -2 CURVE",
"865 49 LINE",
"815 40 OFFCURVE",
"773 37 OFFCURVE",
"758 56 CURVE SMOOTH",
"746 70 OFFCURVE",
"742 97 OFFCURVE",
"750 142 CURVE SMOOTH",
"804 456 LINE",
"942 456 LINE",
"952 513 LINE",
"815 513 LINE",
"848 704 LINE"
);
}
);
width = 907;
}
);
leftMetricsKey = f;
rightKerningGroup = d;
rightMetricsKey = t;
},
{
color = 3;
glyphname = f_j;
lastChange = "2017-09-09 13:27:25 +0000";
layers = (
{
layerId = "6F85D940-A117-47EE-950D-70F837F8C9CE";
paths = (
{
closed = 1;
nodes = (
"105 378 LINE",
"44 0 LINE",
"222 0 LINE",
"283 378 LINE",
"448 378 LINE",
"374 -48 LINE SMOOTH",
"366 -96 OFFCURVE",
"344 -114 OFFCURVE",
"317 -115 CURVE SMOOTH",
"292 -116 OFFCURVE",
"248 -116 OFFCURVE",
"249 -116 CURVE",
"216 -272 LINE",
"237 -274 OFFCURVE",
"276 -277 OFFCURVE",
"320 -275 CURVE SMOOTH",
"463 -269 OFFCURVE",
"528 -167 OFFCURVE",
"544 -76 CURVE SMOOTH",
"648 513 LINE",
"306 513 LINE",
"326 624 LINE SMOOTH",
"339 695 OFFCURVE",
"378 713 OFFCURVE",
"407 718 CURVE SMOOTH",
"446 725 OFFCURVE",
"485 715 OFFCURVE",
"531 673 CURVE",
"613 792 LINE",
"596 825 OFFCURVE",
"528 880 OFFCURVE",
"409 875 CURVE SMOOTH",
"293 870 OFFCURVE",
"178 795 OFFCURVE",
"152 645 CURVE SMOOTH",
"129 513 LINE",
"45 513 LINE",
"21 378 LINE"
);
}
);
width = 644;
},
{
layerId = "7984B694-437B-44C7-A8AE-41A7C9CC5720";
paths = (
{
closed = 1;
nodes = (
"149 456 LINE",
"69 0 LINE",
"136 0 LINE",
"216 456 LINE",
"409 456 LINE",
"321 -47 LINE SMOOTH",
"300 -168 OFFCURVE",
"283 -214 OFFCURVE",
"208 -214 CURVE SMOOTH",
"189 -214 OFFCURVE",
"181 -214 OFFCURVE",
"155 -210 CURVE",
"142 -270 LINE",
"167 -275 OFFCURVE",
"176 -275 OFFCURVE",
"195 -275 CURVE SMOOTH",
"317 -275 OFFCURVE",
"361 -199 OFFCURVE",
"383 -74 CURVE SMOOTH",
"487 513 LINE",
"226 513 LINE",
"244 615 LINE SMOOTH",
"265 732 OFFCURVE",
"296 819 OFFCURVE",
"385 819 CURVE SMOOTH",
"436 819 OFFCURVE",
"465 793 OFFCURVE",
"481 755 CURVE",
"528 796 LINE",
"514 827 OFFCURVE",
"472 876 OFFCURVE",
"392 876 CURVE SMOOTH",
"268 876 OFFCURVE",
"205 776 OFFCURVE",
"182 644 CURVE SMOOTH",
"159 513 LINE",
"45 513 LINE",
"35 456 LINE"
);
}
);
width = 481;
}
);
leftMetricsKey = f;
rightKerningGroup = d;
rightMetricsKey = j;
},
{
color = 3;
glyphname = f_t;
lastChange = "2017-09-24 14:33:05 +0000";
layers = (
{
layerId = "6F85D940-A117-47EE-950D-70F837F8C9CE";
paths = (
{
closed = 1;
nodes = (
"171 -260 LINE",
"283 378 LINE",
"446 378 LINE",
"411 184 LINE SMOOTH",
"395 93 OFFCURVE",
"414 -15 OFFCURVE",
"558 -15 CURVE SMOOTH",
"610 -15 OFFCURVE",
"640 -11 OFFCURVE",
"676 0 CURVE",
"697 143 LINE",
"697 143 OFFCURVE",
"643 143 OFFCURVE",
"618 144 CURVE SMOOTH",
"592 145 OFFCURVE",
"587 164 OFFCURVE",
"595 212 CURVE SMOOTH",
"624 378 LINE",
"732 378 LINE",
"755 513 LINE",
"647 513 LINE",
"681 704 LINE",
"503 704 LINE",
"470 513 LINE",
"306 513 LINE",
"326 624 LINE SMOOTH",
"339 695 OFFCURVE",
"378 718 OFFCURVE",
"407 718 CURVE SMOOTH",
"426 718 OFFCURVE",
"450 718 OFFCURVE",
"459 718 CURVE",
"486 870 LINE",
"464 873 OFFCURVE",
"442 875 OFFCURVE",
"420 875 CURVE SMOOTH",
"276 875 OFFCURVE",
"176 784 OFFCURVE",
"152 645 CURVE SMOOTH",
"129 513 LINE",
"45 513 LINE",
"21 378 LINE",
"105 378 LINE",
"-7 -260 LINE"
);
}
);
width = 737;
},
{
background = {
components = (
{
name = f;
transform = "{1, 0, 0, 1, -3, 0}";
},
{
name = t;
transform = "{1, 0, 0, 1, 294, 0}";
}
);
};
layerId = "7984B694-437B-44C7-A8AE-41A7C9CC5720";
paths = (
{
closed = 1;
nodes = (
"91 -260 LINE",
"216 456 LINE",
"420 456 LINE",
"368 163 LINE SMOOTH",
"352 73 OFFCURVE",
"353 -11 OFFCURVE",
"457 -14 CURVE SMOOTH",
"492 -15 OFFCURVE",
"517 -8 OFFCURVE",
"541 -2 CURVE",
"548 49 LINE",
"498 40 OFFCURVE",
"457 38 OFFCURVE",
"441 56 CURVE SMOOTH",
"429 70 OFFCURVE",
"425 97 OFFCURVE",
"433 142 CURVE SMOOTH",
"487 456 LINE",
"625 456 LINE",
"635 513 LINE",
"498 513 LINE",
"531 704 LINE",
"463 704 LINE",
"430 513 LINE",
"226 513 LINE",
"244 615 LINE SMOOTH",
"264 732 OFFCURVE",
"300 816 OFFCURVE",
"389 816 CURVE SMOOTH",
"404 816 OFFCURVE",
"423 814 OFFCURVE",
"443 811 CURVE",
"452 871 LINE",
"438 874 OFFCURVE",
"420 876 OFFCURVE",
"400 876 CURVE SMOOTH",
"276 876 OFFCURVE",
"205 776 OFFCURVE",
"182 644 CURVE SMOOTH",
"159 513 LINE",
"45 513 LINE",
"35 456 LINE",
"149 456 LINE",
"24 -260 LINE"
);
}
);
width = 590;
}
);
leftMetricsKey = f;
rightKerningGroup = d;
rightMetricsKey = t;
},
{
color = 3;
glyphname = fi;
lastChange = "2017-09-09 11:05:24 +0000";
layers = (
{
layerId = "6F85D940-A117-47EE-950D-70F837F8C9CE";
paths = (
{
closed = 1;
nodes = (
"170 -264 LINE",
"283 378 LINE",
"446 378 LINE",
"380 0 LINE",
"557 0 LINE",
"647 513 LINE",
"306 513 LINE",
"326 624 LINE SMOOTH",
"339 695 OFFCURVE",
"378 713 OFFCURVE",
"407 718 CURVE SMOOTH",
"446 725 OFFCURVE",
"485 715 OFFCURVE",
"531 673 CURVE",
"613 792 LINE",
"596 825 OFFCURVE",
"528 880 OFFCURVE",
"409 875 CURVE SMOOTH",
"293 870 OFFCURVE",
"178 795 OFFCURVE",
"152 645 CURVE SMOOTH",
"129 513 LINE",
"45 513 LINE",
"21 378 LINE",
"105 378 LINE",
"-8 -264 LINE"
);
}
);
width = 642;
},
{
layerId = "7984B694-437B-44C7-A8AE-41A7C9CC5720";
paths = (
{
closed = 1;
nodes = (
"91 -260 LINE",
"216 456 LINE",
"398 456 LINE",
"318 0 LINE",
"385 0 LINE",
"475 513 LINE",
"226 513 LINE",
"244 615 LINE SMOOTH",
"265 732 OFFCURVE",
"296 819 OFFCURVE",
"385 819 CURVE SMOOTH",
"436 819 OFFCURVE",
"465 793 OFFCURVE",
"481 755 CURVE",
"528 796 LINE",
"514 827 OFFCURVE",
"472 876 OFFCURVE",
"392 876 CURVE SMOOTH",
"268 876 OFFCURVE",
"205 776 OFFCURVE",
"182 644 CURVE SMOOTH",
"159 513 LINE",
"45 513 LINE",
"35 456 LINE",
"149 456 LINE",
"24 -260 LINE"
);
}
);
width = 474;
}
);
leftMetricsKey = f;
rightKerningGroup = d;
rightMetricsKey = i;
unicode = FB01;
},
{
color = 3;
glyphname = fl;
lastChange = "2017-09-24 14:35:07 +0000";
layers = (
{
background = {
components = (
{
name = f_f_l;
transform = "{1, 0, 0, 1, -358, 0}";
}
);
};
layerId = "6F85D940-A117-47EE-950D-70F837F8C9CE";
paths = (
{
closed = 1;
nodes = (
"551 0 LINE",
"702 860 LINE",
"525 860 LINE",
"374 0 LINE"
);
},
{
closed = 1;
nodes = (
"21 378 LINE",
"105 378 LINE",
"-8 -260 LINE",
"170 -260 LINE",
"283 378 LINE",
"391 378 LINE",
"414 513 LINE",
"306 513 LINE",
"326 624 LINE SMOOTH",
"340 704 OFFCURVE",
"394 738 OFFCURVE",
"451 738 CURVE SMOOTH",
"485 738 OFFCURVE",
"521 735 OFFCURVE",
"551 723 CURVE",
"702 860 LINE",
"650 867 OFFCURVE",
"562 877 OFFCURVE",
"478 877 CURVE SMOOTH",
"299 877 OFFCURVE",
"182 820 OFFCURVE",
"152 645 CURVE SMOOTH",
"129 513 LINE",
"45 513 LINE"
);
}
);
width = 656;
},
{
background = {
paths = (
{
closed = 1;
nodes = (
"415 0 LINE",
"565 860 LINE",
"497 860 LINE",
"347 0 LINE"
);
},
{
closed = 1;
nodes = (
"22 -260 LINE",
"89 -260 LINE",
"214 456 LINE",
"365 456 LINE",
"375 513 LINE",
"224 513 LINE",
"242 615 LINE SMOOTH",
"267 756 OFFCURVE",
"301 823 OFFCURVE",
"425 823 CURVE SMOOTH",
"452 823 OFFCURVE",
"477 819 OFFCURVE",
"491 812 CURVE",
"565 860 LINE",
"536 870 OFFCURVE",
"488 879 OFFCURVE",
"437 879 CURVE SMOOTH",
"280 879 OFFCURVE",
"207 800 OFFCURVE",
"180 644 CURVE SMOOTH",
"157 513 LINE",
"45 513 LINE",
"35 456 LINE",
"147 456 LINE"
);
}
);
};
layerId = "7984B694-437B-44C7-A8AE-41A7C9CC5720";
paths = (
{
closed = 1;
nodes = (
"415 0 LINE",
"565 860 LINE",
"497 860 LINE",
"347 0 LINE"
);
},
{
closed = 1;
nodes = (
"35 456 LINE",
"147 456 LINE",
"22 -260 LINE",
"89 -260 LINE",
"214 456 LINE",
"365 456 LINE",
"375 513 LINE",
"224 513 LINE",
"242 615 LINE SMOOTH",
"267 756 OFFCURVE",
"301 823 OFFCURVE",
"425 823 CURVE SMOOTH",
"452 823 OFFCURVE",
"477 822 OFFCURVE",
"491 815 CURVE",
"565 860 LINE",
"536 870 OFFCURVE",
"488 879 OFFCURVE",
"437 879 CURVE SMOOTH",
"280 879 OFFCURVE",
"207 800 OFFCURVE",
"180 644 CURVE SMOOTH",
"157 513 LINE",
"45 513 LINE"
);
}
);
width = 520;
}
);
leftMetricsKey = f;
rightKerningGroup = d;
rightMetricsKey = l;
unicode = FB02;
},
{
glyphname = ordfeminine;
lastChange = "2017-06-25 12:04:12 +0000";
layers = (
{
layerId = "6F85D940-A117-47EE-950D-70F837F8C9CE";
paths = (
{
closed = 1;
nodes = (
"128 586 OFFCURVE",
"184 504 OFFCURVE",
"283 504 CURVE SMOOTH",
"321 504 OFFCURVE",
"359 518 OFFCURVE",
"388 544 CURVE",
"384 549 LINE",
"380 513 LINE",
"487 513 LINE",
"543 830 LINE",
"434 830 LINE",
"424 796 LINE",
"401 821 OFFCURVE",
"368 840 OFFCURVE",
"319 840 CURVE SMOOTH",
"232 840 OFFCURVE",
"161 771 OFFCURVE",
"145 684 CURVE SMOOTH"
);
},
{
closed = 1;
nodes = (
"267 708 OFFCURVE",
"312 746 OFFCURVE",
"359 746 CURVE SMOOTH",
"394 746 OFFCURVE",
"417 722 OFFCURVE",
"410 684 CURVE SMOOTH",
"402 635 OFFCURVE",
"358 597 OFFCURVE",
"310 597 CURVE SMOOTH",
"271 597 OFFCURVE",
"251 621 OFFCURVE",
"258 658 CURVE SMOOTH"
);
}
);
width = 512;
},
{
layerId = "7984B694-437B-44C7-A8AE-41A7C9CC5720";
paths = (
{
closed = 1;
nodes = (
"25 567 OFFCURVE",
"89 503 OFFCURVE",
"178 503 CURVE SMOOTH",
"239 503 OFFCURVE",
"285 540 OFFCURVE",
"292 557 CURVE",
"293 559 LINE",
"285 513 LINE",
"341 513 LINE",
"397 830 LINE",
"340 831 LINE",
"331 784 LINE",
"329 804 OFFCURVE",
"293 840 OFFCURVE",
"228 840 CURVE SMOOTH",
"144 840 OFFCURVE",
"62 780 OFFCURVE",
"44 677 CURVE SMOOTH"
);
},
{
closed = 1;
nodes = (
"110 742 OFFCURVE",
"172 787 OFFCURVE",
"228 787 CURVE SMOOTH",
"286 787 OFFCURVE",
"326 741 OFFCURVE",
"315 677 CURVE SMOOTH",
"303 607 OFFCURVE",
"242 556 OFFCURVE",
"178 556 CURVE SMOOTH",
"126 556 OFFCURVE",
"85 597 OFFCURVE",
"97 667 CURVE SMOOTH"
);
}
);
width = 466;
}
);
rightKerningGroup = d;
unicode = 00AA;
},
{
glyphname = ordmasculine;
lastChange = "2017-09-09 11:23:37 +0000";
layers = (
{
layerId = "6F85D940-A117-47EE-950D-70F837F8C9CE";
paths = (
{
closed = 1;
nodes = (
"127 581 OFFCURVE",
"196 504 OFFCURVE",
"317 504 CURVE SMOOTH",
"420 504 OFFCURVE",
"506 567 OFFCURVE",
"522 658 CURVE SMOOTH",
"540 763 OFFCURVE",
"464 840 OFFCURVE",
"353 840 CURVE SMOOTH",
"252 840 OFFCURVE",
"162 777 OFFCURVE",
"145 684 CURVE SMOOTH"
);
},
{
closed = 1;
nodes = (
"267 708 OFFCURVE",
"312 746 OFFCURVE",
"359 746 CURVE SMOOTH",
"394 746 OFFCURVE",
"417 722 OFFCURVE",
"410 684 CURVE SMOOTH",
"402 635 OFFCURVE",
"358 597 OFFCURVE",
"310 597 CURVE SMOOTH",
"270 597 OFFCURVE",
"251 621 OFFCURVE",
"258 658 CURVE SMOOTH"
);
}
);
width = 521;
},
{
layerId = "7984B694-437B-44C7-A8AE-41A7C9CC5720";
paths = (
{
closed = 1;
nodes = (
"26 573 OFFCURVE",
"93 504 OFFCURVE",
"190 504 CURVE SMOOTH",
"277 504 OFFCURVE",
"366 572 OFFCURVE",
"383 666 CURVE SMOOTH",
"401 768 OFFCURVE",
"327 840 OFFCURVE",
"240 840 CURVE SMOOTH",
"145 840 OFFCURVE",
"61 769 OFFCURVE",
"44 673 CURVE SMOOTH"
);
},
{
closed = 1;
nodes = (
"114 739 OFFCURVE",
"163 791 OFFCURVE",
"232 791 CURVE SMOOTH",
"291 791 OFFCURVE",
"337 738 OFFCURVE",
"325 671 CURVE SMOOTH",
"312 599 OFFCURVE",
"254 552 OFFCURVE",
"192 552 CURVE SMOOTH",
"133 552 OFFCURVE",
"89 600 OFFCURVE",
"101 666 CURVE SMOOTH"
);
}
);
width = 481;
}
);
rightKerningGroup = d;
unicode = 00BA;
},
{
glyphname = zero;
lastChange = "2017-06-25 12:04:12 +0000";
layers = (
{
layerId = "6F85D940-A117-47EE-950D-70F837F8C9CE";
paths = (
{
closed = 1;
nodes = (
"3 113 OFFCURVE",
"145 -15 OFFCURVE",
"328 -15 CURVE SMOOTH",
"499 -15 OFFCURVE",
"672 99 OFFCURVE",
"725 399 CURVE SMOOTH",
"776 691 OFFCURVE",
"639 840 OFFCURVE",
"456 840 CURVE SMOOTH",
"285 840 OFFCURVE",
"107 705 OFFCURVE",
"58 425 CURVE SMOOTH"
);
},
{
closed = 1;
nodes = (
"274 571 OFFCURVE",
"353 675 OFFCURVE",
"450 675 CURVE SMOOTH",
"534 675 OFFCURVE",
"568 586 OFFCURVE",
"539 425 CURVE SMOOTH",
"507 241 OFFCURVE",
"430 150 OFFCURVE",
"334 150 CURVE SMOOTH",
"249 150 OFFCURVE",
"213 227 OFFCURVE",
"244 399 CURVE SMOOTH"
);
}
);
width = 728;
},
{
layerId = "7984B694-437B-44C7-A8AE-41A7C9CC5720";
paths = (
{
closed = 1;
nodes = (
"10 118 OFFCURVE",
"142 -15 OFFCURVE",
"291 -15 CURVE SMOOTH",
"436 -15 OFFCURVE",
"608 114 OFFCURVE",
"660 407 CURVE SMOOTH",
"713 706 OFFCURVE",
"582 840 OFFCURVE",
"433 840 CURVE SMOOTH",
"288 840 OFFCURVE",
"115 710 OFFCURVE",
"63 417 CURVE SMOOTH"
);
},
{
closed = 1;
nodes = (
"178 652 OFFCURVE",
"308 778 OFFCURVE",
"431 778 CURVE SMOOTH",
"549 778 OFFCURVE",
"630 657 OFFCURVE",
"588 417 CURVE SMOOTH",
"545 172 OFFCURVE",
"415 47 OFFCURVE",
"293 47 CURVE SMOOTH",
"174 47 OFFCURVE",
"93 168 OFFCURVE",
"135 407 CURVE SMOOTH"
);
}
);
width = 668;
}
);
unicode = 0030;
},
{
glyphname = one;
lastChange = "2017-06-25 12:04:12 +0000";
layers = (
{
layerId = "6F85D940-A117-47EE-950D-70F837F8C9CE";
paths = (
{
closed = 1;
nodes = (
"112 0 LINE",
"300 0 LINE",
"446 825 LINE",
"356 825 LINE",
"97 693 LINE",
"67 507 LINE",
"215 575 LINE"
);
}
);
width = 406;
},
{
layerId = "7984B694-437B-44C7-A8AE-41A7C9CC5720";
paths = (
{
closed = 1;
nodes = (
"141 0 LINE",
"209 0 LINE",
"355 825 LINE",
"305 825 LINE",
"100 713 LINE",
"88 637 LINE",
"271 735 LINE"
);
}
);
width = 315;
}
);
unicode = 0031;
},
{
glyphname = two;
lastChange = "2017-09-09 11:09:28 +0000";
layers = (
{
layerId = "6F85D940-A117-47EE-950D-70F837F8C9CE";
paths = (
{
closed = 1;
nodes = (
"521 681 OFFCURVE",
"545 650 OFFCURVE",
"524 573 CURVE SMOOTH",
"506 499 OFFCURVE",
"386 392 OFFCURVE",
"270 303 CURVE SMOOTH",
"153 213 OFFCURVE",
"41 142 OFFCURVE",
"41 142 CURVE",
"16 0 LINE",
"609 0 LINE",
"638 165 LINE",
"342 162 LINE SMOOTH",
"342 162 OFFCURVE",
"409 199 OFFCURVE",
"485 259 CURVE SMOOTH",
"578 331 OFFCURVE",
"686 436 OFFCURVE",
"711 547 CURVE SMOOTH",
"735 657 OFFCURVE",
"710 840 OFFCURVE",
"451 840 CURVE SMOOTH",
"203 840 OFFCURVE",
"90 597 OFFCURVE",
"90 597 CURVE",
"235 524 LINE",
"234 524 OFFCURVE",
"330 681 OFFCURVE",
"446 681 CURVE SMOOTH"
);
}
);
width = 715;
},
{
layerId = "7984B694-437B-44C7-A8AE-41A7C9CC5720";
paths = (
{
closed = 1;
nodes = (
"518 778 OFFCURVE",
"565 712 OFFCURVE",
"549 622 CURVE SMOOTH",
"522 467 OFFCURVE",
"343 318 OFFCURVE",
"204 206 CURVE SMOOTH",
"95 118 OFFCURVE",
"1 55 OFFCURVE",
"1 55 CURVE",
"-9 0 LINE",
"504 0 LINE",
"516 68 LINE",
"127 67 LINE SMOOTH",
"127 67 OFFCURVE",
"235 141 OFFCURVE",
"350 243 CURVE SMOOTH",
"471 351 OFFCURVE",
"592 475 OFFCURVE",
"620 613 CURVE SMOOTH",
"643 743 OFFCURVE",
"563 840 OFFCURVE",
"403 840 CURVE SMOOTH",
"201 840 OFFCURVE",
"108 649 OFFCURVE",
"108 649 CURVE",
"174 622 LINE",
"174 622 OFFCURVE",
"249 778 OFFCURVE",
"401 778 CURVE SMOOTH"
);
}
);
width = 611;
}
);
unicode = 0032;
},
{
glyphname = three;
lastChange = "2017-06-25 12:04:12 +0000";
layers = (
{
layerId = "6F85D940-A117-47EE-950D-70F837F8C9CE";
paths = (
{
closed = 1;
nodes = (
"254 587 LINE",
"253 587 OFFCURVE",
"302 689 OFFCURVE",
"411 689 CURVE SMOOTH",
"459 689 OFFCURVE",
"496 658 OFFCURVE",
"488 611 CURVE SMOOTH",
"476 545 OFFCURVE",
"413 494 OFFCURVE",
"363 494 CURVE SMOOTH",
"327 494 LINE",
"311 371 LINE",
"311 371 OFFCURVE",
"327 371 OFFCURVE",
"353 371 CURVE SMOOTH",
"413 371 OFFCURVE",
"454 334 OFFCURVE",
"443 269 CURVE SMOOTH",
"429 193 OFFCURVE",
"365 147 OFFCURVE",
"291 147 CURVE SMOOTH",
"172 147 OFFCURVE",
"194 270 OFFCURVE",
"194 270 CURVE",
"5 188 LINE",
"6 188 OFFCURVE",
"26 -15 OFFCURVE",
"286 -15 CURVE SMOOTH",
"457 -15 OFFCURVE",
"599 91 OFFCURVE",
"626 243 CURVE SMOOTH",
"644 346 OFFCURVE",
"592 426 OFFCURVE",
"536 442 CURVE",
"600 458 OFFCURVE",
"644 525 OFFCURVE",
"655 587 CURVE SMOOTH",
"681 733 OFFCURVE",
"580 840 OFFCURVE",
"417 840 CURVE SMOOTH",
"192 840 OFFCURVE",
"118 656 OFFCURVE",
"118 656 CURVE"
);
}
);
width = 660;
},
{
layerId = "7984B694-437B-44C7-A8AE-41A7C9CC5720";
paths = (
{
closed = 1;
nodes = (
"196 679 LINE",
"195 679 OFFCURVE",
"237 778 OFFCURVE",
"379 778 CURVE SMOOTH",
"494 778 OFFCURVE",
"532 708 OFFCURVE",
"517 623 CURVE SMOOTH",
"498 515 OFFCURVE",
"410 466 OFFCURVE",
"320 466 CURVE SMOOTH",
"281 466 LINE",
"272 399 LINE",
"272 399 OFFCURVE",
"303 399 OFFCURVE",
"306 399 CURVE SMOOTH",
"434 399 OFFCURVE",
"490 355 OFFCURVE",
"470 241 CURVE SMOOTH",
"451 134 OFFCURVE",
"368 47 OFFCURVE",
"239 47 CURVE SMOOTH",
"85 47 OFFCURVE",
"72 176 OFFCURVE",
"72 176 CURVE",
"-2 146 LINE",
"-1 146 OFFCURVE",
"26 -15 OFFCURVE",
"238 -15 CURVE SMOOTH",
"397 -15 OFFCURVE",
"520 93 OFFCURVE",
"544 231 CURVE SMOOTH",
"566 358 OFFCURVE",
"495 427 OFFCURVE",
"424 435 CURVE",
"503 450 OFFCURVE",
"572 519 OFFCURVE",
"589 615 CURVE SMOOTH",
"610 737 OFFCURVE",
"543 840 OFFCURVE",
"383 840 CURVE SMOOTH",
"205 840 OFFCURVE",
"129 708 OFFCURVE",
"129 708 CURVE"
);
}
);
width = 580;
}
);
unicode = 0033;
},
{
glyphname = four;
lastChange = "2017-06-25 12:04:12 +0000";
layers = (
{
layerId = "6F85D940-A117-47EE-950D-70F837F8C9CE";
paths = (
{
closed = 1;
nodes = (
"441 825 LINE",
"20 309 LINE",
"-2 174 LINE",
"338 174 LINE",
"307 0 LINE",
"483 0 LINE",
"514 174 LINE",
"610 174 LINE",
"639 339 LINE",
"543 339 LINE",
"629 825 LINE"
);
},
{
closed = 1;
nodes = (
"220 339 LINE",
"409 574 LINE",
"408 574 LINE",
"367 339 LINE"
);
}
);
width = 638;
},
{
layerId = "7984B694-437B-44C7-A8AE-41A7C9CC5720";
paths = (
{
closed = 1;
nodes = (
"478 825 LINE",
"7 234 LINE",
"-3 174 LINE",
"347 174 LINE",
"316 0 LINE",
"382 0 LINE",
"413 174 LINE",
"509 174 LINE",
"521 242 LINE",
"425 242 LINE",
"528 825 LINE"
);
},
{
closed = 1;
nodes = (
"95 242 LINE",
"435 668 LINE",
"434 668 LINE",
"359 242 LINE"
);
}
);
width = 537;
}
);
unicode = 0034;
},
{
glyphname = five;
lastChange = "2017-06-25 12:04:12 +0000";
layers = (
{
layerId = "6F85D940-A117-47EE-950D-70F837F8C9CE";
paths = (
{
closed = 1;
nodes = (
"10 170 LINE",
"28 86 OFFCURVE",
"100 -15 OFFCURVE",
"282 -15 CURVE SMOOTH",
"453 -15 OFFCURVE",
"596 95 OFFCURVE",
"627 273 CURVE SMOOTH",
"661 463 OFFCURVE",
"529 552 OFFCURVE",
"396 547 CURVE SMOOTH",
"328 543 OFFCURVE",
"310 525 OFFCURVE",
"310 525 CURVE",
"359 660 LINE",
"643 660 LINE",
"672 825 LINE",
"230 825 LINE",
"83 381 LINE",
"253 354 LINE",
"253 354 OFFCURVE",
"291 400 OFFCURVE",
"355 402 CURVE SMOOTH",
"440 405 OFFCURVE",
"459 364 OFFCURVE",
"446 289 CURVE SMOOTH",
"432 208 OFFCURVE",
"361 142 OFFCURVE",
"287 142 CURVE SMOOTH",
"207 142 OFFCURVE",
"173 179 OFFCURVE",
"167 230 CURVE"
);
}
);
width = 659;
},
{
layerId = "7984B694-437B-44C7-A8AE-41A7C9CC5720";
paths = (
{
closed = 1;
nodes = (
"18 133 LINE",
"25 101 OFFCURVE",
"71 -15 OFFCURVE",
"240 -15 CURVE SMOOTH",
"414 -15 OFFCURVE",
"536 103 OFFCURVE",
"565 268 CURVE SMOOTH",
"594 441 OFFCURVE",
"484 529 OFFCURVE",
"353 526 CURVE SMOOTH",
"244 523 OFFCURVE",
"198 459 OFFCURVE",
"198 459 CURVE",
"300 757 LINE",
"615 757 LINE",
"627 825 LINE",
"250 825 LINE",
"92 360 LINE",
"162 350 LINE",
"161 350 OFFCURVE",
"210 461 OFFCURVE",
"340 462 CURVE SMOOTH",
"439 463 OFFCURVE",
"511 395 OFFCURVE",
"492 276 CURVE SMOOTH",
"470 139 OFFCURVE",
"368 47 OFFCURVE",
"242 47 CURVE SMOOTH",
"124 47 OFFCURVE",
"92 141 OFFCURVE",
"90 165 CURVE"
);
}
);
width = 603;
}
);
unicode = 0035;
},
{
glyphname = six;
lastChange = "2017-06-25 12:04:12 +0000";
layers = (
{
layerId = "6F85D940-A117-47EE-950D-70F837F8C9CE";
paths = (
{
closed = 1;
nodes = (
"476 -15 OFFCURVE",
"619 96 OFFCURVE",
"647 254 CURVE SMOOTH",
"678 427 OFFCURVE",
"558 552 OFFCURVE",
"403 552 CURVE SMOOTH",
"378 552 OFFCURVE",
"326 539 OFFCURVE",
"290 531 CURVE SMOOTH",
"161 487 OFFCURVE",
"56 377 OFFCURVE",
"39 280 CURVE SMOOTH",
"9 110 OFFCURVE",
"116 -15 OFFCURVE",
"306 -15 CURVE SMOOTH"
);
},
{
closed = 1;
nodes = (
"241 143 OFFCURVE",
"203 187 OFFCURVE",
"215 255 CURVE SMOOTH",
"229 335 OFFCURVE",
"301 394 OFFCURVE",
"379 394 CURVE SMOOTH",
"443 394 OFFCURVE",
"487 349 OFFCURVE",
"475 281 CURVE SMOOTH",
"461 201 OFFCURVE",
"391 143 OFFCURVE",
"312 143 CURVE SMOOTH"
);
},
{
closed = 1;
nodes = (
"103 491 OFFCURVE",
"58 390 OFFCURVE",
"38 274 CURVE",
"343 517 LINE",
"365 531 OFFCURVE",
"391 548 OFFCURVE",
"404 561 CURVE",
"671 825 LINE",
"439 825 LINE",
"207 599 LINE"
);
}
);
width = 688;
},
{
layerId = "7984B694-437B-44C7-A8AE-41A7C9CC5720";
paths = (
{
closed = 1;
nodes = (
"442 -15 OFFCURVE",
"560 91 OFFCURVE",
"589 252 CURVE SMOOTH",
"619 422 OFFCURVE",
"521 532 OFFCURVE",
"378 532 CURVE SMOOTH",
"289 532 OFFCURVE",
"243 505 OFFCURVE",
"212 490 CURVE SMOOTH",
"148 450 OFFCURVE",
"56 372 OFFCURVE",
"38 272 CURVE SMOOTH",
"9 105 OFFCURVE",
"90 -15 OFFCURVE",
"270 -15 CURVE SMOOTH"
);
},
{
closed = 1;
nodes = (
"141 47 OFFCURVE",
"89 141 OFFCURVE",
"111 262 CURVE SMOOTH",
"133 389 OFFCURVE",
"232 470 OFFCURVE",
"367 470 CURVE SMOOTH",
"486 470 OFFCURVE",
"538 383 OFFCURVE",
"516 262 CURVE SMOOTH",
"494 135 OFFCURVE",
"403 47 OFFCURVE",
"272 47 CURVE SMOOTH"
);
},
{
closed = 1;
nodes = (
"168 515 OFFCURVE",
"64 415 OFFCURVE",
"38 269 CURVE",
"236 496 LINE",
"240 499 OFFCURVE",
"288 551 OFFCURVE",
"301 564 CURVE",
"559 825 LINE",
"471 825 LINE",
"241 596 LINE"
);
}
);
width = 631;
}
);
unicode = 0036;
},
{
glyphname = seven;
lastChange = "2017-06-25 12:04:12 +0000";
layers = (
{
layerId = "6F85D940-A117-47EE-950D-70F837F8C9CE";
paths = (
{
closed = 1;
nodes = (
"144 660 LINE",
"496 660 LINE",
"0 0 LINE",
"226 0 LINE",
"747 697 LINE",
"768 825 LINE",
"173 825 LINE"
);
}
);
width = 682;
},
{
layerId = "7984B694-437B-44C7-A8AE-41A7C9CC5720";
paths = (
{
closed = 1;
nodes = (
"150 757 LINE",
"574 757 LINE",
"0 0 LINE",
"82 0 LINE",
"657 765 LINE",
"667 825 LINE",
"162 825 LINE"
);
}
);
width = 580;
}
);
unicode = 0037;
},
{
glyphname = eight;
lastChange = "2017-06-25 12:04:12 +0000";
layers = (
{
layerId = "6F85D940-A117-47EE-950D-70F837F8C9CE";
paths = (
{
closed = 1;
nodes = (
"703 762 OFFCURVE",
"582 840 OFFCURVE",
"435 840 CURVE SMOOTH",
"305 840 OFFCURVE",
"162 776 OFFCURVE",
"137 635 CURVE SMOOTH",
"120 538 OFFCURVE",
"162 484 OFFCURVE",
"214 451 CURVE",
"118 410 OFFCURVE",
"52 352 OFFCURVE",
"33 245 CURVE SMOOTH",
"5 85 OFFCURVE",
"142 -15 OFFCURVE",
"308 -15 CURVE SMOOTH",
"457 -15 OFFCURVE",
"620 71 OFFCURVE",
"646 219 CURVE SMOOTH",
"667 338 OFFCURVE",
"611 404 OFFCURVE",
"539 439 CURVE",
"613 478 OFFCURVE",
"661 524 OFFCURVE",
"676 609 CURVE SMOOTH"
);
},
{
closed = 1;
nodes = (
"248 307 OFFCURVE",
"308 357 OFFCURVE",
"373 357 CURVE SMOOTH",
"425 357 OFFCURVE",
"460 321 OFFCURVE",
"450 265 CURVE SMOOTH",
"438 198 OFFCURVE",
"378 147 OFFCURVE",
"313 147 CURVE SMOOTH",
"256 147 OFFCURVE",
"227 184 OFFCURVE",
"236 239 CURVE SMOOTH"
);
},
{
closed = 1;
nodes = (
"488 557 OFFCURVE",
"437 513 OFFCURVE",
"378 513 CURVE SMOOTH",
"333 513 OFFCURVE",
"302 543 OFFCURVE",
"311 592 CURVE SMOOTH",
"321 651 OFFCURVE",
"375 698 OFFCURVE",
"434 698 CURVE SMOOTH",
"482 698 OFFCURVE",
"507 665 OFFCURVE",
"499 618 CURVE SMOOTH"
);
}
);
width = 688;
},
{
layerId = "7984B694-437B-44C7-A8AE-41A7C9CC5720";
paths = (
{
closed = 1;
nodes = (
"644 771 OFFCURVE",
"555 840 OFFCURVE",
"412 840 CURVE SMOOTH",
"278 840 OFFCURVE",
"162 775 OFFCURVE",
"136 631 CURVE SMOOTH",
"120 537 OFFCURVE",
"167 472 OFFCURVE",
"223 447 CURVE",
"133 418 OFFCURVE",
"53 357 OFFCURVE",
"32 237 CURVE SMOOTH",
"6 90 OFFCURVE",
"99 -15 OFFCURVE",
"271 -15 CURVE SMOOTH",
"434 -15 OFFCURVE",
"562 86 OFFCURVE",
"587 227 CURVE SMOOTH",
"609 353 OFFCURVE",
"547 416 OFFCURVE",
"470 443 CURVE",
"539 470 OFFCURVE",
"602 533 OFFCURVE",
"618 621 CURVE SMOOTH"
);
},
{
closed = 1;
nodes = (
"124 341 OFFCURVE",
"215 414 OFFCURVE",
"346 414 CURVE SMOOTH",
"472 414 OFFCURVE",
"534 345 OFFCURVE",
"515 237 CURVE SMOOTH",
"495 125 OFFCURVE",
"404 47 OFFCURVE",
"272 47 CURVE SMOOTH",
"142 47 OFFCURVE",
"86 121 OFFCURVE",
"104 227 CURVE SMOOTH"
);
},
{
closed = 1;
nodes = (
"536 545 OFFCURVE",
"474 476 OFFCURVE",
"349 476 CURVE SMOOTH",
"230 476 OFFCURVE",
"192 541 OFFCURVE",
"205 618 CURVE SMOOTH",
"222 714 OFFCURVE",
"286 778 OFFCURVE",
"411 778 CURVE SMOOTH",
"533 778 OFFCURVE",
"567 718 OFFCURVE",
"551 628 CURVE SMOOTH"
);
}
);
width = 627;
}
);
unicode = 0038;
},
{
glyphname = fraction;
lastChange = "2017-06-25 12:04:12 +0000";
layers = (
{
layerId = "6F85D940-A117-47EE-950D-70F837F8C9CE";
paths = (
{
closed = 1;
nodes = (
"-212 0 LINE",
"-90 0 LINE",
"536 825 LINE",
"414 825 LINE"
);
}
);
width = 269;
},
{
layerId = "7984B694-437B-44C7-A8AE-41A7C9CC5720";
paths = (
{
closed = 1;
nodes = (
"-212 0 LINE",
"-152 0 LINE",
"474 825 LINE",
"414 825 LINE"
);
}
);
width = 207;
}
);
rightKerningGroup = d;
unicode = 2044;
},
{
glyphname = asterisk;
lastChange = "2017-06-25 12:04:12 +0000";
layers = (
{
layerId = "6F85D940-A117-47EE-950D-70F837F8C9CE";
paths = (
{
closed = 1;
nodes = (
"395 860 LINE",
"309 860 LINE",
"287 743 LINE",
"177 778 LINE",
"138 698 LINE",
"245 657 LINE",
"162 558 LINE",
"224 513 LINE",
"311 604 LINE",
"364 513 LINE",
"434 558 LINE",
"385 657 LINE",
"506 698 LINE",
"493 778 LINE",
"375 743 LINE"
);
}
);
width = 488;
},
{
layerId = "7984B694-437B-44C7-A8AE-41A7C9CC5720";
paths = (
{
closed = 1;
nodes = (
"375 850 LINE",
"325 850 LINE",
"300 719 LINE",
"183 761 LINE",
"160 714 LINE",
"276 669 LINE",
"182 563 LINE",
"217 537 LINE",
"314 639 LINE",
"370 536 LINE",
"411 562 LINE",
"358 669 LINE",
"490 714 LINE",
"483 761 LINE",
"352 719 LINE"
);
}
);
width = 488;
}
);
rightKerningGroup = d;
unicode = 002A;
},
{
glyphname = backslash;
lastChange = "2017-06-25 12:04:12 +0000";
layers = (
{
layerId = "6F85D940-A117-47EE-950D-70F837F8C9CE";
paths = (
{
closed = 1;
nodes = (
"278 860 LINE",
"129 860 LINE",
"389 0 LINE",
"538 0 LINE"
);
}
);
width = 606;
},
{
layerId = "7984B694-437B-44C7-A8AE-41A7C9CC5720";
paths = (
{
closed = 1;
nodes = (
"201 860 LINE",
"129 860 LINE",
"390 0 LINE",
"461 0 LINE"
);
}
);
width = 529;
}
);
rightKerningGroup = d;
unicode = 005C;
},
{
glyphname = bullet;
lastChange = "2017-06-25 12:04:12 +0000";
layers = (
{
layerId = "6F85D940-A117-47EE-950D-70F837F8C9CE";
paths = (
{
closed = 1;
nodes = (
"296 553 OFFCURVE",
"200 472 OFFCURVE",
"182 369 CURVE SMOOTH",
"162 255 OFFCURVE",
"238 161 OFFCURVE",
"352 161 CURVE SMOOTH",
"455 161 OFFCURVE",
"552 241 OFFCURVE",
"570 343 CURVE SMOOTH",
"590 458 OFFCURVE",
"513 553 OFFCURVE",
"398 553 CURVE SMOOTH"
);
}
);
width = 717;
},
{
layerId = "7984B694-437B-44C7-A8AE-41A7C9CC5720";
paths = (
{
closed = 1;
nodes = (
"246 469 OFFCURVE",
"191 421 OFFCURVE",
"180 361 CURVE SMOOTH",
"169 296 OFFCURVE",
"211 245 OFFCURVE",
"276 245 CURVE SMOOTH",
"336 245 OFFCURVE",
"392 292 OFFCURVE",
"403 351 CURVE SMOOTH",
"414 417 OFFCURVE",
"371 469 OFFCURVE",
"306 469 CURVE SMOOTH"
);
}
);
width = 548;
}
);
rightKerningGroup = d;
unicode = 2022;
},
{
glyphname = comma;
lastChange = "2017-09-09 13:15:08 +0000";
layers = (
{
layerId = "6F85D940-A117-47EE-950D-70F837F8C9CE";
paths = (
{
closed = 1;
nodes = (
"98 214 OFFCURVE",
"45 170 OFFCURVE",
"35 112 CURVE SMOOTH",
"25 53 OFFCURVE",
"59 8 OFFCURVE",
"106 2 CURVE",
"69 -83 OFFCURVE",
"-6 -150 OFFCURVE",
"-6 -150 CURVE",
"48 -192 LINE",
"141 -124 OFFCURVE",
"239 -29 OFFCURVE",
"259 86 CURVE SMOOTH",
"272 156 OFFCURVE",
"225 214 OFFCURVE",
"155 214 CURVE SMOOTH"
);
}
);
width = 349;
},
{
layerId = "7984B694-437B-44C7-A8AE-41A7C9CC5720";
paths = (
{
closed = 1;
nodes = (
"74 131 OFFCURVE",
"39 101 OFFCURVE",
"31 58 CURVE SMOOTH",
"24 16 OFFCURVE",
"58 -28 OFFCURVE",
"112 -9 CURVE",
"87 -70 OFFCURVE",
"3 -113 OFFCURVE",
"3 -113 CURVE",
"39 -143 LINE",
"104 -107 OFFCURVE",
"172 -42 OFFCURVE",
"187 43 CURVE SMOOTH",
"196 92 OFFCURVE",
"165 131 OFFCURVE",
"116 131 CURVE SMOOTH"
);
}
);
width = 287;
}
);
leftKerningGroup = comma;
rightKerningGroup = d;
unicode = 002C;
},
{
glyphname = exclam;
lastChange = "2017-06-25 12:04:12 +0000";
layers = (
{
layerId = "6F85D940-A117-47EE-950D-70F837F8C9CE";
paths = (
{
closed = 1;
nodes = (
"242 270 LINE",
"370 860 LINE",
"193 860 LINE",
"113 270 LINE"
);
},
{
closed = 1;
nodes = (
"196 -15 OFFCURVE",
"249 29 OFFCURVE",
"259 86 CURVE SMOOTH",
"272 156 OFFCURVE",
"225 214 OFFCURVE",
"155 214 CURVE SMOOTH",
"98 214 OFFCURVE",
"45 170 OFFCURVE",
"35 112 CURVE SMOOTH",
"23 43 OFFCURVE",
"69 -15 OFFCURVE",
"138 -15 CURVE SMOOTH"
);
}
);
width = 349;
},
{
layerId = "7984B694-437B-44C7-A8AE-41A7C9CC5720";
paths = (
{
closed = 1;
nodes = (
"191 210 LINE",
"319 860 LINE",
"242 860 LINE",
"142 210 LINE"
);
},
{
closed = 1;
nodes = (
"167 -15 OFFCURVE",
"201 14 OFFCURVE",
"208 50 CURVE SMOOTH",
"215 93 OFFCURVE",
"188 126 OFFCURVE",
"146 126 CURVE SMOOTH",
"110 126 OFFCURVE",
"76 97 OFFCURVE",
"69 60 CURVE SMOOTH",
"62 18 OFFCURVE",
"89 -15 OFFCURVE",
"131 -15 CURVE SMOOTH"
);
}
);
width = 349;
}
);
rightKerningGroup = d;
unicode = 0021;
},
{
glyphname = numbersign;
lastChange = "2017-06-25 12:04:12 +0000";
layers = (
{
layerId = "6F85D940-A117-47EE-950D-70F837F8C9CE";
paths = (
{
closed = 1;
nodes = (
"65 0 LINE",
"196 0 LINE",
"559 825 LINE",
"428 825 LINE"
);
},
{
closed = 1;
nodes = (
"298 0 LINE",
"429 0 LINE",
"792 825 LINE",
"661 825 LINE"
);
},
{
closed = 1;
nodes = (
"173 486 LINE",
"738 486 LINE",
"797 609 LINE",
"232 609 LINE"
);
},
{
closed = 1;
nodes = (
"61 217 LINE",
"626 217 LINE",
"685 340 LINE",
"120 340 LINE"
);
}
);
width = 836;
},
{
layerId = "7984B694-437B-44C7-A8AE-41A7C9CC5720";
paths = (
{
closed = 1;
nodes = (
"79 0 LINE",
"133 0 LINE",
"497 825 LINE",
"443 825 LINE"
);
},
{
closed = 1;
nodes = (
"297 0 LINE",
"351 0 LINE",
"715 825 LINE",
"661 825 LINE"
);
},
{
closed = 1;
nodes = (
"180 526 LINE",
"703 526 LINE",
"729 579 LINE",
"206 579 LINE"
);
},
{
closed = 1;
nodes = (
"66 247 LINE",
"589 247 LINE",
"615 300 LINE",
"92 300 LINE"
);
}
);
width = 773;
}
);
rightKerningGroup = d;
unicode = 0023;
},
{
glyphname = period;
lastChange = "2017-06-25 12:04:12 +0000";
layers = (
{
layerId = "6F85D940-A117-47EE-950D-70F837F8C9CE";
paths = (
{
closed = 1;
nodes = (
"196 -15 OFFCURVE",
"249 29 OFFCURVE",
"259 86 CURVE SMOOTH",
"272 156 OFFCURVE",
"225 214 OFFCURVE",
"155 214 CURVE SMOOTH",
"98 214 OFFCURVE",
"45 170 OFFCURVE",
"35 112 CURVE SMOOTH",
"23 43 OFFCURVE",
"69 -15 OFFCURVE",
"138 -15 CURVE SMOOTH"
);
}
);
width = 349;
},
{
layerId = "7984B694-437B-44C7-A8AE-41A7C9CC5720";
paths = (
{
closed = 1;
nodes = (
"167 -15 OFFCURVE",
"201 14 OFFCURVE",
"208 50 CURVE SMOOTH",
"215 93 OFFCURVE",
"188 126 OFFCURVE",
"146 126 CURVE SMOOTH",
"110 126 OFFCURVE",
"76 97 OFFCURVE",
"69 60 CURVE SMOOTH",
"62 18 OFFCURVE",
"89 -15 OFFCURVE",
"131 -15 CURVE SMOOTH"
);
}
);
width = 349;
}
);
leftKerningGroup = comma;
rightKerningGroup = d;
unicode = 002E;
},
{
glyphname = question;
lastChange = "2017-09-09 11:11:02 +0000";
layers = (
{
layerId = "6F85D940-A117-47EE-950D-70F837F8C9CE";
paths = (
{
closed = 1;
nodes = (
"372 270 LINE",
"380 319 LINE SMOOTH",
"385 352 OFFCURVE",
"400 378 OFFCURVE",
"440 396 CURVE SMOOTH",
"538 439 OFFCURVE",
"616 496 OFFCURVE",
"632 588 CURVE SMOOTH",
"658 735 OFFCURVE",
"537 840 OFFCURVE",
"381 840 CURVE SMOOTH",
"164 840 OFFCURVE",
"95 663 OFFCURVE",
"94 658 CURVE",
"229 574 LINE",
"246 617 OFFCURVE",
"297 683 OFFCURVE",
"375 683 CURVE SMOOTH",
"414 683 OFFCURVE",
"439 656 OFFCURVE",
"433 614 CURVE SMOOTH",
"422 537 OFFCURVE",
"358 533 OFFCURVE",
"284 496 CURVE SMOOTH",
"238 473 OFFCURVE",
"230 430 OFFCURVE",
"224 386 CURVE SMOOTH",
"207 270 LINE"
);
},
{
closed = 1;
nodes = (
"308 -15 OFFCURVE",
"360 29 OFFCURVE",
"371 86 CURVE SMOOTH",
"384 156 OFFCURVE",
"337 214 OFFCURVE",
"267 214 CURVE SMOOTH",
"210 214 OFFCURVE",
"157 170 OFFCURVE",
"147 112 CURVE SMOOTH",
"135 43 OFFCURVE",
"181 -15 OFFCURVE",
"250 -15 CURVE SMOOTH"
);
}
);
width = 597;
},
{
layerId = "7984B694-437B-44C7-A8AE-41A7C9CC5720";
paths = (
{
closed = 1;
nodes = (
"277 210 LINE",
"297 324 LINE SMOOTH",
"301 347 OFFCURVE",
"304 391 OFFCURVE",
"341 409 CURVE SMOOTH",
"447 472 OFFCURVE",
"537 531 OFFCURVE",
"556 636 CURVE SMOOTH",
"578 760 OFFCURVE",
"506 840 OFFCURVE",
"353 840 CURVE SMOOTH",
"183 840 OFFCURVE",
"99 688 OFFCURVE",
"98 683 CURVE",
"157 658 LINE",
"173 701 OFFCURVE",
"247 780 OFFCURVE",
"351 780 CURVE SMOOTH",
"445 780 OFFCURVE",
"500 735 OFFCURVE",
"485 646 CURVE SMOOTH",
"468 552 OFFCURVE",
"371 504 OFFCURVE",
"302 464 CURVE SMOOTH",
"254 436 OFFCURVE",
"244 395 OFFCURVE",
"237 351 CURVE SMOOTH",
"212 210 LINE"
);
},
{
closed = 1;
nodes = (
"245 -15 OFFCURVE",
"281 14 OFFCURVE",
"286 50 CURVE SMOOTH",
"292 93 OFFCURVE",
"266 126 OFFCURVE",
"224 126 CURVE SMOOTH",
"188 126 OFFCURVE",
"153 97 OFFCURVE",
"147 60 CURVE SMOOTH",
"140 18 OFFCURVE",
"167 -15 OFFCURVE",
"209 -15 CURVE SMOOTH"
);
}
);
width = 512;
}
);
rightKerningGroup = d;
unicode = 003F;
},
{
glyphname = quotedbl;
lastChange = "2017-06-25 12:04:12 +0000";
layers = (
{
layerId = "6F85D940-A117-47EE-950D-70F837F8C9CE";
paths = (
{
closed = 1;
nodes = (
"198 840 OFFCURVE",
"158 811 OFFCURVE",
"151 772 CURVE SMOOTH",
"151 768 LINE SMOOTH",
"142 722 OFFCURVE",
"135 475 OFFCURVE",
"135 475 CURVE",
"208 469 LINE",
"208 469 OFFCURVE",
"311 708 OFFCURVE",
"319 754 CURVE SMOOTH",
"320 758 LINE SMOOTH",
"327 797 OFFCURVE",
"289 840 OFFCURVE",
"237 840 CURVE SMOOTH"
);
},
{
closed = 1;
nodes = (
"420 840 OFFCURVE",
"380 811 OFFCURVE",
"373 772 CURVE SMOOTH",
"373 768 LINE SMOOTH",
"364 722 OFFCURVE",
"357 475 OFFCURVE",
"357 475 CURVE",
"430 469 LINE",
"430 469 OFFCURVE",
"533 708 OFFCURVE",
"541 754 CURVE SMOOTH",
"542 758 LINE SMOOTH",
"549 797 OFFCURVE",
"511 840 OFFCURVE",
"459 840 CURVE SMOOTH"
);
}
);
width = 514;
},
{
layerId = "7984B694-437B-44C7-A8AE-41A7C9CC5720";
paths = (
{
closed = 1;
nodes = (
"173 810 OFFCURVE",
"154 787 OFFCURVE",
"149 759 CURVE SMOOTH",
"148 756 LINE SMOOTH",
"142 724 OFFCURVE",
"133 552 OFFCURVE",
"133 552 CURVE",
"175 550 LINE",
"175 550 OFFCURVE",
"242 720 OFFCURVE",
"247 752 CURVE SMOOTH",
"248 755 LINE SMOOTH",
"253 783 OFFCURVE",
"237 810 OFFCURVE",
"203 810 CURVE SMOOTH"
);
},
{
closed = 1;
nodes = (
"350 810 OFFCURVE",
"331 787 OFFCURVE",
"326 759 CURVE SMOOTH",
"325 756 LINE SMOOTH",
"319 724 OFFCURVE",
"310 552 OFFCURVE",
"310 552 CURVE",
"352 550 LINE",
"352 550 OFFCURVE",
"419 720 OFFCURVE",
"424 752 CURVE SMOOTH",
"425 755 LINE SMOOTH",
"430 783 OFFCURVE",
"414 810 OFFCURVE",
"380 810 CURVE SMOOTH"
);
}
);
width = 397;
}
);
rightKerningGroup = d;
unicode = 0022;
},
{
glyphname = quotesingle;
lastChange = "2017-06-25 12:04:12 +0000";
layers = (
{
layerId = "6F85D940-A117-47EE-950D-70F837F8C9CE";
paths = (
{
closed = 1;
nodes = (
"198 840 OFFCURVE",
"158 811 OFFCURVE",
"151 772 CURVE SMOOTH",
"151 768 LINE SMOOTH",
"142 722 OFFCURVE",
"135 475 OFFCURVE",
"135 475 CURVE",
"208 469 LINE",
"208 469 OFFCURVE",
"311 708 OFFCURVE",
"319 754 CURVE SMOOTH",
"320 758 LINE SMOOTH",
"327 797 OFFCURVE",
"289 840 OFFCURVE",
"237 840 CURVE SMOOTH"
);
}
);
width = 292;
},
{
layerId = "7984B694-437B-44C7-A8AE-41A7C9CC5720";
paths = (
{
closed = 1;
nodes = (
"173 810 OFFCURVE",
"154 787 OFFCURVE",
"149 759 CURVE SMOOTH",
"148 756 LINE SMOOTH",
"142 724 OFFCURVE",
"133 552 OFFCURVE",
"133 552 CURVE",
"175 550 LINE",
"175 550 OFFCURVE",
"242 720 OFFCURVE",
"247 752 CURVE SMOOTH",
"248 755 LINE SMOOTH",
"253 783 OFFCURVE",
"237 810 OFFCURVE",
"203 810 CURVE SMOOTH"
);
}
);
width = 220;
}
);
leftKerningGroup = quotesingle;
rightKerningGroup = quotesingle;
unicode = 0027;
},
{
glyphname = slash;
lastChange = "2017-06-25 12:04:12 +0000";
layers = (
{
layerId = "6F85D940-A117-47EE-950D-70F837F8C9CE";
paths = (
{
closed = 1;
nodes = (
"-43 -120 LINE",
"114 -120 LINE",
"699 860 LINE",
"542 860 LINE"
);
}
);
width = 616;
},
{
layerId = "7984B694-437B-44C7-A8AE-41A7C9CC5720";
paths = (
{
closed = 1;
nodes = (
"-43 -120 LINE",
"31 -120 LINE",
"616 860 LINE",
"542 860 LINE"
);
}
);
width = 533;
}
);
rightKerningGroup = d;
unicode = 002F;
},
{
glyphname = underscore;
lastChange = "2017-06-25 12:04:12 +0000";
layers = (
{
layerId = "6F85D940-A117-47EE-950D-70F837F8C9CE";
paths = (
{
closed = 1;
nodes = (
"450 -100 LINE",
"465 -15 LINE",
"-48 -15 LINE",
"-63 -100 LINE"
);
}
);
width = 513;
},
{
layerId = "7984B694-437B-44C7-A8AE-41A7C9CC5720";
paths = (
{
closed = 1;
nodes = (
"394 -80 LINE",
"402 -35 LINE",
"-51 -35 LINE",
"-59 -80 LINE"
);
}
);
width = 453;
}
);
rightKerningGroup = d;
unicode = 005F;
},
{
glyphname = braceleft;
lastChange = "2017-06-25 12:04:12 +0000";
layers = (
{
layerId = "6F85D940-A117-47EE-950D-70F837F8C9CE";
paths = (
{
closed = 1;
nodes = (
"71 253 LINE",
"114 253 OFFCURVE",
"133 241 OFFCURVE",
"125 195 CURVE SMOOTH",
"77 -72 LINE SMOOTH",
"63 -155 OFFCURVE",
"81 -260 OFFCURVE",
"209 -260 CURVE SMOOTH",
"300 -260 LINE",
"323 -132 LINE",
"277 -132 LINE SMOOTH",
"242 -132 OFFCURVE",
"224 -111 OFFCURVE",
"231 -71 CURVE SMOOTH",
"276 186 LINE SMOOTH",
"286 242 OFFCURVE",
"260 279 OFFCURVE",
"234 294 CURVE",
"277 315 OFFCURVE",
"304 343 OFFCURVE",
"314 400 CURVE SMOOTH",
"359 657 LINE SMOOTH",
"366 697 OFFCURVE",
"406 732 OFFCURVE",
"441 732 CURVE SMOOTH",
"475 732 LINE",
"498 860 LINE",
"395 860 LINE SMOOTH",
"267 860 OFFCURVE",
"226 769 OFFCURVE",
"211 686 CURVE SMOOTH",
"164 419 LINE SMOOTH",
"156 373 OFFCURVE",
"119 347 OFFCURVE",
"76 347 CURVE"
);
}
);
width = 452;
},
{
layerId = "7984B694-437B-44C7-A8AE-41A7C9CC5720";
paths = (
{
closed = 1;
nodes = (
"65 263 LINE",
"128 263 OFFCURVE",
"138 236 OFFCURVE",
"130 190 CURVE SMOOTH",
"83 -77 LINE SMOOTH",
"69 -160 OFFCURVE",
"44 -260 OFFCURVE",
"172 -260 CURVE SMOOTH",
"227 -260 LINE",
"239 -192 LINE",
"217 -192 LINE SMOOTH",
"142 -192 OFFCURVE",
"140 -166 OFFCURVE",
"147 -126 CURVE SMOOTH",
"203 191 LINE SMOOTH",
"213 247 OFFCURVE",
"193 291 OFFCURVE",
"152 298 CURVE",
"200 307 OFFCURVE",
"231 348 OFFCURVE",
"241 405 CURVE SMOOTH",
"297 722 LINE SMOOTH",
"304 762 OFFCURVE",
"320 792 OFFCURVE",
"395 792 CURVE SMOOTH",
"412 792 LINE",
"424 860 LINE",
"365 860 LINE SMOOTH",
"237 860 OFFCURVE",
"232 764 OFFCURVE",
"217 681 CURVE SMOOTH",
"170 414 LINE SMOOTH",
"162 368 OFFCURVE",
"137 337 OFFCURVE",
"74 337 CURVE"
);
}
);
width = 378;
}
);
rightKerningGroup = d;
unicode = 007B;
},
{
glyphname = bracketleft;
lastChange = "2017-09-09 13:29:27 +0000";
layers = (
{
layerId = "6F85D940-A117-47EE-950D-70F837F8C9CE";
paths = (
{
closed = 1;
nodes = (
"291 -260 LINE",
"312 -143 LINE",
"143 -143 LINE",
"299 743 LINE",
"468 743 LINE",
"489 860 LINE",
"167 860 LINE",
"-31 -260 LINE"
);
}
);
width = 443;
},
{
layerId = "7984B694-437B-44C7-A8AE-41A7C9CC5720";
paths = (
{
closed = 1;
nodes = (
"211 -260 LINE",
"223 -193 LINE",
"54 -193 LINE",
"228 793 LINE",
"397 793 LINE",
"408 860 LINE",
"166 860 LINE",
"-31 -260 LINE"
);
}
);
width = 362;
}
);
rightKerningGroup = bracket;
unicode = 005B;
},
{
glyphname = parenleft;
lastChange = "2017-09-09 13:29:34 +0000";
layers = (
{
layerId = "6F85D940-A117-47EE-950D-70F837F8C9CE";
paths = (
{
closed = 1;
nodes = (
"257 -211 LINE",
"256 -211 OFFCURVE",
"164 -48 OFFCURVE",
"222 284 CURVE SMOOTH",
"287 648 OFFCURVE",
"465 829 OFFCURVE",
"465 829 CURVE",
"358 875 LINE",
"358 875 OFFCURVE",
"126 660 OFFCURVE",
"64 310 CURVE SMOOTH",
"2 -42 OFFCURVE",
"134 -257 OFFCURVE",
"134 -257 CURVE"
);
}
);
width = 408;
},
{
background = {
paths = (
{
closed = 1;
nodes = (
"211 -219 LINE",
"161 -142 OFFCURVE",
"111 50 OFFCURVE",
"155 297 CURVE SMOOTH",
"202 558 OFFCURVE",
"323 761 OFFCURVE",
"402 841 CURVE",
"348 871 LINE",
"265 777 OFFCURVE",
"138 557 OFFCURVE",
"92 297 CURVE SMOOTH",
"47 44 OFFCURVE",
"99 -164 OFFCURVE",
"150 -250 CURVE"
);
}
);
};
guideLines = (
{
angle = 30;
position = "{308, -153}";
}
);
layerId = "7984B694-437B-44C7-A8AE-41A7C9CC5720";
paths = (
{
closed = 1;
nodes = (
"213 -219 LINE",
"163 -142 OFFCURVE",
"113 48 OFFCURVE",
"157 297 CURVE SMOOTH",
"202 553 OFFCURVE",
"326 763 OFFCURVE",
"404 841 CURVE",
"348 871 LINE",
"268 781 OFFCURVE",
"138 559 OFFCURVE",
"92 297 CURVE SMOOTH",
"47 41 OFFCURVE",
"99 -164 OFFCURVE",
"150 -250 CURVE"
);
}
);
width = 315;
}
);
rightKerningGroup = bracket;
unicode = 0028;
},
{
glyphname = emdash;
lastChange = "2017-06-25 12:04:12 +0000";
layers = (
{
layerId = "6F85D940-A117-47EE-950D-70F837F8C9CE";
paths = (
{
closed = 1;
nodes = (
"1072 213 LINE",
"1099 366 LINE",
"19 366 LINE",
"-8 213 LINE"
);
}
);
width = 1080;
},
{
layerId = "7984B694-437B-44C7-A8AE-41A7C9CC5720";
paths = (
{
closed = 1;
nodes = (
"941 263 LINE",
"950 316 LINE",
"10 316 LINE",
"1 263 LINE"
);
}
);
width = 940;
}
);
rightKerningGroup = d;
unicode = 2014;
},
{
glyphname = endash;
lastChange = "2017-06-25 12:04:12 +0000";
layers = (
{
layerId = "6F85D940-A117-47EE-950D-70F837F8C9CE";
paths = (
{
closed = 1;
nodes = (
"532 213 LINE",
"559 366 LINE",
"19 366 LINE",
"-8 213 LINE"
);
}
);
width = 540;
},
{
layerId = "7984B694-437B-44C7-A8AE-41A7C9CC5720";
paths = (
{
closed = 1;
nodes = (
"491 263 LINE",
"500 316 LINE",
"10 316 LINE",
"1 263 LINE"
);
}
);
width = 490;
}
);
rightKerningGroup = d;
unicode = 2013;
},
{
glyphname = hyphen;
lastChange = "2017-09-09 13:35:39 +0000";
layers = (
{
layerId = "6F85D940-A117-47EE-950D-70F837F8C9CE";
paths = (
{
closed = 1;
nodes = (
"374 213 LINE",
"401 366 LINE",
"79 366 LINE",
"52 213 LINE"
);
}
);
width = 442;
},
{
layerId = "7984B694-437B-44C7-A8AE-41A7C9CC5720";
paths = (
{
closed = 1;
nodes = (
"383 263 LINE",
"392 316 LINE",
"70 316 LINE",
"61 263 LINE"
);
}
);
width = 442;
}
);
rightKerningGroup = d;
unicode = 002D;
},
{
glyphname = guillemetleft;
lastChange = "2017-06-25 12:04:12 +0000";
layers = (
{
layerId = "6F85D940-A117-47EE-950D-70F837F8C9CE";
paths = (
{
closed = 1;
nodes = (
"187 278 LINE",
"357 455 LINE",
"272 528 LINE",
"37 278 LINE",
"192 28 LINE",
"294 101 LINE"
);
},
{
closed = 1;
nodes = (
"437 278 LINE",
"607 455 LINE",
"522 528 LINE",
"287 278 LINE",
"442 28 LINE",
"544 101 LINE"
);
}
);
width = 626;
},
{
layerId = "7984B694-437B-44C7-A8AE-41A7C9CC5720";
paths = (
{
closed = 1;
nodes = (
"96 278 LINE",
"288 475 LINE",
"253 504 LINE",
"37 278 LINE",
"176 51 LINE",
"218 82 LINE"
);
},
{
closed = 1;
nodes = (
"328 278 LINE",
"520 475 LINE",
"485 504 LINE",
"269 278 LINE",
"408 51 LINE",
"450 82 LINE"
);
}
);
width = 535;
}
);
rightKerningGroup = d;
unicode = 00AB;
},
{
glyphname = guilsinglleft;
lastChange = "2017-06-25 12:04:12 +0000";
layers = (
{
layerId = "6F85D940-A117-47EE-950D-70F837F8C9CE";
paths = (
{
closed = 1;
nodes = (
"187 278 LINE",
"357 455 LINE",
"272 528 LINE",
"37 278 LINE",
"192 28 LINE",
"294 101 LINE"
);
}
);
width = 376;
},
{
layerId = "7984B694-437B-44C7-A8AE-41A7C9CC5720";
paths = (
{
closed = 1;
nodes = (
"96 278 LINE",
"288 475 LINE",
"253 504 LINE",
"37 278 LINE",
"176 51 LINE",
"218 82 LINE"
);
}
);
width = 303;
}
);
rightKerningGroup = d;
unicode = 2039;
},
{
glyphname = quotedblbase;
lastChange = "2017-06-25 12:04:12 +0000";
layers = (
{
layerId = "6F85D940-A117-47EE-950D-70F837F8C9CE";
paths = (
{
closed = 1;
nodes = (
"93 214 OFFCURVE",
"45 174 OFFCURVE",
"36 122 CURVE SMOOTH",
"26 69 OFFCURVE",
"59 28 OFFCURVE",
"101 23 CURVE",
"67 -55 OFFCURVE",
"-2 -117 OFFCURVE",
"-2 -117 CURVE",
"49 -154 LINE",
"132 -93 OFFCURVE",
"220 -7 OFFCURVE",
"238 96 CURVE SMOOTH",
"250 160 OFFCURVE",
"208 214 OFFCURVE",
"144 214 CURVE SMOOTH"
);
},
{
closed = 1;
nodes = (
"346 214 OFFCURVE",
"299 174 OFFCURVE",
"290 122 CURVE SMOOTH",
"280 69 OFFCURVE",
"313 28 OFFCURVE",
"354 23 CURVE",
"321 -55 OFFCURVE",
"252 -117 OFFCURVE",
"252 -117 CURVE",
"303 -154 LINE",
"385 -93 OFFCURVE",
"475 -7 OFFCURVE",
"493 96 CURVE SMOOTH",
"505 160 OFFCURVE",
"461 214 OFFCURVE",
"397 214 CURVE SMOOTH"
);
}
);
width = 544;
},
{
layerId = "7984B694-437B-44C7-A8AE-41A7C9CC5720";
paths = (
{
closed = 1;
nodes = (
"68 131 OFFCURVE",
"33 101 OFFCURVE",
"25 58 CURVE SMOOTH",
"18 16 OFFCURVE",
"52 -28 OFFCURVE",
"106 -9 CURVE",
"81 -70 OFFCURVE",
"-3 -113 OFFCURVE",
"-3 -113 CURVE",
"33 -143 LINE",
"98 -107 OFFCURVE",
"166 -42 OFFCURVE",
"181 43 CURVE SMOOTH",
"190 92 OFFCURVE",
"159 131 OFFCURVE",
"110 131 CURVE SMOOTH"
);
},
{
closed = 1;
nodes = (
"311 131 OFFCURVE",
"276 101 OFFCURVE",
"268 58 CURVE SMOOTH",
"261 16 OFFCURVE",
"295 -28 OFFCURVE",
"349 -9 CURVE",
"324 -70 OFFCURVE",
"240 -113 OFFCURVE",
"240 -113 CURVE",
"276 -143 LINE",
"341 -107 OFFCURVE",
"409 -42 OFFCURVE",
"424 43 CURVE SMOOTH",
"433 92 OFFCURVE",
"402 131 OFFCURVE",
"353 131 CURVE SMOOTH"
);
}
);
width = 485;
}
);
rightKerningGroup = d;
unicode = 201E;
},
{
glyphname = quotedblleft;
lastChange = "2017-06-25 12:04:12 +0000";
layers = (
{
layerId = "6F85D940-A117-47EE-950D-70F837F8C9CE";
paths = (
{
closed = 1;
nodes = (
"240 476 OFFCURVE",
"287 516 OFFCURVE",
"296 568 CURVE SMOOTH",
"306 621 OFFCURVE",
"273 662 OFFCURVE",
"232 667 CURVE",
"265 745 OFFCURVE",
"334 807 OFFCURVE",
"334 807 CURVE",
"283 844 LINE",
"201 783 OFFCURVE",
"111 697 OFFCURVE",
"93 594 CURVE SMOOTH",
"82 530 OFFCURVE",
"125 476 OFFCURVE",
"189 476 CURVE SMOOTH"
);
},
{
closed = 1;
nodes = (
"493 476 OFFCURVE",
"541 516 OFFCURVE",
"550 568 CURVE SMOOTH",
"560 621 OFFCURVE",
"527 662 OFFCURVE",
"485 667 CURVE",
"519 745 OFFCURVE",
"588 807 OFFCURVE",
"588 807 CURVE",
"537 844 LINE",
"454 783 OFFCURVE",
"366 697 OFFCURVE",
"348 594 CURVE SMOOTH",
"337 530 OFFCURVE",
"378 476 OFFCURVE",
"442 476 CURVE SMOOTH"
);
}
);
width = 545;
},
{
layerId = "7984B694-437B-44C7-A8AE-41A7C9CC5720";
paths = (
{
closed = 1;
nodes = (
"208 557 OFFCURVE",
"250 592 OFFCURVE",
"258 635 CURVE SMOOTH",
"267 687 OFFCURVE",
"212 722 OFFCURVE",
"165 688 CURVE",
"189 748 OFFCURVE",
"255 792 OFFCURVE",
"255 792 CURVE",
"223 822 LINE",
"171 786 OFFCURVE",
"105 716 OFFCURVE",
"92 645 CURVE SMOOTH",
"84 596 OFFCURVE",
"117 557 OFFCURVE",
"166 557 CURVE SMOOTH"
);
},
{
closed = 1;
nodes = (
"431 557 OFFCURVE",
"473 592 OFFCURVE",
"481 635 CURVE SMOOTH",
"490 687 OFFCURVE",
"435 722 OFFCURVE",
"388 688 CURVE",
"412 748 OFFCURVE",
"478 792 OFFCURVE",
"478 792 CURVE",
"446 822 LINE",
"394 786 OFFCURVE",
"328 716 OFFCURVE",
"315 645 CURVE SMOOTH",
"307 596 OFFCURVE",
"340 557 OFFCURVE",
"389 557 CURVE SMOOTH"
);
}
);
width = 474;
}
);
leftKerningGroup = quotesingle;
rightKerningGroup = quotesingle;
unicode = 201C;
},
{
glyphname = quotedblright;
lastChange = "2017-06-25 12:04:12 +0000";
layers = (
{
layerId = "6F85D940-A117-47EE-950D-70F837F8C9CE";
paths = (
{
closed = 1;
nodes = (
"448 840 OFFCURVE",
"400 800 OFFCURVE",
"391 748 CURVE SMOOTH",
"382 695 OFFCURVE",
"414 654 OFFCURVE",
"456 649 CURVE",
"423 571 OFFCURVE",
"353 509 OFFCURVE",
"353 509 CURVE",
"404 472 LINE",
"487 533 OFFCURVE",
"576 619 OFFCURVE",
"595 722 CURVE SMOOTH",
"606 786 OFFCURVE",
"563 840 OFFCURVE",
"499 840 CURVE SMOOTH"
);
},
{
closed = 1;
nodes = (
"195 840 OFFCURVE",
"146 800 OFFCURVE",
"137 748 CURVE SMOOTH",
"128 695 OFFCURVE",
"160 654 OFFCURVE",
"203 649 CURVE",
"169 571 OFFCURVE",
"99 509 OFFCURVE",
"99 509 CURVE",
"150 472 LINE",
"234 533 OFFCURVE",
"321 619 OFFCURVE",
"340 722 CURVE SMOOTH",
"351 786 OFFCURVE",
"310 840 OFFCURVE",
"246 840 CURVE SMOOTH"
);
}
);
width = 546;
},
{
layerId = "7984B694-437B-44C7-A8AE-41A7C9CC5720";
paths = (
{
closed = 1;
nodes = (
"406 809 OFFCURVE",
"364 774 OFFCURVE",
"357 731 CURVE SMOOTH",
"348 679 OFFCURVE",
"402 644 OFFCURVE",
"450 678 CURVE",
"425 618 OFFCURVE",
"359 574 OFFCURVE",
"359 574 CURVE",
"391 544 LINE",
"444 580 OFFCURVE",
"509 650 OFFCURVE",
"522 721 CURVE SMOOTH",
"530 770 OFFCURVE",
"497 809 OFFCURVE",
"449 809 CURVE SMOOTH"
);
},
{
closed = 1;
nodes = (
"183 809 OFFCURVE",
"141 774 OFFCURVE",
"134 731 CURVE SMOOTH",
"125 679 OFFCURVE",
"179 644 OFFCURVE",
"227 678 CURVE",
"202 618 OFFCURVE",
"136 574 OFFCURVE",
"136 574 CURVE",
"168 544 LINE",
"221 580 OFFCURVE",
"286 650 OFFCURVE",
"299 721 CURVE SMOOTH",
"307 770 OFFCURVE",
"274 809 OFFCURVE",
"226 809 CURVE SMOOTH"
);
}
);
width = 473;
}
);
leftKerningGroup = quotesingle;
rightKerningGroup = quotesingle;
unicode = 201D;
},
{
glyphname = quoteleft;
lastChange = "2017-06-25 12:04:12 +0000";
layers = (
{
layerId = "6F85D940-A117-47EE-950D-70F837F8C9CE";
paths = (
{
closed = 1;
nodes = (
"230 476 OFFCURVE",
"277 516 OFFCURVE",
"286 568 CURVE SMOOTH",
"296 621 OFFCURVE",
"263 662 OFFCURVE",
"222 667 CURVE",
"255 745 OFFCURVE",
"324 807 OFFCURVE",
"324 807 CURVE",
"273 844 LINE",
"191 783 OFFCURVE",
"101 697 OFFCURVE",
"83 594 CURVE SMOOTH",
"72 530 OFFCURVE",
"115 476 OFFCURVE",
"179 476 CURVE SMOOTH"
);
}
);
width = 291;
},
{
layerId = "7984B694-437B-44C7-A8AE-41A7C9CC5720";
paths = (
{
closed = 1;
nodes = (
"208 557 OFFCURVE",
"250 592 OFFCURVE",
"258 635 CURVE SMOOTH",
"267 687 OFFCURVE",
"212 722 OFFCURVE",
"165 688 CURVE",
"189 748 OFFCURVE",
"255 792 OFFCURVE",
"255 792 CURVE",
"223 822 LINE",
"171 786 OFFCURVE",
"105 716 OFFCURVE",
"92 645 CURVE SMOOTH",
"84 596 OFFCURVE",
"117 557 OFFCURVE",
"166 557 CURVE SMOOTH"
);
}
);
width = 221;
}
);
leftKerningGroup = quotesingle;
rightKerningGroup = quotesingle;
unicode = 2018;
},
{
glyphname = quoteright;
lastChange = "2017-09-09 13:35:32 +0000";
layers = (
{
layerId = "6F85D940-A117-47EE-950D-70F837F8C9CE";
paths = (
{
closed = 1;
nodes = (
"184 840 OFFCURVE",
"136 800 OFFCURVE",
"127 748 CURVE SMOOTH",
"118 695 OFFCURVE",
"150 654 OFFCURVE",
"192 649 CURVE",
"159 571 OFFCURVE",
"89 509 OFFCURVE",
"89 509 CURVE",
"140 472 LINE",
"223 533 OFFCURVE",
"312 619 OFFCURVE",
"331 722 CURVE SMOOTH",
"342 786 OFFCURVE",
"299 840 OFFCURVE",
"235 840 CURVE SMOOTH"
);
}
);
width = 292;
},
{
layerId = "7984B694-437B-44C7-A8AE-41A7C9CC5720";
paths = (
{
closed = 1;
nodes = (
"173 809 OFFCURVE",
"131 774 OFFCURVE",
"124 731 CURVE SMOOTH",
"115 679 OFFCURVE",
"169 644 OFFCURVE",
"217 678 CURVE",
"192 618 OFFCURVE",
"126 574 OFFCURVE",
"126 574 CURVE",
"158 544 LINE",
"211 580 OFFCURVE",
"276 650 OFFCURVE",
"289 721 CURVE SMOOTH",
"297 770 OFFCURVE",
"264 809 OFFCURVE",
"216 809 CURVE SMOOTH"
);
}
);
width = 247;
}
);
leftKerningGroup = quotesingle;
rightKerningGroup = quotesingle;
unicode = 2019;
},
{
glyphname = quotesinglbase;
lastChange = "2017-06-25 12:04:12 +0000";
layers = (
{
layerId = "6F85D940-A117-47EE-950D-70F837F8C9CE";
paths = (
{
closed = 1;
nodes = (
"92 214 OFFCURVE",
"45 174 OFFCURVE",
"36 122 CURVE SMOOTH",
"26 69 OFFCURVE",
"59 28 OFFCURVE",
"100 23 CURVE",
"67 -55 OFFCURVE",
"-2 -117 OFFCURVE",
"-2 -117 CURVE",
"49 -154 LINE",
"131 -93 OFFCURVE",
"221 -7 OFFCURVE",
"239 96 CURVE SMOOTH",
"251 160 OFFCURVE",
"207 214 OFFCURVE",
"143 214 CURVE SMOOTH"
);
}
);
width = 290;
},
{
layerId = "7984B694-437B-44C7-A8AE-41A7C9CC5720";
paths = (
{
closed = 1;
nodes = (
"68 131 OFFCURVE",
"33 101 OFFCURVE",
"25 58 CURVE SMOOTH",
"18 16 OFFCURVE",
"52 -28 OFFCURVE",
"106 -9 CURVE",
"81 -70 OFFCURVE",
"-3 -113 OFFCURVE",
"-3 -113 CURVE",
"33 -143 LINE",
"98 -107 OFFCURVE",
"166 -42 OFFCURVE",
"181 43 CURVE SMOOTH",
"190 92 OFFCURVE",
"159 131 OFFCURVE",
"110 131 CURVE SMOOTH"
);
}
);
width = 242;
}
);
rightKerningGroup = d;
unicode = 201A;
},
{
glyphname = cent;
lastChange = "2017-06-25 12:04:12 +0000";
layers = (
{
components = (
{
name = c;
}
);
layerId = "6F85D940-A117-47EE-950D-70F837F8C9CE";
paths = (
{
closed = 1;
nodes = (
"291 494 LINE",
"398 494 LINE",
"423 636 LINE",
"316 636 LINE"
);
},
{
closed = 1;
nodes = (
"182 -129 LINE",
"289 -129 LINE",
"314 13 LINE",
"207 13 LINE"
);
}
);
width = 496;
},
{
components = (
{
name = c;
}
);
layerId = "7984B694-437B-44C7-A8AE-41A7C9CC5720";
paths = (
{
closed = 1;
nodes = (
"301 494 LINE",
"348 494 LINE",
"373 636 LINE",
"326 636 LINE"
);
},
{
closed = 1;
nodes = (
"192 -129 LINE",
"239 -129 LINE",
"264 13 LINE",
"217 13 LINE"
);
}
);
width = 493;
}
);
leftKerningGroup = c;
rightKerningGroup = c;
unicode = 00A2;
},
{
glyphname = dollar;
lastChange = "2017-06-25 12:04:12 +0000";
layers = (
{
components = (
{
name = S;
transform = "{1, 0, 0, 1, 24, 0}";
}
);
layerId = "6F85D940-A117-47EE-950D-70F837F8C9CE";
paths = (
{
closed = 1;
nodes = (
"376 817 LINE",
"483 817 LINE",
"508 959 LINE",
"401 959 LINE"
);
},
{
closed = 1;
nodes = (
"210 -129 LINE",
"317 -129 LINE",
"342 13 LINE",
"235 13 LINE"
);
}
);
width = 668;
},
{
components = (
{
name = S;
transform = "{1, 0, 0, 1, 26, 0}";
}
);
layerId = "7984B694-437B-44C7-A8AE-41A7C9CC5720";
paths = (
{
closed = 1;
nodes = (
"378 817 LINE",
"425 817 LINE",
"450 959 LINE",
"403 959 LINE"
);
},
{
closed = 1;
nodes = (
"212 -129 LINE",
"259 -129 LINE",
"284 13 LINE",
"237 13 LINE"
);
}
);
width = 581;
}
);
leftKerningGroup = S;
rightKerningGroup = d;
unicode = 0024;
},
{
glyphname = euro;
lastChange = "2017-06-25 12:04:12 +0000";
layers = (
{
components = (
{
alignment = -1;
name = C;
transform = "{1, 0, 0, 1, 61, 0}";
}
);
layerId = "6F85D940-A117-47EE-950D-70F837F8C9CE";
paths = (
{
closed = 1;
nodes = (
"40 441 LINE",
"662 441 LINE",
"681 549 LINE",
"59 549 LINE"
);
},
{
closed = 1;
nodes = (
"11 274 LINE",
"633 274 LINE",
"652 382 LINE",
"30 382 LINE"
);
}
);
width = 800;
},
{
components = (
{
alignment = -1;
name = C;
transform = "{1, 0, 0, 1, 61, 0}";
}
);
layerId = "7984B694-437B-44C7-A8AE-41A7C9CC5720";
paths = (
{
closed = 1;
nodes = (
"44 461 LINE",
"666 461 LINE",
"678 529 LINE",
"56 529 LINE"
);
},
{
closed = 1;
nodes = (
"14 294 LINE",
"636 294 LINE",
"648 362 LINE",
"26 362 LINE"
);
}
);
width = 768;
}
);
rightKerningGroup = d;
unicode = 20AC;
},
{
glyphname = sterling;
lastChange = "2017-06-25 12:04:12 +0000";
layers = (
{
layerId = "6F85D940-A117-47EE-950D-70F837F8C9CE";
paths = (
{
closed = 1;
nodes = (
"61 289 LINE",
"214 295 LINE",
"218 278 OFFCURVE",
"218 262 OFFCURVE",
"216 249 CURVE SMOOTH",
"211 220 OFFCURVE",
"202 202 OFFCURVE",
"180 184 CURVE",
"92 178 OFFCURVE",
"21 61 OFFCURVE",
"11 7 CURVE",
"125 -6 LINE",
"125 -6 OFFCURVE",
"145 43 OFFCURVE",
"191 43 CURVE SMOOTH",
"280 43 OFFCURVE",
"362 -15 OFFCURVE",
"492 -15 CURVE SMOOTH",
"646 -15 OFFCURVE",
"695 136 OFFCURVE",
"695 136 CURVE",
"570 201 LINE",
"570 201 OFFCURVE",
"536 129 OFFCURVE",
"473 129 CURVE SMOOTH",
"405 129 OFFCURVE",
"344 162 OFFCURVE",
"334 162 CURVE SMOOTH",
"340 162 OFFCURVE",
"367 189 OFFCURVE",
"374 230 CURVE SMOOTH",
"378 253 OFFCURVE",
"379 269 OFFCURVE",
"379 283 CURVE",
"518 289 LINE",
"536 387 LINE",
"359 381 LINE",
"346 430 OFFCURVE",
"333 489 OFFCURVE",
"346 565 CURVE SMOOTH",
"360 647 OFFCURVE",
"407 689 OFFCURVE",
"474 689 CURVE SMOOTH",
"566 689 OFFCURVE",
"554 577 OFFCURVE",
"554 577 CURVE",
"725 651 LINE",
"724 651 OFFCURVE",
"718 841 OFFCURVE",
"478 841 CURVE SMOOTH",
"299 841 OFFCURVE",
"189 731 OFFCURVE",
"164 591 CURVE SMOOTH",
"150 510 OFFCURVE",
"164 437 OFFCURVE",
"185 393 CURVE",
"78 387 LINE"
);
}
);
width = 754;
},
{
layerId = "7984B694-437B-44C7-A8AE-41A7C9CC5720";
paths = (
{
closed = 1;
nodes = (
"64 306 LINE",
"198 308 LINE",
"202 294 OFFCURVE",
"206 241 OFFCURVE",
"203 225 CURVE SMOOTH",
"198 199 OFFCURVE",
"182 157 OFFCURVE",
"169 150 CURVE",
"90 148 OFFCURVE",
"22 66 OFFCURVE",
"11 2 CURVE",
"75 -2 LINE",
"75 -2 OFFCURVE",
"109 86 OFFCURVE",
"182 86 CURVE SMOOTH",
"274 86 OFFCURVE",
"329 -15 OFFCURVE",
"455 -15 CURVE SMOOTH",
"582 -15 OFFCURVE",
"638 114 OFFCURVE",
"638 114 CURVE",
"584 143 LINE",
"584 143 OFFCURVE",
"555 48 OFFCURVE",
"456 48 CURVE SMOOTH",
"384 48 OFFCURVE",
"318 128 OFFCURVE",
"245 143 CURVE SMOOTH",
"248 143 OFFCURVE",
"267 178 OFFCURVE",
"274 212 CURVE SMOOTH",
"280 245 OFFCURVE",
"276 295 OFFCURVE",
"274 304 CURVE",
"501 306 LINE",
"512 367 LINE",
"259 365 LINE",
"249 395 OFFCURVE",
"223 494 OFFCURVE",
"237 573 CURVE SMOOTH",
"258 692 OFFCURVE",
"338 774 OFFCURVE",
"462 774 CURVE SMOOTH",
"607 774 OFFCURVE",
"620 650 OFFCURVE",
"620 650 CURVE",
"694 679 LINE",
"694 679 OFFCURVE",
"661 841 OFFCURVE",
"465 841 CURVE SMOOTH",
"282 841 OFFCURVE",
"187 716 OFFCURVE",
"163 583 CURVE SMOOTH",
"149 505 OFFCURVE",
"174 398 OFFCURVE",
"183 369 CURVE",
"75 367 LINE"
);
}
);
width = 701;
}
);
rightKerningGroup = d;
unicode = 00A3;
},
{
glyphname = yen;
lastChange = "2017-09-24 14:36:59 +0000";
layers = (
{
components = (
{
name = Y;
transform = "{1, 0, 0, 1, 25, 0}";
}
);
layerId = "6F85D940-A117-47EE-950D-70F837F8C9CE";
paths = (
{
closed = 1;
nodes = (
"98 302 LINE",
"711 302 LINE",
"734 435 LINE",
"121 435 LINE"
);
},
{
closed = 1;
nodes = (
"64 110 LINE",
"677 110 LINE",
"700 243 LINE",
"87 243 LINE"
);
}
);
width = 736;
},
{
components = (
{
name = Y;
transform = "{1, 0, 0, 1, 26, 0}";
}
);
layerId = "7984B694-437B-44C7-A8AE-41A7C9CC5720";
paths = (
{
closed = 1;
nodes = (
"84 312 LINE",
"626 312 LINE",
"637 375 LINE",
"95 375 LINE"
);
},
{
closed = 1;
nodes = (
"59 170 LINE",
"601 170 LINE",
"612 233 LINE",
"70 233 LINE"
);
}
);
width = 596;
}
);
rightKerningGroup = d;
unicode = 00A5;
},
{
glyphname = plus;
lastChange = "2017-06-25 12:04:12 +0000";
layers = (
{
layerId = "6F85D940-A117-47EE-950D-70F837F8C9CE";
paths = (
{
closed = 1;
nodes = (
"587 338 LINE",
"614 491 LINE",
"434 491 LINE",
"466 671 LINE",
"313 671 LINE",
"281 491 LINE",
"101 491 LINE",
"74 338 LINE",
"254 338 LINE",
"222 158 LINE",
"375 158 LINE",
"407 338 LINE"
);
}
);
width = 633;
},
{
layerId = "7984B694-437B-44C7-A8AE-41A7C9CC5720";
paths = (
{
closed = 1;
nodes = (
"597 388 LINE",
"606 441 LINE",
"376 441 LINE",
"417 671 LINE",
"364 671 LINE",
"323 441 LINE",
"93 441 LINE",
"84 388 LINE",
"314 388 LINE",
"273 158 LINE",
"326 158 LINE",
"367 388 LINE"
);
}
);
width = 634;
}
);
rightKerningGroup = d;
unicode = 002B;
},
{
glyphname = minus;
lastChange = "2017-06-25 12:04:12 +0000";
layers = (
{
layerId = "6F85D940-A117-47EE-950D-70F837F8C9CE";
paths = (
{
closed = 1;
nodes = (
"587 338 LINE",
"614 491 LINE",
"101 491 LINE",
"74 338 LINE"
);
}
);
width = 633;
},
{
layerId = "7984B694-437B-44C7-A8AE-41A7C9CC5720";
paths = (
{
closed = 1;
nodes = (
"546 386 LINE",
"556 439 LINE",
"93 439 LINE",
"83 386 LINE"
);
}
);
width = 584;
}
);
rightKerningGroup = d;
unicode = 2212;
},
{
glyphname = multiply;
lastChange = "2017-06-25 12:04:12 +0000";
layers = (
{
layerId = "6F85D940-A117-47EE-950D-70F837F8C9CE";
paths = (
{
closed = 1;
nodes = (
"632 567 LINE",
"539 675 LINE",
"359 523 LINE",
"234 675 LINE",
"111 568 LINE",
"236 415 LINE",
"58 263 LINE",
"151 154 LINE",
"331 307 LINE",
"457 154 LINE",
"579 262 LINE",
"452 414 LINE"
);
}
);
width = 634;
},
{
layerId = "7984B694-437B-44C7-A8AE-41A7C9CC5720";
paths = (
{
closed = 1;
nodes = (
"574 605 LINE",
"541 643 LINE",
"317 452 LINE",
"160 643 LINE",
"117 605 LINE",
"274 415 LINE",
"50 224 LINE",
"83 186 LINE",
"307 377 LINE",
"464 186 LINE",
"507 224 LINE",
"349 415 LINE"
);
}
);
width = 569;
}
);
rightKerningGroup = d;
unicode = 00D7;
},
{
glyphname = divide;
lastChange = "2017-06-25 12:04:12 +0000";
layers = (
{
layerId = "6F85D940-A117-47EE-950D-70F837F8C9CE";
paths = (
{
closed = 1;
nodes = (
"346 720 OFFCURVE",
"311 691 OFFCURVE",
"304 651 CURVE SMOOTH",
"295 601 OFFCURVE",
"329 558 OFFCURVE",
"379 558 CURVE SMOOTH",
"419 558 OFFCURVE",
"455 587 OFFCURVE",
"461 625 CURVE SMOOTH",
"471 677 OFFCURVE",
"436 720 OFFCURVE",
"385 720 CURVE SMOOTH"
);
},
{
closed = 1;
nodes = (
"587 338 LINE",
"614 491 LINE",
"101 491 LINE",
"74 338 LINE"
);
},
{
closed = 1;
nodes = (
"267 271 OFFCURVE",
"232 242 OFFCURVE",
"225 202 CURVE SMOOTH",
"216 152 OFFCURVE",
"250 109 OFFCURVE",
"300 109 CURVE SMOOTH",
"340 109 OFFCURVE",
"376 138 OFFCURVE",
"382 176 CURVE SMOOTH",
"392 228 OFFCURVE",
"357 271 OFFCURVE",
"306 271 CURVE SMOOTH"
);
}
);
width = 633;
},
{
layerId = "7984B694-437B-44C7-A8AE-41A7C9CC5720";
paths = (
{
closed = 1;
nodes = (
"332 662 OFFCURVE",
"307 641 OFFCURVE",
"302 614 CURVE SMOOTH",
"297 583 OFFCURVE",
"318 558 OFFCURVE",
"348 558 CURVE SMOOTH",
"376 558 OFFCURVE",
"400 579 OFFCURVE",
"405 604 CURVE SMOOTH",
"411 637 OFFCURVE",
"390 662 OFFCURVE",
"357 662 CURVE SMOOTH"
);
},
{
closed = 1;
nodes = (
"546 386 LINE",
"556 439 LINE",
"93 439 LINE",
"83 386 LINE"
);
},
{
closed = 1;
nodes = (
"263 271 OFFCURVE",
"238 250 OFFCURVE",
"234 223 CURVE SMOOTH",
"228 192 OFFCURVE",
"249 167 OFFCURVE",
"279 167 CURVE SMOOTH",
"307 167 OFFCURVE",
"331 188 OFFCURVE",
"336 213 CURVE SMOOTH",
"342 246 OFFCURVE",
"321 271 OFFCURVE",
"289 271 CURVE SMOOTH"
);
}
);
width = 584;
}
);
rightKerningGroup = d;
unicode = 00F7;
},
{
glyphname = equal;
lastChange = "2017-06-25 12:04:12 +0000";
layers = (
{
layerId = "6F85D940-A117-47EE-950D-70F837F8C9CE";
paths = (
{
closed = 1;
nodes = (
"609 458 LINE",
"636 611 LINE",
"123 611 LINE",
"96 458 LINE"
);
},
{
closed = 1;
nodes = (
"567 218 LINE",
"594 371 LINE",
"81 371 LINE",
"54 218 LINE"
);
}
);
width = 634;
},
{
layerId = "7984B694-437B-44C7-A8AE-41A7C9CC5720";
paths = (
{
closed = 1;
nodes = (
"565 490 LINE",
"574 543 LINE",
"111 543 LINE",
"102 490 LINE"
);
},
{
closed = 1;
nodes = (
"529 288 LINE",
"538 341 LINE",
"75 341 LINE",
"66 288 LINE"
);
}
);
width = 584;
}
);
rightKerningGroup = d;
unicode = 003D;
},
{
glyphname = notequal;
lastChange = "2017-06-25 12:04:12 +0000";
layers = (
{
components = (
{
name = equal;
transform = "{1, 0, 0, 1, -17, 0}";
}
);
layerId = "6F85D940-A117-47EE-950D-70F837F8C9CE";
paths = (
{
closed = 1;
nodes = (
"644 755 LINE",
"521 755 LINE",
"2 70 LINE",
"125 70 LINE"
);
}
);
width = 617;
},
{
components = (
{
name = equal;
transform = "{1, 0, 0, 1, 13, 0}";
}
);
layerId = "7984B694-437B-44C7-A8AE-41A7C9CC5720";
paths = (
{
closed = 1;
nodes = (
"580 725 LINE",
"520 725 LINE",
"32 100 LINE",
"92 100 LINE"
);
}
);
width = 647;
}
);
rightKerningGroup = d;
unicode = 2260;
},
{
glyphname = greater;
lastChange = "2017-06-25 12:04:12 +0000";
layers = (
{
layerId = "6F85D940-A117-47EE-950D-70F837F8C9CE";
paths = (
{
closed = 1;
nodes = (
"622 357 LINE",
"641 475 LINE",
"133 697 LINE",
"110 555 LINE",
"442 415 LINE",
"59 277 LINE",
"36 135 LINE"
);
}
);
width = 664;
},
{
layerId = "7984B694-437B-44C7-A8AE-41A7C9CC5720";
paths = (
{
closed = 1;
nodes = (
"584 377 LINE",
"597 455 LINE",
"131 687 LINE",
"122 630 LINE",
"551 415 LINE",
"46 202 LINE",
"36 145 LINE"
);
}
);
width = 623;
}
);
rightKerningGroup = d;
unicode = 003E;
},
{
glyphname = plusminus;
lastChange = "2017-06-25 12:04:12 +0000";
layers = (
{
layerId = "6F85D940-A117-47EE-950D-70F837F8C9CE";
paths = (
{
closed = 1;
nodes = (
"592 363 LINE",
"619 516 LINE",
"439 516 LINE",
"467 671 LINE",
"314 671 LINE",
"286 516 LINE",
"106 516 LINE",
"79 363 LINE",
"259 363 LINE",
"232 208 LINE",
"385 208 LINE",
"412 363 LINE"
);
},
{
closed = 1;
nodes = (
"528 0 LINE",
"555 153 LINE",
"42 153 LINE",
"15 0 LINE"
);
}
);
width = 633;
},
{
layerId = "7984B694-437B-44C7-A8AE-41A7C9CC5720";
paths = (
{
closed = 1;
nodes = (
"601 413 LINE",
"610 466 LINE",
"380 466 LINE",
"417 671 LINE",
"364 671 LINE",
"327 466 LINE",
"97 466 LINE",
"88 413 LINE",
"318 413 LINE",
"282 208 LINE",
"335 208 LINE",
"371 413 LINE"
);
},
{
closed = 1;
nodes = (
"537 50 LINE",
"546 103 LINE",
"33 103 LINE",
"24 50 LINE"
);
}
);
width = 633;
}
);
rightKerningGroup = d;
unicode = 00B1;
},
{
glyphname = asciitilde;
lastChange = "2017-06-25 12:04:12 +0000";
layers = (
{
layerId = "6F85D940-A117-47EE-950D-70F837F8C9CE";
paths = (
{
closed = 1;
nodes = (
"596 521 LINE",
"598 521 OFFCURVE",
"547 443 OFFCURVE",
"483 443 CURVE SMOOTH",
"436 443 OFFCURVE",
"384 528 OFFCURVE",
"278 528 CURVE SMOOTH",
"172 528 OFFCURVE",
"83 387 OFFCURVE",
"83 387 CURVE",
"163 310 LINE",
"161 310 OFFCURVE",
"212 388 OFFCURVE",
"276 388 CURVE SMOOTH",
"324 388 OFFCURVE",
"378 303 OFFCURVE",
"481 303 CURVE SMOOTH",
"587 303 OFFCURVE",
"676 444 OFFCURVE",
"676 444 CURVE"
);
}
);
width = 703;
},
{
layerId = "7984B694-437B-44C7-A8AE-41A7C9CC5720";
paths = (
{
closed = 1;
nodes = (
"625 486 LINE",
"626 486 OFFCURVE",
"566 383 OFFCURVE",
"485 383 CURVE SMOOTH",
"415 383 OFFCURVE",
"374 508 OFFCURVE",
"271 508 CURVE SMOOTH",
"162 508 OFFCURVE",
"83 389 OFFCURVE",
"83 389 CURVE",
"130 344 LINE",
"130 344 OFFCURVE",
"190 448 OFFCURVE",
"270 448 CURVE SMOOTH",
"342 448 OFFCURVE",
"382 323 OFFCURVE",
"482 323 CURVE SMOOTH",
"591 323 OFFCURVE",
"670 442 OFFCURVE",
"670 442 CURVE"
);
}
);
width = 697;
}
);
rightKerningGroup = d;
unicode = 007E;
},
{
glyphname = percent;
lastChange = "2017-06-25 12:04:12 +0000";
layers = (
{
layerId = "6F85D940-A117-47EE-950D-70F837F8C9CE";
paths = (
{
closed = 1;
nodes = (
"145 0 LINE",
"267 0 LINE",
"893 825 LINE",
"771 825 LINE"
);
},
{
closed = 1;
nodes = (
"72 536 OFFCURVE",
"150 446 OFFCURVE",
"290 446 CURVE SMOOTH",
"413 446 OFFCURVE",
"511 522 OFFCURVE",
"530 630 CURVE SMOOTH",
"552 752 OFFCURVE",
"465 840 OFFCURVE",
"337 840 CURVE SMOOTH",
"217 840 OFFCURVE",
"112 766 OFFCURVE",
"93 656 CURVE SMOOTH"
);
},
{
closed = 1;
nodes = (
"228 690 OFFCURVE",
"283 736 OFFCURVE",
"340 736 CURVE SMOOTH",
"384 736 OFFCURVE",
"412 704 OFFCURVE",
"404 656 CURVE SMOOTH",
"393 596 OFFCURVE",
"341 552 OFFCURVE",
"284 552 CURVE SMOOTH",
"236 552 OFFCURVE",
"209 582 OFFCURVE",
"217 630 CURVE SMOOTH"
);
},
{
closed = 1;
nodes = (
"483 73 OFFCURVE",
"570 -15 OFFCURVE",
"702 -15 CURVE SMOOTH",
"818 -15 OFFCURVE",
"923 59 OFFCURVE",
"942 169 CURVE SMOOTH",
"963 289 OFFCURVE",
"882 379 OFFCURVE",
"749 379 CURVE SMOOTH",
"619 379 OFFCURVE",
"524 303 OFFCURVE",
"505 195 CURVE SMOOTH"
);
},
{
closed = 1;
nodes = (
"640 229 OFFCURVE",
"691 273 OFFCURVE",
"751 273 CURVE SMOOTH",
"796 273 OFFCURVE",
"824 243 OFFCURVE",
"816 195 CURVE SMOOTH",
"805 135 OFFCURVE",
"751 89 OFFCURVE",
"695 89 CURVE SMOOTH",
"650 89 OFFCURVE",
"621 121 OFFCURVE",
"629 169 CURVE SMOOTH"
);
}
);
width = 980;
},
{
layerId = "7984B694-437B-44C7-A8AE-41A7C9CC5720";
paths = (
{
closed = 1;
nodes = (
"95 0 LINE",
"155 0 LINE",
"781 825 LINE",
"721 825 LINE"
);
},
{
closed = 1;
nodes = (
"77 558 OFFCURVE",
"134 492 OFFCURVE",
"241 492 CURVE SMOOTH",
"336 492 OFFCURVE",
"414 554 OFFCURVE",
"429 638 CURVE SMOOTH",
"445 730 OFFCURVE",
"380 794 OFFCURVE",
"285 794 CURVE SMOOTH",
"190 794 OFFCURVE",
"108 734 OFFCURVE",
"92 648 CURVE SMOOTH"
);
},
{
closed = 1;
nodes = (
"156 704 OFFCURVE",
"219 749 OFFCURVE",
"285 749 CURVE SMOOTH",
"344 749 OFFCURVE",
"385 708 OFFCURVE",
"374 648 CURVE SMOOTH",
"363 580 OFFCURVE",
"304 538 OFFCURVE",
"239 538 CURVE SMOOTH",
"174 538 OFFCURVE",
"134 576 OFFCURVE",
"145 638 CURVE SMOOTH"
);
},
{
closed = 1;
nodes = (
"428 96 OFFCURVE",
"486 30 OFFCURVE",
"592 30 CURVE SMOOTH",
"688 30 OFFCURVE",
"765 92 OFFCURVE",
"780 176 CURVE SMOOTH",
"796 268 OFFCURVE",
"732 332 OFFCURVE",
"636 332 CURVE SMOOTH",
"542 332 OFFCURVE",
"459 272 OFFCURVE",
"444 186 CURVE SMOOTH"
);
},
{
closed = 1;
nodes = (
"508 242 OFFCURVE",
"570 287 OFFCURVE",
"636 287 CURVE SMOOTH",
"695 287 OFFCURVE",
"737 246 OFFCURVE",
"726 186 CURVE SMOOTH",
"714 118 OFFCURVE",
"655 76 OFFCURVE",
"590 76 CURVE SMOOTH",
"525 76 OFFCURVE",
"485 114 OFFCURVE",
"496 176 CURVE SMOOTH"
);
}
);
width = 817;
}
);
rightKerningGroup = d;
unicode = 0025;
},
{
glyphname = perthousand;
lastChange = "2017-06-25 12:04:12 +0000";
layers = (
{
layerId = "6F85D940-A117-47EE-950D-70F837F8C9CE";
paths = (
{
closed = 1;
nodes = (
"145 0 LINE",
"267 0 LINE",
"893 825 LINE",
"771 825 LINE"
);
},
{
closed = 1;
nodes = (
"72 536 OFFCURVE",
"150 446 OFFCURVE",
"290 446 CURVE SMOOTH",
"413 446 OFFCURVE",
"511 522 OFFCURVE",
"530 630 CURVE SMOOTH",
"552 752 OFFCURVE",
"465 840 OFFCURVE",
"337 840 CURVE SMOOTH",
"217 840 OFFCURVE",
"112 766 OFFCURVE",
"93 656 CURVE SMOOTH"
);
},
{
closed = 1;
nodes = (
"228 690 OFFCURVE",
"283 736 OFFCURVE",
"340 736 CURVE SMOOTH",
"384 736 OFFCURVE",
"412 704 OFFCURVE",
"404 656 CURVE SMOOTH",
"393 596 OFFCURVE",
"341 552 OFFCURVE",
"284 552 CURVE SMOOTH",
"236 552 OFFCURVE",
"209 582 OFFCURVE",
"217 630 CURVE SMOOTH"
);
},
{
closed = 1;
nodes = (
"483 73 OFFCURVE",
"570 -15 OFFCURVE",
"702 -15 CURVE SMOOTH",
"818 -15 OFFCURVE",
"923 59 OFFCURVE",
"942 169 CURVE SMOOTH",
"963 289 OFFCURVE",
"882 379 OFFCURVE",
"749 379 CURVE SMOOTH",
"619 379 OFFCURVE",
"524 303 OFFCURVE",
"505 195 CURVE SMOOTH"
);
},
{
closed = 1;
nodes = (
"640 229 OFFCURVE",
"691 273 OFFCURVE",
"751 273 CURVE SMOOTH",
"796 273 OFFCURVE",
"824 243 OFFCURVE",
"816 195 CURVE SMOOTH",
"805 135 OFFCURVE",
"751 89 OFFCURVE",
"695 89 CURVE SMOOTH",
"650 89 OFFCURVE",
"621 121 OFFCURVE",
"629 169 CURVE SMOOTH"
);
},
{
closed = 1;
nodes = (
"971 73 OFFCURVE",
"1058 -15 OFFCURVE",
"1190 -15 CURVE SMOOTH",
"1306 -15 OFFCURVE",
"1411 59 OFFCURVE",
"1430 169 CURVE SMOOTH",
"1451 289 OFFCURVE",
"1370 379 OFFCURVE",
"1237 379 CURVE SMOOTH",
"1107 379 OFFCURVE",
"1012 303 OFFCURVE",
"993 195 CURVE SMOOTH"
);
},
{
closed = 1;
nodes = (
"1128 229 OFFCURVE",
"1179 273 OFFCURVE",
"1239 273 CURVE SMOOTH",
"1284 273 OFFCURVE",
"1312 243 OFFCURVE",
"1304 195 CURVE SMOOTH",
"1293 135 OFFCURVE",
"1239 89 OFFCURVE",
"1183 89 CURVE SMOOTH",
"1138 89 OFFCURVE",
"1109 121 OFFCURVE",
"1117 169 CURVE SMOOTH"
);
}
);
width = 1468;
},
{
layerId = "7984B694-437B-44C7-A8AE-41A7C9CC5720";
paths = (
{
closed = 1;
nodes = (
"95 0 LINE",
"155 0 LINE",
"781 825 LINE",
"721 825 LINE"
);
},
{
closed = 1;
nodes = (
"77 558 OFFCURVE",
"134 492 OFFCURVE",
"241 492 CURVE SMOOTH",
"336 492 OFFCURVE",
"414 554 OFFCURVE",
"429 638 CURVE SMOOTH",
"445 730 OFFCURVE",
"380 794 OFFCURVE",
"285 794 CURVE SMOOTH",
"190 794 OFFCURVE",
"108 734 OFFCURVE",
"92 648 CURVE SMOOTH"
);
},
{
closed = 1;
nodes = (
"156 704 OFFCURVE",
"219 749 OFFCURVE",
"285 749 CURVE SMOOTH",
"344 749 OFFCURVE",
"385 708 OFFCURVE",
"374 648 CURVE SMOOTH",
"363 580 OFFCURVE",
"304 538 OFFCURVE",
"239 538 CURVE SMOOTH",
"174 538 OFFCURVE",
"134 576 OFFCURVE",
"145 638 CURVE SMOOTH"
);
},
{
closed = 1;
nodes = (
"428 96 OFFCURVE",
"486 30 OFFCURVE",
"592 30 CURVE SMOOTH",
"688 30 OFFCURVE",
"765 92 OFFCURVE",
"780 176 CURVE SMOOTH",
"796 268 OFFCURVE",
"732 332 OFFCURVE",
"636 332 CURVE SMOOTH",
"542 332 OFFCURVE",
"459 272 OFFCURVE",
"444 186 CURVE SMOOTH"
);
},
{
closed = 1;
nodes = (
"508 242 OFFCURVE",
"570 287 OFFCURVE",
"636 287 CURVE SMOOTH",
"695 287 OFFCURVE",
"737 246 OFFCURVE",
"726 186 CURVE SMOOTH",
"714 118 OFFCURVE",
"655 76 OFFCURVE",
"590 76 CURVE SMOOTH",
"525 76 OFFCURVE",
"485 114 OFFCURVE",
"496 176 CURVE SMOOTH"
);
},
{
closed = 1;
nodes = (
"824 96 OFFCURVE",
"882 30 OFFCURVE",
"988 30 CURVE SMOOTH",
"1084 30 OFFCURVE",
"1161 92 OFFCURVE",
"1176 176 CURVE SMOOTH",
"1192 268 OFFCURVE",
"1128 332 OFFCURVE",
"1032 332 CURVE SMOOTH",
"938 332 OFFCURVE",
"855 272 OFFCURVE",
"840 186 CURVE SMOOTH"
);
},
{
closed = 1;
nodes = (
"904 242 OFFCURVE",
"966 287 OFFCURVE",
"1032 287 CURVE SMOOTH",
"1091 287 OFFCURVE",
"1133 246 OFFCURVE",
"1122 186 CURVE SMOOTH",
"1110 118 OFFCURVE",
"1051 76 OFFCURVE",
"986 76 CURVE SMOOTH",
"921 76 OFFCURVE",
"881 114 OFFCURVE",
"892 176 CURVE SMOOTH"
);
}
);
width = 1213;
}
);
rightKerningGroup = d;
unicode = 2030;
},
{
glyphname = at;
lastChange = "2017-06-25 12:04:12 +0000";
layers = (
{
layerId = "6F85D940-A117-47EE-950D-70F837F8C9CE";
paths = (
{
closed = 1;
nodes = (
"680 344 OFFCURVE",
"691 393 OFFCURVE",
"691 393 CURVE",
"727 595 LINE",
"608 595 LINE",
"597 553 LINE",
"571 583 OFFCURVE",
"530 606 OFFCURVE",
"473 606 CURVE SMOOTH",
"368 606 OFFCURVE",
"280 523 OFFCURVE",
"262 416 CURVE SMOOTH",
"241 298 OFFCURVE",
"309 202 OFFCURVE",
"424 202 CURVE SMOOTH",
"472 202 OFFCURVE",
"518 220 OFFCURVE",
"551 251 CURVE",
"566 273 LINE",
"593 245 OFFCURVE",
"642 223 OFFCURVE",
"702 223 CURVE SMOOTH",
"794 223 OFFCURVE",
"904 279 OFFCURVE",
"930 429 CURVE SMOOTH",
"973 671 OFFCURVE",
"805 840 OFFCURVE",
"565 840 CURVE SMOOTH",
"327 840 OFFCURVE",
"97 674 OFFCURVE",
"53 426 CURVE SMOOTH",
"7 166 OFFCURVE",
"187 -15 OFFCURVE",
"437 -15 CURVE SMOOTH",
"647 -15 OFFCURVE",
"758 122 OFFCURVE",
"758 122 CURVE",
"654 195 LINE",
"655 195 OFFCURVE",
"577 127 OFFCURVE",
"439 127 CURVE SMOOTH",
"278 127 OFFCURVE",
"167 243 OFFCURVE",
"195 400 CURVE SMOOTH",
"225 569 OFFCURVE",
"389 709 OFFCURVE",
"565 709 CURVE SMOOTH",
"733 709 OFFCURVE",
"842 606 OFFCURVE",
"816 455 CURVE SMOOTH",
"801 375 OFFCURVE",
"771 344 OFFCURVE",
"722 344 CURVE SMOOTH"
);
},
{
closed = 1;
nodes = (
"422 445 OFFCURVE",
"471 487 OFFCURVE",
"522 487 CURVE SMOOTH",
"559 487 OFFCURVE",
"584 459 OFFCURVE",
"577 418 CURVE SMOOTH",
"568 366 OFFCURVE",
"521 325 OFFCURVE",
"470 325 CURVE SMOOTH",
"428 325 OFFCURVE",
"405 352 OFFCURVE",
"412 392 CURVE SMOOTH"
);
}
);
width = 922;
},
{
layerId = "7984B694-437B-44C7-A8AE-41A7C9CC5720";
paths = (
{
closed = 1;
nodes = (
"654 269 OFFCURVE",
"671 338 OFFCURVE",
"671 338 CURVE",
"716 595 LINE",
"657 595 LINE",
"646 536 LINE",
"640 555 OFFCURVE",
"593 606 OFFCURVE",
"499 606 CURVE SMOOTH",
"372 606 OFFCURVE",
"279 518 OFFCURVE",
"259 408 CURVE SMOOTH",
"239 293 OFFCURVE",
"305 202 OFFCURVE",
"436 202 CURVE SMOOTH",
"537 202 OFFCURVE",
"598 269 OFFCURVE",
"607 285 CURVE",
"613 296 LINE",
"618 260 OFFCURVE",
"645 218 OFFCURVE",
"711 218 CURVE SMOOTH",
"797 218 OFFCURVE",
"905 294 OFFCURVE",
"930 437 CURVE SMOOTH",
"972 676 OFFCURVE",
"807 840 OFFCURVE",
"571 840 CURVE SMOOTH",
"329 840 OFFCURVE",
"95 669 OFFCURVE",
"51 418 CURVE SMOOTH",
"6 161 OFFCURVE",
"183 -15 OFFCURVE",
"429 -15 CURVE SMOOTH",
"639 -15 OFFCURVE",
"753 119 OFFCURVE",
"753 119 CURVE",
"705 155 LINE",
"706 155 OFFCURVE",
"611 47 OFFCURVE",
"431 47 CURVE SMOOTH",
"233 47 OFFCURVE",
"78 198 OFFCURVE",
"115 408 CURVE SMOOTH",
"153 624 OFFCURVE",
"363 780 OFFCURVE",
"569 780 CURVE SMOOTH",
"775 780 OFFCURVE",
"899 636 OFFCURVE",
"866 447 CURVE SMOOTH",
"844 320 OFFCURVE",
"760 269 OFFCURVE",
"715 269 CURVE SMOOTH"
);
},
{
closed = 1;
nodes = (
"333 490 OFFCURVE",
"413 557 OFFCURVE",
"504 557 CURVE SMOOTH",
"586 557 OFFCURVE",
"641 498 OFFCURVE",
"626 415 CURVE SMOOTH",
"611 327 OFFCURVE",
"531 253 OFFCURVE",
"441 253 CURVE SMOOTH",
"350 253 OFFCURVE",
"302 319 OFFCURVE",
"317 401 CURVE SMOOTH"
);
}
);
width = 920;
}
);
rightKerningGroup = d;
unicode = 0040;
},
{
glyphname = ampersand;
lastChange = "2017-09-09 11:22:35 +0000";
layers = (
{
background = {
components = (
{
name = e;
transform = "{1, 0, -0.3527, -1, 184, 812}";
}
);
};
guideLines = (
{
angle = 80;
position = "{804, 472}";
},
{
position = "{1387, -14}";
}
);
layerId = "6F85D940-A117-47EE-950D-70F837F8C9CE";
paths = (
{
closed = 1;
nodes = (
"736 137 OFFCURVE",
"708 137 OFFCURVE",
"679 137 CURVE SMOOTH",
"643 137 OFFCURVE",
"640 163 OFFCURVE",
"648 211 CURVE SMOOTH",
"674 359 LINE",
"776 356 LINE",
"800 491 LINE",
"485 494 LINE SMOOTH",
"366 495 OFFCURVE",
"344 575 OFFCURVE",
"350 617 CURVE SMOOTH",
"357 663 OFFCURVE",
"413 688 OFFCURVE",
"479 688 CURVE SMOOTH",
"532 688 OFFCURVE",
"591 673 OFFCURVE",
"639 641 CURVE",
"667 796 LINE",
"633 826 OFFCURVE",
"566 839 OFFCURVE",
"480 839 CURVE SMOOTH",
"320 839 OFFCURVE",
"183 780 OFFCURVE",
"159 638 CURVE SMOOTH",
"147 567 OFFCURVE",
"183 457 OFFCURVE",
"255 443 CURVE",
"175 440 OFFCURVE",
"49 373 OFFCURVE",
"29 249 CURVE SMOOTH",
"1 76 OFFCURVE",
"105 -21 OFFCURVE",
"287 -21 CURVE SMOOTH",
"397 -21 OFFCURVE",
"479 8 OFFCURVE",
"529 56 CURVE",
"554 7 OFFCURVE",
"592 -12 OFFCURVE",
"646 -12 CURVE SMOOTH",
"674 -12 OFFCURVE",
"711 -8 OFFCURVE",
"740 0 CURVE",
"765 137 LINE"
);
},
{
closed = 1;
nodes = (
"235 304 OFFCURVE",
"278 363 OFFCURVE",
"403 362 CURVE SMOOTH",
"506 361 LINE",
"488 206 OFFCURVE",
"437 129 OFFCURVE",
"316 127 CURVE SMOOTH",
"259 126 OFFCURVE",
"213 157 OFFCURVE",
"224 231 CURVE SMOOTH"
);
}
);
width = 786;
},
{
guideLines = (
{
position = "{2151, -18}";
},
{
angle = 80;
position = "{645, 134}";
}
);
layerId = "7984B694-437B-44C7-A8AE-41A7C9CC5720";
paths = (
{
closed = 1;
nodes = (
"600 40 OFFCURVE",
"558 38 OFFCURVE",
"543 56 CURVE SMOOTH",
"531 71 OFFCURVE",
"524 99 OFFCURVE",
"532 144 CURVE SMOOTH",
"582 415 LINE",
"692 415 LINE",
"703 479 LINE",
"373 479 LINE SMOOTH",
"258 479 OFFCURVE",
"204 560 OFFCURVE",
"220 646 CURVE SMOOTH",
"236 733 OFFCURVE",
"329 774 OFFCURVE",
"424 774 CURVE SMOOTH",
"475 774 OFFCURVE",
"526 762 OFFCURVE",
"566 740 CURVE",
"577 806 LINE",
"540 826 OFFCURVE",
"472 837 OFFCURVE",
"420 837 CURVE SMOOTH",
"282 837 OFFCURVE",
"168 766 OFFCURVE",
"148 638 CURVE SMOOTH",
"132 537 OFFCURVE",
"183 462 OFFCURVE",
"255 451 CURVE",
"164 442 OFFCURVE",
"50 364 OFFCURVE",
"23 215 CURVE SMOOTH",
"0 87 OFFCURVE",
"78 -17 OFFCURVE",
"235 -17 CURVE SMOOTH",
"346 -17 OFFCURVE",
"419 24 OFFCURVE",
"469 87 CURVE",
"474 22 OFFCURVE",
"502 -14 OFFCURVE",
"566 -14 CURVE SMOOTH",
"597 -14 OFFCURVE",
"622 -8 OFFCURVE",
"643 -2 CURVE",
"650 49 LINE"
);
},
{
closed = 1;
nodes = (
"111 310 OFFCURVE",
"201 415 OFFCURVE",
"334 415 CURVE SMOOTH",
"513 415 LINE",
"478 170 OFFCURVE",
"421 45 OFFCURVE",
"245 44 CURVE SMOOTH",
"161 44 OFFCURVE",
"81 101 OFFCURVE",
"97 214 CURVE SMOOTH"
);
}
);
width = 689;
}
);
rightKerningGroup = d;
unicode = 0026;
},
{
glyphname = paragraph;
lastChange = "2017-06-25 12:04:12 +0000";
layers = (
{
layerId = "6F85D940-A117-47EE-950D-70F837F8C9CE";
paths = (
{
closed = 1;
nodes = (
"749 825 LINE",
"380 825 LINE SMOOTH",
"219 825 OFFCURVE",
"105 719 OFFCURVE",
"81 584 CURVE SMOOTH",
"55 438 OFFCURVE",
"139 306 OFFCURVE",
"300 306 CURVE SMOOTH",
"390 306 LINE",
"336 0 LINE",
"439 0 LINE",
"566 721 LINE",
"627 721 LINE",
"500 0 LINE",
"603 0 LINE"
);
}
);
width = 709;
},
{
layerId = "7984B694-437B-44C7-A8AE-41A7C9CC5720";
paths = (
{
closed = 1;
nodes = (
"583 825 LINE",
"362 825 LINE SMOOTH",
"191 825 OFFCURVE",
"103 714 OFFCURVE",
"86 616 CURVE SMOOTH",
"68 513 OFFCURVE",
"119 386 OFFCURVE",
"290 386 CURVE SMOOTH",
"333 386 LINE",
"265 0 LINE",
"313 0 LINE",
"449 771 LINE",
"525 771 LINE",
"389 0 LINE",
"437 0 LINE"
);
}
);
width = 543;
}
);
rightKerningGroup = d;
unicode = 00B6;
},
{
glyphname = section;
lastChange = "2017-06-25 12:04:12 +0000";
layers = (
{
layerId = "6F85D940-A117-47EE-950D-70F837F8C9CE";
paths = (
{
closed = 1;
nodes = (
"411 -275 OFFCURVE",
"494 -159 OFFCURVE",
"508 -79 CURVE SMOOTH",
"524 8 OFFCURVE",
"499 74 OFFCURVE",
"446 109 CURVE",
"541 149 OFFCURVE",
"604 207 OFFCURVE",
"616 276 CURVE SMOOTH",
"637 396 OFFCURVE",
"568 467 OFFCURVE",
"452 521 CURVE SMOOTH",
"378 564 OFFCURVE",
"322 590 OFFCURVE",
"328 624 CURVE SMOOTH",
"335 661 OFFCURVE",
"367 692 OFFCURVE",
"415 692 CURVE SMOOTH",
"485 692 OFFCURVE",
"467 628 OFFCURVE",
"467 628 CURVE",
"637 655 LINE",
"637 655 OFFCURVE",
"637 840 OFFCURVE",
"418 840 CURVE SMOOTH",
"254 840 OFFCURVE",
"155 746 OFFCURVE",
"137 644 CURVE SMOOTH",
"121 556 OFFCURVE",
"162 497 OFFCURVE",
"209 456 CURVE",
"134 434 OFFCURVE",
"45 378 OFFCURVE",
"29 289 CURVE SMOOTH",
"8 169 OFFCURVE",
"77 98 OFFCURVE",
"193 44 CURVE SMOOTH",
"268 1 OFFCURVE",
"321 -24 OFFCURVE",
"315 -59 CURVE SMOOTH",
"309 -94 OFFCURVE",
"276 -127 OFFCURVE",
"209 -127 CURVE SMOOTH",
"133 -127 OFFCURVE",
"135 -51 OFFCURVE",
"135 -51 CURVE",
"-35 -78 LINE",
"-34 -78 OFFCURVE",
"-32 -275 OFFCURVE",
"206 -275 CURVE SMOOTH"
);
},
{
closed = 1;
nodes = (
"297 387 OFFCURVE",
"331 367 OFFCURVE",
"337 370 CURVE SMOOTH",
"397 344 OFFCURVE",
"459 316 OFFCURVE",
"451 273 CURVE SMOOTH",
"442 218 OFFCURVE",
"385 189 OFFCURVE",
"334 174 CURVE",
"318 185 OFFCURVE",
"306 192 OFFCURVE",
"297 190 CURVE SMOOTH",
"248 220 OFFCURVE",
"186 249 OFFCURVE",
"194 292 CURVE SMOOTH",
"203 346 OFFCURVE",
"260 375 OFFCURVE",
"298 387 CURVE"
);
}
);
width = 641;
},
{
layerId = "7984B694-437B-44C7-A8AE-41A7C9CC5720";
paths = (
{
closed = 1;
nodes = (
"402 -275 OFFCURVE",
"464 -154 OFFCURVE",
"479 -71 CURVE SMOOTH",
"493 13 OFFCURVE",
"470 61 OFFCURVE",
"414 98 CURVE",
"481 126 OFFCURVE",
"549 184 OFFCURVE",
"563 266 CURVE SMOOTH",
"584 382 OFFCURVE",
"490 418 OFFCURVE",
"377 474 CURVE SMOOTH",
"299 515 OFFCURVE",
"208 555 OFFCURVE",
"225 652 CURVE SMOOTH",
"240 734 OFFCURVE",
"325 792 OFFCURVE",
"427 792 CURVE SMOOTH",
"551 792 OFFCURVE",
"557 680 OFFCURVE",
"557 680 CURVE",
"613 689 LINE",
"613 689 OFFCURVE",
"609 840 OFFCURVE",
"424 840 CURVE SMOOTH",
"268 840 OFFCURVE",
"183 739 OFFCURVE",
"168 656 CURVE SMOOTH",
"151 559 OFFCURVE",
"206 516 OFFCURVE",
"256 474 CURVE",
"202 460 OFFCURVE",
"99 409 OFFCURVE",
"82 309 CURVE SMOOTH",
"63 201 OFFCURVE",
"162 158 OFFCURVE",
"275 102 CURVE SMOOTH",
"353 61 OFFCURVE",
"437 31 OFFCURVE",
"419 -67 CURVE SMOOTH",
"405 -147 OFFCURVE",
"360 -227 OFFCURVE",
"198 -227 CURVE SMOOTH",
"54 -227 OFFCURVE",
"53 -108 OFFCURVE",
"53 -108 CURVE",
"-11 -118 LINE",
"-11 -118 OFFCURVE",
"-6 -275 OFFCURVE",
"198 -275 CURVE SMOOTH"
);
},
{
closed = 1;
nodes = (
"315 448 OFFCURVE",
"351 425 OFFCURVE",
"353 426 CURVE SMOOTH",
"434 388 OFFCURVE",
"518 353 OFFCURVE",
"504 278 CURVE SMOOTH",
"490 196 OFFCURVE",
"403 137 OFFCURVE",
"363 125 CURVE",
"333 138 OFFCURVE",
"302 154 OFFCURVE",
"297 155 CURVE SMOOTH",
"222 198 OFFCURVE",
"129 232 OFFCURVE",
"142 303 CURVE SMOOTH",
"157 391 OFFCURVE",
"249 432 OFFCURVE",
"313 451 CURVE"
);
}
);
width = 639;
}
);
rightKerningGroup = d;
unicode = 00A7;
},
{
glyphname = copyright;
lastChange = "2017-09-09 11:21:28 +0000";
layers = (
{
background = {
paths = (
{
closed = 1;
nodes = (
"-2 186 OFFCURVE",
"123 -24 OFFCURVE",
"401 -24 CURVE SMOOTH",
"670 -24 OFFCURVE",
"871 161 OFFCURVE",
"914 407 CURVE SMOOTH",
"956 663 OFFCURVE",
"800 849 OFFCURVE",
"551 849 CURVE SMOOTH",
"309 849 OFFCURVE",
"92 672 OFFCURVE",
"42 417 CURVE SMOOTH"
);
},
{
closed = 1;
nodes = (
"194 588 OFFCURVE",
"341 735 OFFCURVE",
"527 735 CURVE SMOOTH",
"710 735 OFFCURVE",
"826 590 OFFCURVE",
"797 409 CURVE SMOOTH",
"768 234 OFFCURVE",
"616 96 OFFCURVE",
"422 96 CURVE SMOOTH",
"198 96 OFFCURVE",
"138 264 OFFCURVE",
"163 413 CURVE SMOOTH"
);
},
{
closed = 1;
nodes = (
"561 310 OFFCURVE",
"527 303 OFFCURVE",
"499 303 CURVE SMOOTH",
"437 303 OFFCURVE",
"391 345 OFFCURVE",
"406 408 CURVE SMOOTH",
"419 473 OFFCURVE",
"465 514 OFFCURVE",
"537 514 CURVE SMOOTH",
"564 514 OFFCURVE",
"595 507 OFFCURVE",
"625 490 CURVE",
"656 610 LINE",
"629 622 OFFCURVE",
"599 629 OFFCURVE",
"552 629 CURVE SMOOTH",
"412 629 OFFCURVE",
"299 543 OFFCURVE",
"278 414 CURVE SMOOTH",
"257 284 OFFCURVE",
"323 195 OFFCURVE",
"462 192 CURVE SMOOTH",
"510 191 OFFCURVE",
"540 200 OFFCURVE",
"570 211 CURVE",
"594 322 LINE"
);
}
);
};
layerId = "6F85D940-A117-47EE-950D-70F837F8C9CE";
paths = (
{
closed = 1;
nodes = (
"-2 186 OFFCURVE",
"123 -24 OFFCURVE",
"401 -24 CURVE SMOOTH",
"670 -24 OFFCURVE",
"871 161 OFFCURVE",
"914 407 CURVE SMOOTH",
"956 663 OFFCURVE",
"800 849 OFFCURVE",
"551 849 CURVE SMOOTH",
"309 849 OFFCURVE",
"92 672 OFFCURVE",
"42 417 CURVE SMOOTH"
);
},
{
closed = 1;
nodes = (
"194 588 OFFCURVE",
"341 735 OFFCURVE",
"527 735 CURVE SMOOTH",
"710 735 OFFCURVE",
"826 590 OFFCURVE",
"797 409 CURVE SMOOTH",
"768 234 OFFCURVE",
"616 96 OFFCURVE",
"422 96 CURVE SMOOTH",
"198 96 OFFCURVE",
"138 264 OFFCURVE",
"163 413 CURVE SMOOTH"
);
},
{
closed = 1;
nodes = (
"561 310 OFFCURVE",
"527 303 OFFCURVE",
"499 303 CURVE SMOOTH",
"437 303 OFFCURVE",
"391 345 OFFCURVE",
"406 408 CURVE SMOOTH",
"419 473 OFFCURVE",
"465 514 OFFCURVE",
"537 514 CURVE SMOOTH",
"564 514 OFFCURVE",
"595 507 OFFCURVE",
"625 490 CURVE",
"656 610 LINE",
"629 622 OFFCURVE",
"599 629 OFFCURVE",
"552 629 CURVE SMOOTH",
"412 629 OFFCURVE",
"299 543 OFFCURVE",
"278 414 CURVE SMOOTH",
"257 284 OFFCURVE",
"323 195 OFFCURVE",
"462 192 CURVE SMOOTH",
"510 191 OFFCURVE",
"540 200 OFFCURVE",
"570 211 CURVE",
"594 322 LINE"
);
}
);
width = 902;
},
{
layerId = "7984B694-437B-44C7-A8AE-41A7C9CC5720";
paths = (
{
closed = 1;
nodes = (
"3 180 OFFCURVE",
"122 -25 OFFCURVE",
"395 -25 CURVE SMOOTH",
"659 -25 OFFCURVE",
"859 156 OFFCURVE",
"905 397 CURVE SMOOTH",
"953 648 OFFCURVE",
"801 830 OFFCURVE",
"557 830 CURVE SMOOTH",
"320 830 OFFCURVE",
"104 657 OFFCURVE",
"51 407 CURVE SMOOTH"
);
},
{
closed = 1;
nodes = (
"153 603 OFFCURVE",
"325 773 OFFCURVE",
"540 773 CURVE SMOOTH",
"750 773 OFFCURVE",
"882 613 OFFCURVE",
"844 404 CURVE SMOOTH",
"808 204 OFFCURVE",
"629 35 OFFCURVE",
"405 35 CURVE SMOOTH",
"148 35 OFFCURVE",
"84 232 OFFCURVE",
"116 403 CURVE SMOOTH"
);
},
{
closed = 1;
nodes = (
"551 264 OFFCURVE",
"506 252 OFFCURVE",
"467 252 CURVE SMOOTH",
"374 252 OFFCURVE",
"344 318 OFFCURVE",
"362 407 CURVE SMOOTH",
"383 510 OFFCURVE",
"454 548 OFFCURVE",
"527 548 CURVE SMOOTH",
"574 548 OFFCURVE",
"619 528 OFFCURVE",
"628 520 CURVE",
"642 581 LINE",
"631 591 OFFCURVE",
"591 606 OFFCURVE",
"539 606 CURVE SMOOTH",
"412 606 OFFCURVE",
"325 524 OFFCURVE",
"300 407 CURVE SMOOTH",
"275 289 OFFCURVE",
"329 195 OFFCURVE",
"454 195 CURVE SMOOTH",
"495 195 OFFCURVE",
"536 204 OFFCURVE",
"567 221 CURVE",
"584 282 LINE"
);
}
);
width = 900;
}
);
rightKerningGroup = d;
unicode = 00A9;
},
{
glyphname = registered;
lastChange = "2017-09-09 11:13:29 +0000";
layers = (
{
layerId = "6F85D940-A117-47EE-950D-70F837F8C9CE";
paths = (
{
closed = 1;
nodes = (
"66 499 OFFCURVE",
"154 392 OFFCURVE",
"282 392 CURVE SMOOTH",
"401 392 OFFCURVE",
"512 485 OFFCURVE",
"532 602 CURVE SMOOTH",
"555 732 OFFCURVE",
"469 840 OFFCURVE",
"338 840 CURVE SMOOTH",
"222 840 OFFCURVE",
"110 746 OFFCURVE",
"89 628 CURVE SMOOTH"
);
},
{
closed = 1;
nodes = (
"162 699 OFFCURVE",
"256 780 OFFCURVE",
"350 780 CURVE SMOOTH",
"437 780 OFFCURVE",
"492 713 OFFCURVE",
"477 628 CURVE SMOOTH",
"460 532 OFFCURVE",
"367 452 OFFCURVE",
"269 452 CURVE SMOOTH",
"186 452 OFFCURVE",
"130 518 OFFCURVE",
"144 602 CURVE SMOOTH"
);
},
{
closed = 1;
nodes = (
"224 513 LINE",
"271 513 LINE",
"285 595 LINE",
"288 595 LINE",
"336 513 LINE",
"394 513 LINE",
"341 597 LINE",
"370 606 OFFCURVE",
"384 620 OFFCURVE",
"388 646 CURVE SMOOTH",
"396 692 OFFCURVE",
"366 720 OFFCURVE",
"327 720 CURVE SMOOTH",
"260 720 LINE"
);
},
{
closed = 1;
nodes = (
"301 683 LINE",
"312 683 LINE SMOOTH",
"329 683 OFFCURVE",
"345 688 OFFCURVE",
"341 668 CURVE SMOOTH",
"336 637 OFFCURVE",
"308 628 OFFCURVE",
"291 628 CURVE SMOOTH",
"291 628 LINE"
);
}
);
width = 494;
},
{
layerId = "7984B694-437B-44C7-A8AE-41A7C9CC5720";
paths = (
{
closed = 1;
nodes = (
"70 494 OFFCURVE",
"155 392 OFFCURVE",
"279 392 CURVE SMOOTH",
"402 392 OFFCURVE",
"516 487 OFFCURVE",
"538 610 CURVE SMOOTH",
"561 737 OFFCURVE",
"476 840 OFFCURVE",
"349 840 CURVE SMOOTH",
"229 840 OFFCURVE",
"113 741 OFFCURVE",
"92 620 CURVE SMOOTH"
);
},
{
closed = 1;
nodes = (
"143 724 OFFCURVE",
"242 810 OFFCURVE",
"348 810 CURVE SMOOTH",
"454 810 OFFCURVE",
"528 716 OFFCURVE",
"508 613 CURVE SMOOTH",
"488 510 OFFCURVE",
"391 422 OFFCURVE",
"280 422 CURVE SMOOTH",
"179 422 OFFCURVE",
"106 512 OFFCURVE",
"124 615 CURVE SMOOTH"
);
},
{
closed = 1;
nodes = (
"231 513 LINE",
"266 513 LINE",
"280 595 LINE",
"305 595 LINE",
"338 513 LINE",
"379 513 LINE",
"342 598 LINE",
"369 607 OFFCURVE",
"383 625 OFFCURVE",
"389 654 CURVE SMOOTH",
"396 697 OFFCURVE",
"369 720 OFFCURVE",
"330 720 CURVE SMOOTH",
"267 720 LINE"
);
},
{
closed = 1;
nodes = (
"297 691 LINE",
"324 691 LINE SMOOTH",
"351 691 OFFCURVE",
"359 686 OFFCURVE",
"355 663 CURVE SMOOTH",
"350 635 OFFCURVE",
"337 620 OFFCURVE",
"310 620 CURVE SMOOTH",
"285 620 LINE"
);
}
);
width = 494;
}
);
rightKerningGroup = d;
unicode = 00AE;
},
